{"glyphs":{"0":{"ha":757,"x_min":15,"x_max":739,"o":"m 342 -3 q 185 62 250 7 q 82 200 121 117 q 29 386 43 283 q 24 593 15 488 q 62 795 33 697 q 141 966 92 892 q 257 1079 190 1039 q 407 1109 324 1119 q 560 1044 496 1099 q 665 906 624 989 q 722 722 705 823 q 733 518 739 621 q 699 318 727 415 q 622 147 671 221 q 503 32 572 73 q 342 -3 433 -9 m 377 806 q 320 774 345 807 q 282 688 296 741 q 266 572 269 635 q 273 454 263 510 q 304 359 282 399 q 363 312 327 319 q 412 358 393 319 q 438 453 430 397 q 445 571 446 509 q 435 686 444 633 q 411 773 426 739 q 377 806 396 807 z "},"1":{"ha":716,"x_min":26,"x_max":705,"o":"m 68 4 q 43 32 53 9 q 30 85 34 54 q 27 149 26 115 q 35 212 28 183 q 53 262 42 241 q 79 288 64 283 l 252 290 l 258 806 l 148 762 q 109 770 129 747 q 74 831 88 792 q 55 917 60 871 q 61 996 50 963 l 258 1118 l 500 1118 l 498 290 l 666 292 q 695 233 685 274 q 705 147 705 193 q 692 62 704 102 q 658 5 681 22 l 68 4 z "},"2":{"ha":735,"x_min":23,"x_max":728,"o":"m 52 3 q 24 149 23 76 q 68 273 24 222 q 240 422 161 339 q 375 584 319 505 q 460 728 431 663 q 484 821 490 792 q 444 847 469 845 q 391 837 419 849 q 334 802 363 825 q 279 751 304 779 q 234 697 254 724 q 208 650 214 670 q 163 633 189 627 q 113 663 137 639 q 73 722 90 686 q 57 796 56 758 q 132 950 75 883 q 263 1057 189 1017 q 420 1106 338 1097 q 572 1087 503 1115 q 684 991 640 1059 q 726 807 728 922 q 681 640 712 719 q 605 492 650 560 q 506 370 560 425 q 393 274 452 315 l 701 290 q 717 227 711 263 q 723 153 723 191 q 714 76 723 114 q 685 5 705 38 l 52 3 z "},"3":{"ha":765,"x_min":27,"x_max":745,"o":"m 27 304 q 44 345 28 323 q 81 385 60 366 q 125 415 102 403 q 167 429 149 427 q 241 342 189 374 q 350 304 294 309 q 450 325 406 300 q 499 411 494 350 q 489 491 503 448 q 444 564 475 534 q 367 600 412 593 q 263 572 321 606 q 196 598 221 578 q 161 644 171 618 q 154 696 151 670 q 172 742 157 723 l 328 871 l 72 871 q 39 928 50 897 q 32 993 28 960 q 54 1056 35 1025 q 111 1109 73 1086 l 604 1109 q 619 1076 610 1099 q 630 1022 628 1053 q 624 957 632 991 q 589 887 616 922 l 503 762 q 597 715 553 749 q 672 636 640 682 q 722 534 704 590 q 741 420 741 479 q 700 221 745 307 q 584 83 655 136 q 425 16 513 31 q 257 26 338 1 q 113 119 176 52 q 27 304 50 187 z "},"4":{"ha":730,"x_min":28,"x_max":718,"o":"m 376 522 l 28 528 l 31 1055 q 45 1078 30 1067 q 85 1095 61 1088 q 138 1105 109 1103 q 193 1104 167 1108 q 238 1088 218 1100 q 263 1054 258 1076 q 262 993 263 1031 q 262 915 262 955 q 261 837 262 875 q 260 776 260 799 l 377 777 l 380 1053 q 428 1089 395 1073 q 498 1109 461 1105 q 570 1101 536 1114 q 621 1054 604 1089 l 621 776 l 688 779 q 711 728 704 766 q 717 649 718 690 q 707 573 716 608 q 680 530 697 538 q 663 530 669 530 q 653 529 658 529 q 643 528 648 529 q 625 528 637 528 l 627 54 q 578 17 610 30 q 509 2 545 4 q 439 8 473 0 q 387 34 406 16 l 376 522 z "},"5":{"ha":719,"x_min":12,"x_max":707,"o":"m 24 342 q 30 411 12 380 q 77 458 47 442 q 140 473 107 475 q 194 444 174 472 q 236 340 202 384 q 311 281 270 296 q 389 288 351 266 q 441 384 426 309 q 396 494 438 453 q 293 560 354 536 q 163 597 232 585 q 38 623 94 610 l 35 1097 l 625 1104 q 656 1053 644 1088 q 671 979 667 1017 q 668 905 674 940 q 647 857 662 871 l 321 852 l 320 764 q 442 723 374 751 q 568 650 510 694 q 667 545 627 605 q 707 414 707 486 q 661 206 707 293 q 545 69 616 119 q 391 8 475 19 q 232 30 308 -3 q 99 139 156 62 q 24 342 42 216 z "},"6":{"ha":751,"x_min":30,"x_max":749,"o":"m 39 301 q 39 499 30 400 q 76 689 49 598 q 146 858 103 780 q 250 993 190 936 q 386 1082 311 1050 q 551 1112 461 1114 q 579 1087 560 1104 q 613 1045 598 1070 q 632 985 628 1020 q 616 909 636 951 q 484 869 544 907 q 380 779 423 831 q 315 673 338 727 q 297 589 293 620 q 453 680 381 661 q 581 682 525 700 q 675 615 636 663 q 731 502 713 567 q 743 363 749 437 q 703 222 736 290 q 608 100 670 155 q 452 16 547 45 q 304 17 374 4 q 179 65 235 30 q 87 160 123 100 q 39 301 50 220 m 351 282 q 405 262 373 256 q 463 293 437 267 q 502 357 490 319 q 496 434 514 395 q 448 450 479 454 q 391 422 418 445 q 351 363 365 400 q 351 282 336 326 z "},"7":{"ha":779,"x_min":18,"x_max":757,"o":"m 458 35 q 300 -14 378 -16 q 144 33 222 -12 l 401 836 l 79 849 q 37 884 54 852 q 19 958 20 917 q 37 1039 18 998 q 107 1099 57 1080 l 757 1096 l 458 35 z "},"8":{"ha":827,"x_min":11,"x_max":818,"o":"m 382 3 q 240 33 308 4 q 121 109 172 62 q 41 217 71 156 q 12 345 11 278 q 50 477 14 411 q 167 602 85 544 q 93 705 115 648 q 72 819 71 761 q 96 931 73 878 q 159 1027 119 985 q 250 1093 198 1069 q 365 1114 302 1116 q 490 1082 433 1111 q 589 1011 547 1054 q 655 918 631 968 q 683 817 680 867 q 667 724 686 766 q 601 656 647 681 q 753 557 703 620 q 810 420 803 494 q 787 271 818 346 q 699 135 757 195 q 559 37 642 75 q 382 3 477 0 m 420 502 q 365 481 391 500 q 321 435 339 463 q 298 375 304 407 q 301 317 292 343 q 338 274 311 290 q 418 260 366 258 q 469 276 448 260 q 503 316 491 292 q 516 370 514 340 q 509 426 518 399 q 477 473 499 453 q 420 502 456 494 m 380 936 q 329 913 350 930 q 296 872 308 895 q 283 823 285 849 q 290 777 281 798 q 319 742 298 755 q 373 730 339 728 q 408 741 392 727 q 435 779 425 755 q 450 829 445 802 q 448 881 454 857 q 426 920 442 905 q 380 936 410 936 z "},"9":{"ha":724,"x_min":15,"x_max":693,"o":"m 403 473 q 296 451 350 453 q 193 465 241 449 q 106 517 145 481 q 45 610 66 553 q 22 760 15 688 q 66 895 30 833 q 163 1006 103 958 q 296 1082 222 1054 q 408 1102 354 1104 q 509 1077 463 1100 q 593 1012 556 1054 q 652 911 629 970 q 670 846 662 879 q 684 770 678 814 q 691 667 689 727 q 690 519 693 606 q 677 313 686 433 q 652 30 669 193 q 620 3 654 16 q 539 -13 586 -9 q 446 -5 492 -16 q 377 41 400 7 l 403 473 m 334 878 q 284 857 305 875 q 250 813 263 838 q 235 760 237 788 q 241 710 232 732 q 272 673 250 688 q 331 662 294 659 q 376 685 357 666 q 406 729 395 704 q 418 783 416 754 q 412 833 420 811 q 385 869 404 856 q 334 878 365 882 z "}," ":{"ha":543,"x_min":0,"x_max":0,"o":""}," ":{"ha":543,"x_min":0,"x_max":0,"o":""},"\"":{"ha":811,"x_min":47,"x_max":789,"o":"m 345 670 q 232 654 288 642 q 134 705 176 666 q 70 804 92 745 q 56 929 47 864 q 97 1025 68 985 q 163 1088 126 1066 q 241 1114 201 1111 q 317 1096 282 1116 q 374 1045 353 1076 q 404 981 396 1015 q 408 916 412 948 q 383 860 403 883 q 330 827 363 837 q 250 830 297 818 q 253 768 241 796 q 283 720 264 741 q 320 686 301 699 q 345 670 339 673 m 722 640 q 609 624 665 612 q 511 675 553 636 q 447 774 469 715 q 433 899 425 834 q 474 996 445 955 q 541 1059 503 1036 q 618 1084 578 1081 q 694 1066 659 1086 q 751 1015 730 1046 q 781 951 773 985 q 785 886 789 918 q 760 830 780 853 q 707 798 741 807 q 627 800 674 788 q 630 739 618 766 q 660 690 642 711 q 697 656 678 669 q 722 640 716 643 z "},")":{"ha":648,"x_min":16,"x_max":632,"o":"m 49 133 q 157 208 99 156 q 262 324 214 259 q 339 460 309 389 q 362 594 369 532 q 330 714 355 659 q 272 812 305 769 q 200 888 239 856 q 128 943 161 921 q 70 976 95 964 q 38 987 45 987 q 20 1040 24 1005 q 22 1111 16 1076 q 45 1173 28 1146 q 91 1203 62 1200 q 286 1132 191 1192 q 454 982 380 1072 q 574 785 528 892 q 627 575 621 678 q 589 370 632 473 q 474 177 545 267 q 313 16 403 87 q 138 -92 224 -54 l 134 -92 q 102 -82 123 -88 q 64 -54 81 -76 q 39 11 46 -33 q 49 133 31 54 z "},"”":{"ha":873,"x_min":79,"x_max":821,"o":"m 524 670 q 548 686 529 673 q 585 720 567 699 q 615 768 604 741 q 618 830 627 796 q 538 827 571 818 q 485 860 505 837 q 460 916 465 883 q 464 981 456 948 q 494 1045 472 1015 q 551 1096 515 1076 q 627 1114 586 1116 q 705 1088 667 1111 q 771 1025 742 1066 q 812 929 800 985 q 798 804 821 864 q 734 705 776 745 q 636 654 692 666 q 524 670 581 642 m 146 640 q 171 656 152 643 q 208 690 190 669 q 238 739 227 711 q 241 800 250 766 q 161 798 194 788 q 108 830 127 807 q 83 886 88 853 q 87 951 79 918 q 117 1015 95 985 q 174 1066 138 1046 q 250 1084 209 1086 q 328 1059 290 1081 q 394 996 365 1036 q 435 899 423 955 q 421 774 444 834 q 357 675 399 715 q 259 624 315 636 q 146 640 203 612 z "},"*":{"ha":812,"x_min":73,"x_max":792,"o":"m 156 834 q 191 897 168 869 q 243 941 214 925 q 302 960 271 958 q 365 949 334 963 l 423 844 l 483 951 q 524 955 492 956 q 591 941 556 954 q 656 903 627 929 q 692 836 685 878 l 632 727 l 742 727 q 766 692 751 720 q 786 628 780 665 q 784 553 792 591 q 742 488 776 514 l 618 488 l 684 372 q 665 335 684 361 q 618 286 647 309 q 551 250 589 262 q 475 256 514 239 l 423 350 l 378 269 q 306 265 342 260 q 241 286 270 270 q 193 326 213 301 q 170 384 174 351 l 228 490 l 125 490 q 87 551 100 518 q 74 617 75 585 q 85 679 73 650 q 125 728 98 708 l 214 728 l 156 834 l 156 834 z "},"#":{"ha":1139,"x_min":73,"x_max":1103,"o":"m 635 305 l 529 308 l 529 103 q 486 79 513 91 q 430 65 460 68 q 370 71 400 62 q 317 103 340 79 l 317 315 l 111 321 q 89 366 99 338 q 76 426 79 395 q 82 488 73 457 q 117 540 91 518 l 317 533 l 317 663 l 125 670 q 102 718 113 686 q 90 783 92 749 q 96 852 87 818 q 130 907 104 886 l 317 901 l 317 1069 q 353 1106 323 1095 q 418 1118 382 1118 q 486 1105 453 1118 q 529 1069 518 1092 l 529 894 l 635 891 l 635 1069 q 671 1106 640 1095 q 740 1118 703 1118 q 810 1105 777 1118 q 854 1069 844 1092 l 854 884 l 1055 878 q 1092 837 1081 871 q 1102 763 1103 803 q 1088 686 1101 723 q 1051 640 1074 650 l 854 647 l 854 517 l 1042 510 q 1078 473 1067 503 q 1088 405 1089 442 q 1074 334 1088 368 q 1038 292 1061 301 l 854 298 l 854 103 q 810 79 838 91 q 751 65 783 68 q 689 71 720 62 q 635 103 658 79 l 635 305 m 529 526 l 635 524 l 635 654 l 529 656 l 529 526 z "},":":{"ha":377,"x_min":71,"x_max":328,"o":"m 198 212 q 128 230 156 212 q 86 275 100 248 q 71 334 72 302 q 84 394 71 366 q 126 442 98 422 q 198 467 155 463 q 270 447 241 465 q 312 401 298 429 q 324 340 326 373 q 309 279 323 308 q 267 232 294 251 q 198 212 239 213 m 201 557 q 131 576 159 557 q 89 621 103 594 q 74 680 75 648 q 87 740 73 712 q 129 788 100 768 q 201 812 157 808 q 273 793 244 811 q 315 747 301 774 q 327 686 328 719 q 311 625 326 654 q 269 578 297 597 q 201 557 241 559 z "},"+":{"ha":811,"x_min":75,"x_max":741,"o":"m 517 266 q 486 222 507 236 q 439 205 465 209 q 386 208 414 202 q 336 223 358 213 q 302 245 315 233 q 294 266 290 256 l 294 494 l 136 494 q 75 578 75 524 q 136 705 75 632 l 294 705 l 294 903 q 347 948 312 930 q 417 968 381 966 q 481 955 453 970 q 517 903 510 940 l 517 705 l 682 705 q 726 658 712 688 q 739 597 741 628 q 722 537 738 566 q 678 494 707 509 l 517 494 l 517 266 l 517 266 z "},";":{"ha":410,"x_min":80,"x_max":380,"o":"m 138 -117 q 157 -104 142 -114 q 187 -76 172 -94 q 212 -36 202 -58 q 214 14 221 -14 q 124 22 156 -1 q 86 84 92 46 q 98 164 80 122 q 160 231 117 206 q 222 245 189 247 q 285 224 255 243 q 338 173 315 206 q 373 95 362 140 q 361 -7 380 42 q 309 -87 343 -56 q 229 -130 274 -119 q 138 -117 184 -140 m 220 320 q 150 338 178 320 q 108 384 122 357 q 93 443 94 411 q 106 503 92 475 q 148 551 119 530 q 220 575 176 571 q 292 555 263 574 q 334 509 320 537 q 346 449 347 481 q 330 388 345 416 q 288 340 316 359 q 220 320 260 321 z "},"$":{"ha":833,"x_min":23,"x_max":823,"o":"m 297 12 q 220 27 259 18 q 142 53 182 37 q 77 145 96 102 q 56 223 57 189 q 73 282 56 258 q 117 317 90 307 q 165 271 138 288 q 219 244 193 254 q 269 232 245 235 q 305 228 292 229 l 316 492 q 216 532 267 509 q 121 587 164 555 q 51 664 79 620 q 23 766 23 708 q 46 867 23 819 q 111 955 69 916 q 210 1023 152 994 q 338 1066 269 1053 l 343 1203 q 372 1248 347 1233 q 429 1263 397 1263 q 491 1251 460 1264 q 538 1210 522 1237 l 533 1072 q 574 1065 547 1070 q 633 1056 602 1061 q 691 1046 663 1051 q 732 1036 719 1040 q 777 978 766 1015 q 780 907 787 941 q 755 850 773 872 q 715 836 736 827 q 677 845 704 840 q 622 855 651 850 q 566 864 593 860 q 526 868 538 868 l 517 625 q 563 607 541 616 q 604 591 585 598 q 744 495 694 549 q 808 382 793 441 q 806 266 823 324 q 747 157 789 208 q 639 70 704 107 q 492 16 574 33 l 488 -96 q 449 -126 471 -113 q 403 -144 427 -140 q 351 -140 378 -148 q 293 -103 323 -132 l 297 12 m 500 228 q 548 253 529 237 q 571 291 567 269 q 560 342 575 313 q 507 406 545 370 l 500 228 m 271 754 q 291 731 277 743 q 324 708 305 719 l 330 834 q 277 798 294 818 q 271 754 260 777 z "},",":{"ha":336,"x_min":24,"x_max":324,"o":"m 83 -126 q 102 -113 87 -123 q 132 -85 117 -103 q 156 -45 146 -68 q 159 4 165 -23 q 68 13 100 -11 q 31 75 37 37 q 43 155 24 113 q 104 221 61 197 q 166 235 133 237 q 229 215 199 233 q 283 163 259 197 q 317 85 307 130 q 306 -16 324 33 q 253 -97 288 -65 q 174 -139 218 -129 q 83 -126 129 -149 z "},"<":{"ha":754,"x_min":52,"x_max":684,"o":"m 52 469 l 62 694 l 562 925 q 604 897 579 924 q 648 836 629 871 q 675 765 667 800 q 669 711 684 730 l 366 578 l 650 437 q 654 378 655 418 q 642 300 654 339 q 605 230 629 260 q 540 198 581 199 l 52 469 z "},"%":{"ha":952,"x_min":22,"x_max":928,"o":"m 708 -27 q 615 10 652 -24 q 560 94 578 45 q 545 198 543 142 q 571 300 547 254 q 643 376 595 347 q 762 399 690 404 q 859 360 822 395 q 912 277 897 326 q 922 174 928 229 q 891 73 917 118 q 819 -2 865 27 q 708 -27 773 -31 m 260 0 q 193 -27 228 -22 q 127 -24 159 -33 q 67 4 95 -16 q 22 54 39 24 l 713 1093 q 781 1114 746 1114 q 846 1099 817 1114 q 897 1055 876 1084 q 921 989 918 1027 l 260 0 m 742 247 q 702 228 718 247 q 684 186 686 209 q 693 144 681 163 q 735 125 705 125 q 760 144 747 125 q 776 186 772 163 q 773 228 780 209 q 742 247 766 247 m 38 838 q 62 944 38 899 q 125 1016 87 989 q 209 1053 163 1043 q 300 1051 255 1062 q 381 1009 345 1040 q 437 925 418 978 q 444 796 463 852 q 380 706 425 741 q 276 659 335 671 q 164 662 217 647 q 75 720 111 677 q 38 838 38 762 m 190 844 q 204 798 190 812 q 236 785 218 784 q 268 800 254 785 q 282 844 282 815 q 268 884 282 869 q 236 898 254 898 q 204 884 218 898 q 190 844 190 871 z "},"-":{"ha":572,"x_min":57,"x_max":529,"o":"m 129 239 q 86 258 102 240 q 64 303 71 277 q 60 359 57 330 q 71 415 62 389 q 93 458 79 441 q 125 475 107 475 l 476 480 q 517 436 505 472 q 527 359 529 400 q 512 284 525 319 q 479 243 499 250 l 129 239 z "},"­":{"ha":572,"x_min":57,"x_max":529,"o":"m 129 239 q 86 258 102 240 q 64 303 71 277 q 60 359 57 330 q 71 415 62 389 q 93 458 79 441 q 125 475 107 475 l 476 480 q 517 436 505 472 q 527 359 529 400 q 512 284 525 319 q 479 243 499 250 l 129 239 z "},"=":{"ha":694,"x_min":62,"x_max":659,"o":"m 114 532 q 77 593 90 560 q 63 659 64 627 q 75 721 62 692 q 114 770 87 750 l 609 770 q 633 736 618 764 q 653 671 647 708 q 651 596 659 635 q 609 532 643 557 l 114 532 m 114 217 q 77 279 90 245 q 63 345 64 312 q 75 406 62 377 q 114 456 87 435 l 609 456 q 633 421 618 449 q 653 357 647 393 q 651 281 659 320 q 609 217 643 243 l 114 217 z "},".":{"ha":346,"x_min":52,"x_max":307,"o":"m 179 -1 q 109 17 137 -1 q 67 62 81 35 q 52 121 53 90 q 65 181 52 153 q 107 229 79 209 q 179 254 136 250 q 251 235 222 254 q 293 188 279 216 q 305 127 307 160 q 290 66 304 95 q 248 19 275 38 q 179 -1 220 0 z "},"&":{"ha":933,"x_min":7,"x_max":905,"o":"m 15 237 q 45 353 19 293 q 110 473 71 414 q 198 587 149 532 q 296 686 247 642 q 241 838 247 761 q 264 979 235 916 q 354 1082 293 1042 q 499 1123 415 1123 q 623 1078 578 1123 q 675 963 667 1032 q 650 812 682 894 q 543 658 618 730 l 640 480 l 783 646 q 824 647 800 658 q 867 612 848 636 q 896 554 887 587 q 895 488 905 521 l 746 293 l 892 56 q 865 -3 890 18 q 809 -31 840 -23 q 751 -37 779 -39 q 715 -24 723 -34 l 606 159 q 487 52 553 94 q 352 -7 420 11 q 219 -18 283 -24 q 106 19 155 -11 q 33 104 58 49 q 15 237 7 159 m 388 515 q 323 439 353 483 q 275 353 293 396 q 254 276 258 311 q 267 229 251 241 q 317 216 289 213 q 375 236 345 220 q 435 278 406 252 q 488 334 464 304 l 388 515 m 481 955 q 445 932 457 956 q 429 878 433 909 q 432 822 426 848 q 453 795 438 796 q 483 818 471 793 q 500 872 495 842 q 502 928 506 902 q 481 955 498 954 z "},">":{"ha":765,"x_min":76,"x_max":708,"o":"m 220 198 q 173 214 193 199 q 140 250 153 228 q 119 300 126 273 q 108 353 111 327 q 105 402 104 380 q 110 437 106 425 l 393 578 l 91 711 q 84 765 76 730 q 111 836 92 800 q 155 897 130 871 q 198 925 179 924 l 697 694 l 708 469 l 220 198 z "},"‘":{"ha":444,"x_min":47,"x_max":412,"o":"m 345 670 q 232 654 288 642 q 134 705 176 666 q 70 804 92 745 q 56 929 47 864 q 97 1025 68 985 q 163 1088 126 1066 q 241 1114 201 1111 q 317 1096 282 1116 q 374 1046 353 1077 q 404 981 396 1015 q 408 916 412 948 q 383 860 403 883 q 330 827 363 837 q 250 830 297 818 q 253 768 241 796 q 283 720 264 741 q 320 686 301 699 q 345 670 339 673 z "},"{":{"ha":647,"x_min":43,"x_max":682,"o":"m 118 35 q 137 97 121 64 q 169 165 153 130 q 194 235 184 201 q 195 298 203 269 q 155 349 187 327 q 54 381 122 370 l 43 559 q 184 616 140 586 q 238 680 228 646 q 235 751 248 713 q 202 833 221 788 q 168 928 183 878 q 163 1040 153 979 q 228 1183 176 1126 q 349 1274 279 1241 q 496 1319 418 1308 q 644 1325 575 1331 q 673 1282 665 1317 q 680 1206 682 1248 q 663 1124 677 1164 q 627 1065 650 1084 q 572 1069 602 1067 q 510 1062 541 1070 q 451 1031 479 1054 q 406 967 423 1009 q 409 880 400 922 q 430 795 418 837 q 452 714 442 754 q 459 633 461 674 q 437 552 457 593 q 370 469 418 511 q 418 372 411 426 q 418 265 425 319 q 399 163 411 212 q 392 77 388 114 q 404 39 393 54 q 439 18 415 24 q 504 14 464 11 q 605 33 544 18 q 629 -2 613 28 q 653 -75 644 -33 q 659 -162 662 -117 q 625 -240 655 -208 q 511 -258 571 -254 q 393 -255 450 -263 q 284 -226 335 -247 q 195 -170 233 -205 q 135 -83 156 -134 q 118 35 114 -33 z "},"?":{"ha":749,"x_min":33,"x_max":711,"o":"m 152 632 q 236 631 189 632 q 328 641 283 631 q 406 680 372 651 q 453 770 441 709 q 397 849 434 829 q 321 861 359 869 q 252 818 283 852 q 214 735 221 784 q 161 705 194 707 q 98 720 127 704 q 50 768 68 736 q 45 837 33 799 q 124 1013 66 947 q 256 1107 182 1080 q 410 1123 330 1134 q 557 1067 491 1112 q 667 945 624 1023 q 711 762 711 868 q 684 636 711 690 q 614 543 658 582 q 517 481 571 505 q 408 445 463 457 l 410 345 q 352 315 385 324 q 283 307 319 307 q 213 319 247 308 q 155 350 179 330 l 152 632 m 269 -11 q 199 7 227 -11 q 157 53 171 26 q 142 112 142 80 q 155 172 141 144 q 197 220 168 199 q 269 244 225 240 q 340 225 312 244 q 382 178 369 206 q 395 118 396 151 q 379 57 393 85 q 337 9 365 28 q 269 -11 309 -9 z "},"'":{"ha":491,"x_min":79,"x_max":444,"o":"m 146 670 q 171 686 152 673 q 208 720 190 699 q 238 768 227 741 q 241 830 250 796 q 161 827 194 818 q 108 860 127 837 q 83 916 88 883 q 87 981 79 948 q 117 1045 95 1015 q 174 1096 138 1076 q 250 1114 209 1116 q 328 1088 290 1111 q 394 1025 365 1066 q 435 929 423 985 q 421 804 444 864 q 357 705 399 745 q 259 654 315 666 q 146 670 203 642 z "},"~":{"ha":787,"x_min":58,"x_max":745,"o":"m 189 463 q 135 444 161 431 q 90 486 109 456 q 65 555 72 517 q 71 616 58 593 q 99 673 75 637 q 155 739 123 708 q 221 790 187 770 q 278 800 255 810 q 338 781 315 800 q 382 740 362 762 q 420 699 401 718 q 464 681 438 681 q 510 694 492 681 q 538 726 528 707 q 554 767 549 745 q 563 808 559 789 q 611 829 579 833 q 673 805 643 825 q 724 757 704 785 q 739 704 745 728 q 698 606 727 648 q 636 535 669 564 q 572 488 604 506 q 525 463 541 471 q 455 472 486 456 q 398 509 425 488 q 349 547 372 529 q 302 562 326 564 q 243 544 271 567 q 189 463 216 521 z "},"l":{"ha":358,"x_min":34,"x_max":332,"o":"m 332 45 q 290 14 326 28 q 210 -3 255 0 q 117 4 164 -7 q 41 47 71 15 l 34 1038 q 58 1080 37 1063 q 111 1103 80 1096 q 176 1107 141 1109 q 241 1093 210 1105 q 292 1060 271 1081 q 315 1008 312 1039 q 321 771 320 892 q 322 526 321 650 q 324 281 323 403 q 332 45 326 160 z "},"^":{"ha":612,"x_min":66,"x_max":552,"o":"m 547 625 q 549 602 552 618 q 536 565 547 585 q 510 526 526 545 q 473 498 494 507 q 429 494 453 490 q 378 526 404 499 l 323 625 l 258 514 q 210 496 239 496 q 152 510 180 496 q 100 551 123 524 q 66 614 76 578 l 216 831 q 264 867 233 857 q 326 876 294 878 q 385 861 358 873 q 425 831 412 849 l 547 625 z "},"}":{"ha":648,"x_min":-1,"x_max":637,"o":"m 563 42 q 545 -77 566 -26 q 486 -163 525 -127 q 397 -219 448 -198 q 288 -248 346 -240 q 170 -252 231 -256 q 56 -233 110 -248 q 22 -155 26 -201 q 28 -68 19 -110 q 52 5 37 -26 q 76 39 68 35 q 177 21 137 24 q 241 24 217 18 q 277 46 266 31 q 289 84 288 61 q 281 170 293 121 q 263 272 270 218 q 263 379 256 326 q 311 476 270 433 q 243 559 263 518 q 222 640 224 600 q 229 721 220 681 q 251 802 239 761 q 271 886 263 844 q 275 974 279 929 q 229 1038 256 1016 q 171 1069 202 1061 q 109 1076 140 1077 q 54 1072 79 1074 q 18 1131 31 1090 q 1 1213 4 1171 q 7 1289 -1 1255 q 37 1332 16 1324 q 184 1326 106 1337 q 332 1281 263 1314 q 453 1190 401 1248 q 518 1047 505 1133 q 513 935 528 986 q 479 840 498 884 q 446 758 460 795 q 443 686 433 720 q 496 623 453 652 q 637 566 540 593 l 627 388 q 526 355 559 377 q 486 304 494 334 q 487 241 477 275 q 512 172 496 208 q 543 104 528 137 q 563 42 559 71 z "},"¨":{"ha":643,"x_min":24,"x_max":608,"o":"m 152 869 q 82 888 110 869 q 40 933 54 906 q 25 992 26 960 q 38 1052 24 1024 q 80 1100 52 1080 q 152 1124 109 1120 q 224 1105 195 1123 q 266 1059 252 1086 q 278 998 279 1031 q 262 937 277 966 q 220 890 248 909 q 152 869 193 871 m 480 869 q 410 888 438 869 q 368 933 382 906 q 353 992 354 960 q 366 1052 353 1024 q 408 1100 380 1080 q 480 1124 437 1120 q 552 1105 524 1123 q 594 1059 581 1086 q 606 998 608 1031 q 591 937 605 966 q 549 890 576 909 q 480 869 521 871 z "},"f":{"ha":662,"x_min":-9,"x_max":741,"o":"m 49 416 q 16 446 31 416 q -5 515 0 476 q 0 589 -9 553 q 42 636 9 625 l 178 642 q 235 989 159 875 q 472 1104 311 1104 q 581 1086 532 1104 q 666 1030 631 1067 q 721 936 701 993 q 741 800 741 879 q 711 777 741 789 q 645 758 681 765 q 579 753 609 751 q 548 773 549 755 q 545 807 547 783 q 521 882 544 831 q 484 897 502 902 q 452 861 465 891 q 432 777 438 831 q 433 643 426 722 l 564 642 q 604 603 589 633 q 621 536 618 572 q 612 467 623 500 q 576 420 601 434 l 452 416 l 449 42 q 400 18 435 30 q 323 3 365 7 q 241 6 282 -1 q 175 39 201 14 l 174 416 l 49 416 z "},"I":{"ha":712,"x_min":15,"x_max":704,"o":"m 90 12 q 46 56 60 28 q 29 116 33 84 q 31 180 26 148 q 43 240 35 213 q 60 285 52 267 q 71 305 68 302 l 221 312 l 222 838 l 79 838 q 48 878 66 844 q 22 956 30 911 q 28 1042 15 1000 q 92 1108 41 1085 l 633 1105 q 668 1053 654 1082 q 685 988 682 1023 q 676 916 688 954 q 633 838 665 878 l 475 841 l 480 311 l 661 311 q 680 269 667 304 q 699 187 693 233 q 695 94 704 141 q 651 14 686 46 l 90 12 z "},"`":{"ha":372,"x_min":39,"x_max":347,"o":"m 332 978 q 336 930 347 959 q 299 880 324 902 q 241 853 274 859 q 183 873 209 848 l 39 1100 q 58 1164 39 1138 q 105 1202 77 1190 q 162 1210 133 1214 q 210 1184 191 1206 l 332 978 z "},"R":{"ha":905,"x_min":31,"x_max":901,"o":"m 43 987 q 183 1057 104 1027 q 347 1101 262 1086 q 515 1109 431 1115 q 667 1072 598 1103 q 783 983 735 1042 q 846 830 831 924 q 829 740 846 783 q 786 657 812 697 q 726 580 760 617 q 658 507 692 543 l 901 151 q 844 73 886 102 q 750 28 803 43 q 640 9 697 14 q 538 3 583 4 l 339 397 l 342 34 q 275 -22 326 -7 q 170 -31 225 -37 q 73 -4 115 -26 q 31 49 31 18 l 43 987 m 330 694 q 386 693 351 689 q 455 711 420 697 q 518 751 490 726 q 556 818 547 777 q 538 867 559 849 q 483 893 517 886 q 407 896 449 901 q 327 875 365 891 l 330 694 z "},"q":{"ha":716,"x_min":22,"x_max":926,"o":"m 406 30 q 294 1 354 1 q 178 26 233 0 q 81 108 123 53 q 26 247 39 163 q 30 389 22 315 q 59 530 38 463 q 113 656 80 598 q 193 749 146 713 q 300 795 240 785 q 433 777 359 804 l 433 822 q 477 845 446 833 q 543 860 507 857 q 614 850 579 863 q 673 800 648 838 l 633 -179 l 852 -53 q 892 -68 875 -45 q 918 -130 910 -92 q 922 -210 926 -168 q 897 -277 917 -251 l 495 -525 q 452 -532 469 -533 q 424 -515 434 -532 q 408 -463 414 -499 q 402 -361 403 -426 q 404 -201 401 -297 q 410 30 406 -106 l 406 30 m 251 404 q 263 290 241 328 q 314 251 285 251 q 371 290 343 251 q 401 407 399 328 q 378 501 397 471 q 333 530 358 532 q 284 496 308 528 q 251 404 260 464 z "},"_":{"ha":948,"x_min":50,"x_max":911,"o":"m 102 7 q 64 68 77 35 q 51 134 52 102 q 62 196 50 167 q 102 245 75 225 l 861 243 q 885 208 871 236 q 905 144 899 180 q 903 68 911 107 q 861 4 895 30 l 102 7 l 102 7 z "},"g":{"ha":705,"x_min":24,"x_max":689,"o":"m 414 37 q 246 2 319 -12 q 125 71 174 16 q 52 210 77 126 q 26 385 27 294 q 50 562 26 476 q 123 708 75 648 q 244 789 171 768 q 416 770 317 810 l 418 814 q 453 833 418 823 q 532 844 488 842 q 614 838 576 846 q 659 806 652 830 q 659 715 654 787 q 671 541 663 644 q 684 313 678 438 q 685 62 689 189 q 663 -180 681 -64 q 605 -385 644 -297 q 500 -522 566 -473 q 335 -559 434 -570 q 190 -506 251 -549 q 91 -399 129 -463 q 39 -258 53 -335 q 33 -104 24 -182 q 65 -45 43 -64 q 114 -24 87 -27 q 169 -29 141 -20 q 219 -51 197 -38 q 255 -79 241 -64 q 266 -102 269 -94 q 274 -176 266 -144 q 294 -229 282 -208 q 318 -262 305 -251 q 340 -273 331 -273 q 393 -242 374 -273 q 418 -165 411 -212 q 422 -64 425 -118 q 414 37 420 -11 m 271 480 q 268 374 262 418 q 289 307 274 331 q 323 278 304 282 q 361 292 343 274 q 391 348 378 309 q 403 449 403 387 q 383 533 403 505 q 339 564 363 562 q 294 545 315 567 q 271 480 273 524 z "},"´":{"ha":372,"x_min":31,"x_max":339,"o":"m 168 1184 q 216 1210 187 1206 q 273 1202 245 1214 q 319 1164 300 1190 q 339 1100 339 1138 l 195 873 q 136 853 168 848 q 79 880 104 859 q 43 930 54 902 q 46 978 31 959 l 168 1184 z "},"r":{"ha":659,"x_min":20,"x_max":648,"o":"m 20 762 q 73 818 34 802 q 151 835 111 834 q 223 825 191 836 q 256 800 255 814 l 243 718 q 332 795 286 774 q 423 812 378 817 q 508 781 468 807 q 578 713 548 754 q 628 621 609 671 q 648 518 647 570 q 613 455 639 477 q 557 425 587 433 q 498 425 526 418 q 453 448 469 431 q 418 520 444 500 q 363 533 392 540 q 308 496 334 526 q 274 416 282 465 l 274 49 q 228 14 264 28 q 149 -3 191 0 q 68 3 106 -7 q 23 43 31 14 l 20 762 z "},"S":{"ha":749,"x_min":14,"x_max":736,"o":"m 64 365 q 128 330 90 343 q 205 314 167 317 q 278 316 244 311 q 330 334 312 321 q 345 364 349 346 q 307 407 342 382 q 215 444 269 425 q 115 494 161 463 q 41 573 69 525 q 26 697 14 621 q 92 840 46 774 q 197 957 137 906 q 328 1043 258 1008 q 467 1095 397 1078 q 601 1108 537 1111 q 712 1081 665 1105 q 727 1015 720 1053 q 730 939 734 978 q 707 862 726 899 q 646 799 688 825 q 553 838 605 829 q 456 833 502 846 q 381 784 411 819 q 354 692 351 749 q 412 627 373 652 q 496 582 450 602 q 589 539 543 562 q 669 484 635 517 q 720 400 704 450 q 723 273 736 350 q 620 112 690 168 q 461 31 549 56 q 277 4 373 5 q 96 8 182 3 q 39 98 58 43 q 17 208 20 153 q 26 307 14 263 q 64 365 38 351 z "},"J":{"ha":677,"x_min":19,"x_max":821,"o":"m 296 0 q 155 32 209 0 q 70 115 100 64 q 29 229 39 167 q 20 354 19 292 q 31 470 22 416 q 47 556 39 524 q 111 587 79 579 q 170 592 142 594 q 217 581 197 590 q 244 564 237 572 q 241 506 244 540 q 237 437 239 472 q 237 368 236 401 q 245 311 239 335 q 267 276 252 288 q 307 273 281 264 q 344 305 328 273 q 368 389 359 338 q 378 505 377 441 q 374 633 380 570 q 354 755 368 697 q 320 852 340 812 l 195 848 q 158 875 182 849 q 121 939 134 901 q 116 1020 109 977 q 171 1099 123 1063 l 754 1107 q 804 1069 788 1100 q 820 999 821 1039 q 801 919 819 959 q 746 854 783 879 l 609 848 q 618 690 612 780 q 623 507 624 601 q 608 321 621 412 q 560 159 595 231 q 461 44 525 88 q 296 0 397 0 z "},"A":{"ha":1013,"x_min":33,"x_max":987,"o":"m 392 54 q 340 16 374 28 q 265 0 305 3 q 184 2 225 -3 q 109 16 142 7 q 54 36 75 24 q 34 57 33 47 l 271 1009 q 321 1066 286 1044 q 399 1098 355 1088 q 490 1108 442 1108 q 581 1100 538 1108 q 654 1076 623 1092 q 694 1040 685 1061 l 987 43 q 895 3 939 14 q 812 -7 852 -8 q 733 5 772 -5 q 656 28 694 16 l 598 437 l 433 442 l 392 54 m 586 665 q 551 807 570 766 q 512 840 532 848 q 474 783 492 831 q 441 659 456 734 l 586 665 z "},"h":{"ha":699,"x_min":19,"x_max":674,"o":"m 19 1047 q 65 1080 28 1063 q 146 1105 102 1097 q 233 1103 191 1112 q 296 1058 275 1095 l 292 704 q 457 839 384 825 q 580 769 530 853 q 652 505 629 685 q 665 56 674 324 q 614 20 650 34 q 541 3 579 7 q 471 8 503 0 q 431 39 439 16 q 429 201 427 122 q 430 346 430 281 q 426 457 430 411 q 408 519 422 503 q 368 517 395 536 q 294 435 340 499 l 288 37 q 221 4 259 14 q 146 -5 183 -5 q 78 5 110 -4 q 28 28 46 14 l 19 1047 z "},"s":{"ha":590,"x_min":7,"x_max":574,"o":"m 43 53 q 12 121 18 87 q 14 187 7 156 q 35 243 20 218 q 65 283 50 269 q 97 261 69 273 q 162 241 125 250 q 239 231 199 232 q 304 239 278 229 q 337 272 331 248 q 315 340 343 296 q 283 360 309 350 q 223 384 258 370 q 151 416 189 397 q 81 460 113 434 q 32 522 50 487 q 18 604 14 556 q 66 715 24 665 q 172 795 107 765 q 319 831 236 826 q 490 806 401 836 q 518 755 513 789 q 517 688 524 722 q 498 631 511 655 q 468 612 484 608 q 410 621 434 621 q 370 614 385 620 q 347 600 354 609 q 340 583 340 591 q 351 553 342 564 q 374 534 359 543 q 409 517 389 526 q 452 494 429 507 q 540 409 511 457 q 571 309 568 361 q 553 206 574 258 q 494 111 532 155 q 406 37 457 68 q 295 -5 354 7 q 172 -3 236 -16 q 43 53 107 9 z "},"T":{"ha":842,"x_min":19,"x_max":837,"o":"m 42 814 q 25 880 31 842 q 19 956 19 917 q 27 1029 19 994 q 52 1089 35 1065 l 789 1105 q 821 1070 807 1097 q 836 1003 834 1043 q 823 916 837 963 q 772 822 808 868 l 553 822 q 555 719 553 780 q 557 587 556 658 q 561 442 559 517 q 564 297 563 368 q 567 165 566 227 q 568 62 568 104 q 538 20 563 35 q 479 0 513 5 q 407 -2 445 -5 q 336 9 369 1 q 281 30 304 18 q 254 56 258 42 l 278 822 l 42 814 z "},"K":{"ha":812,"x_min":33,"x_max":802,"o":"m 41 1044 q 96 1094 61 1077 q 170 1114 132 1111 q 248 1109 209 1118 q 316 1081 288 1100 l 305 757 l 590 1072 q 686 1101 647 1101 q 748 1085 724 1101 q 783 1041 772 1069 q 798 985 795 1013 q 800 935 802 958 q 793 907 798 913 l 456 551 l 783 164 q 770 94 787 122 q 727 46 754 65 q 667 18 700 27 q 604 7 633 9 q 553 9 575 5 q 529 22 532 14 l 294 334 l 317 26 q 282 11 305 19 q 229 -3 259 3 q 168 -9 199 -8 q 108 -3 136 -9 q 60 19 80 4 q 33 62 39 34 l 41 1044 z "},"[":{"ha":515,"x_min":33,"x_max":496,"o":"m 33 -229 l 33 1303 l 426 1301 q 460 1248 446 1278 q 477 1183 475 1218 q 469 1111 480 1149 q 426 1034 457 1073 l 267 1036 l 273 77 l 453 77 q 473 35 460 71 q 491 -46 486 0 q 488 -140 496 -92 q 444 -220 479 -187 l 33 -229 z "},"i":{"ha":358,"x_min":34,"x_max":320,"o":"m 34 796 q 100 829 58 817 q 184 840 141 841 q 262 825 227 840 q 315 777 298 810 l 320 77 q 269 28 308 43 q 186 12 231 12 q 100 26 141 12 q 39 65 58 41 l 34 796 m 197 897 q 109 917 142 898 q 61 964 76 936 q 50 1024 46 991 q 73 1084 53 1057 q 130 1132 94 1112 q 216 1154 165 1152 q 271 1135 250 1153 q 303 1088 293 1116 q 311 1028 313 1061 q 296 967 309 996 q 258 919 283 939 q 197 897 233 899 z "},"t":{"ha":608,"x_min":-1,"x_max":597,"o":"m 153 604 l 41 598 q 15 630 26 605 q 1 690 4 655 q 6 768 -1 726 q 35 850 14 810 l 146 853 l 149 1063 q 190 1086 159 1074 q 260 1103 221 1099 q 338 1102 298 1108 q 407 1070 378 1096 l 411 853 l 538 857 q 568 816 552 848 q 590 744 583 784 q 592 666 597 704 q 560 606 587 628 l 411 608 l 412 9 q 335 -9 380 -3 q 250 -14 290 -15 q 181 -1 209 -12 q 153 31 153 9 l 153 604 z "},"B":{"ha":970,"x_min":34,"x_max":962,"o":"m 34 1005 q 148 1066 80 1043 q 290 1097 216 1089 q 441 1093 365 1104 q 579 1053 517 1082 q 686 975 642 1024 q 741 853 730 925 q 738 800 741 829 q 728 741 735 770 q 707 686 720 712 q 675 643 694 661 q 774 625 720 643 q 871 568 827 608 q 938 462 914 528 q 945 301 962 396 q 876 165 933 224 q 734 65 818 106 q 552 2 651 24 q 357 -25 453 -20 q 178 -17 262 -30 q 45 26 95 -4 l 34 1005 m 275 244 q 399 218 336 218 q 512 237 461 218 q 597 290 563 256 q 638 362 632 323 q 615 444 644 401 q 511 524 586 487 q 390 490 452 496 q 271 484 328 483 l 275 244 m 275 704 q 347 708 309 707 q 415 718 384 709 q 467 746 446 727 q 491 804 488 765 q 460 855 487 836 q 397 881 433 875 q 326 880 361 887 q 271 852 290 872 l 275 704 z "},"j":{"ha":464,"x_min":-278,"x_max":415,"o":"m -57 -71 q -58 -146 -64 -103 q -37 -225 -52 -190 q 1 -278 -22 -260 q 53 -275 24 -296 q 79 -224 68 -264 q 98 -125 90 -184 q 111 7 106 -66 q 117 158 115 80 q 119 313 119 236 q 115 455 118 389 q 106 572 111 521 q 92 647 100 623 q 103 684 85 667 q 151 713 121 701 q 218 728 180 724 q 292 728 256 732 q 357 707 328 723 q 396 661 385 690 q 407 502 401 591 q 414 314 412 412 q 409 114 415 216 q 387 -84 403 12 q 341 -265 370 -180 q 267 -414 312 -350 q 157 -514 221 -477 q 8 -551 94 -551 q -116 -521 -65 -548 q -199 -452 -167 -494 q -248 -361 -232 -411 q -271 -261 -264 -311 q -277 -168 -278 -212 q -273 -96 -277 -125 q -239 -33 -269 -53 q -175 -11 -210 -12 q -106 -26 -140 -9 q -57 -71 -72 -42 m 217 1104 q 281 1074 255 1097 q 319 1019 307 1050 q 330 953 331 987 q 314 891 328 918 q 271 848 300 864 q 201 840 243 833 q 134 857 163 837 q 90 909 106 878 q 73 976 75 940 q 85 1042 71 1012 q 132 1091 100 1073 q 217 1104 164 1109 z "},"U":{"ha":825,"x_min":31,"x_max":810,"o":"m 57 359 q 36 583 41 483 q 33 768 31 684 q 38 924 34 852 q 43 1061 42 996 q 69 1080 47 1069 q 121 1101 91 1092 q 186 1115 151 1109 q 256 1119 222 1120 q 317 1106 289 1118 q 359 1070 345 1095 q 362 904 363 990 q 358 735 361 818 q 355 577 355 652 q 363 443 354 502 q 391 346 372 384 q 449 300 411 308 q 500 345 481 302 q 528 477 519 387 q 536 714 536 568 q 529 1072 536 860 q 547 1088 530 1078 q 589 1105 564 1097 q 643 1116 613 1112 q 703 1116 673 1120 q 758 1099 732 1112 q 798 1058 783 1085 q 806 667 810 833 q 782 385 802 502 q 726 194 762 269 q 637 77 690 119 q 514 18 585 34 q 355 0 444 1 q 226 31 277 0 q 142 113 175 62 q 90 229 110 164 q 57 359 71 293 z "},"L":{"ha":728,"x_min":37,"x_max":711,"o":"m 43 3 q 41 103 42 34 q 39 264 39 172 q 37 465 38 357 q 37 682 37 574 q 37 890 37 789 q 37 1070 37 991 q 100 1108 54 1095 q 197 1122 145 1122 q 294 1110 248 1123 q 357 1070 339 1097 l 339 321 l 674 328 q 701 263 692 308 q 710 169 711 218 q 696 77 709 119 q 654 19 682 34 l 43 3 z "},"u":{"ha":694,"x_min":39,"x_max":674,"o":"m 452 57 q 303 14 366 16 q 194 39 240 12 q 119 115 148 65 q 72 231 90 165 q 47 370 54 296 q 40 519 41 445 q 43 664 39 594 q 52 789 47 734 q 74 815 56 802 q 118 840 92 829 q 173 856 144 850 q 229 855 202 861 q 275 829 255 849 q 301 770 294 808 q 292 557 293 650 q 302 408 290 464 q 345 336 315 351 q 430 357 376 320 l 418 777 q 447 813 416 793 q 519 841 477 833 q 602 839 560 849 q 669 787 644 829 l 674 50 q 636 19 659 34 q 584 -4 613 4 q 521 -11 555 -12 q 452 7 487 -9 l 452 57 z "},"]":{"ha":564,"x_min":33,"x_max":496,"o":"m 85 -216 q 41 -136 50 -183 q 38 -42 33 -88 q 56 39 43 4 q 76 81 69 75 l 256 81 l 262 1040 l 103 1038 q 60 1115 72 1077 q 52 1187 49 1153 q 68 1252 54 1222 q 103 1305 83 1282 l 496 1308 l 496 -225 l 85 -216 z "},"k":{"ha":804,"x_min":26,"x_max":791,"o":"m 34 1050 q 94 1091 54 1076 q 178 1111 134 1107 q 262 1107 222 1115 q 321 1080 301 1100 l 336 673 l 529 846 q 614 848 579 860 q 671 811 648 837 q 706 752 693 785 q 726 689 719 719 q 720 665 726 677 q 695 633 713 654 q 643 578 677 612 q 555 487 609 544 l 555 479 q 604 406 575 446 q 666 321 633 365 q 731 234 699 277 q 791 157 764 191 q 758 69 784 100 q 699 23 732 38 q 629 6 665 8 q 568 7 594 4 l 332 354 l 319 18 q 278 9 313 20 q 197 -7 243 -1 q 104 -3 152 -14 q 26 52 56 7 l 34 1050 z "},"C":{"ha":926,"x_min":37,"x_max":909,"o":"m 909 372 q 783 154 854 237 q 631 31 711 71 q 470 -6 552 -8 q 314 33 388 -4 q 180 138 240 71 q 85 300 121 206 q 43 508 49 393 q 71 753 37 623 q 155 916 94 842 q 295 1039 216 990 q 465 1107 374 1088 q 638 1107 555 1126 q 788 1028 722 1089 q 887 856 854 967 q 869 789 891 821 q 812 739 846 758 q 741 717 779 720 q 677 734 703 713 q 590 818 632 793 q 511 842 548 842 q 441 821 473 842 q 382 769 408 800 q 337 701 355 738 q 311 629 319 663 q 304 524 297 579 q 332 422 311 469 q 387 342 353 376 q 464 303 422 309 q 553 323 506 297 q 648 423 600 350 q 677 463 655 449 q 727 481 699 477 q 787 480 755 486 q 845 460 818 475 q 890 424 872 446 q 909 372 907 401 z "},"V":{"ha":983,"x_min":24,"x_max":954,"o":"m 347 18 q 242 355 288 209 q 163 608 197 500 q 106 791 129 716 q 67 913 83 865 q 43 987 52 960 q 30 1025 34 1013 q 25 1040 26 1038 q 24 1043 24 1043 q 87 1081 43 1066 q 181 1101 132 1096 q 277 1103 231 1107 q 350 1082 324 1099 l 519 468 l 667 1082 q 701 1098 677 1090 q 755 1108 724 1105 q 819 1109 785 1111 q 880 1096 852 1107 q 929 1065 909 1085 q 954 1012 949 1044 l 723 23 q 682 12 711 18 q 617 3 654 7 q 540 -3 581 -1 q 461 -4 499 -5 q 393 2 423 -3 q 347 18 362 7 z "},"M":{"ha":1009,"x_min":23,"x_max":998,"o":"m 23 1057 q 92 1106 52 1092 q 174 1122 132 1120 q 252 1114 216 1123 q 311 1092 289 1104 l 506 632 l 652 1077 q 690 1106 665 1096 q 748 1120 716 1116 q 814 1121 780 1123 q 876 1114 848 1119 q 922 1099 903 1108 q 943 1082 941 1090 l 998 91 q 920 14 966 34 q 829 -5 873 -5 q 749 12 784 -4 q 705 42 713 27 q 703 75 704 42 q 701 155 701 107 q 699 259 700 203 q 696 363 697 315 q 695 443 696 411 q 693 475 694 475 q 684 443 692 475 q 665 363 675 411 q 641 259 654 315 q 617 155 628 203 q 598 75 606 107 q 589 42 590 42 q 540 14 566 24 q 483 28 514 4 l 342 445 l 349 23 q 292 -18 330 0 q 209 -36 254 -35 q 117 -18 164 -37 q 34 52 71 1 l 23 1057 z "},"v":{"ha":773,"x_min":24,"x_max":757,"o":"m 26 697 q 35 733 24 712 q 65 775 46 754 q 109 812 84 796 q 163 831 134 827 q 220 823 191 836 q 277 773 250 810 l 403 416 l 500 803 q 561 831 522 823 q 640 833 600 840 q 713 803 680 826 q 757 738 746 780 l 534 60 q 479 17 514 28 q 408 8 445 5 q 340 25 372 11 q 294 60 308 39 l 26 697 z "},"|":{"ha":427,"x_min":56,"x_max":358,"o":"m 358 -61 q 316 -92 351 -77 q 235 -109 281 -106 q 143 -102 190 -113 q 66 -58 96 -91 l 56 1126 q 80 1168 58 1152 q 132 1191 102 1184 q 197 1196 163 1198 q 262 1181 232 1194 q 313 1148 293 1169 q 336 1096 334 1127 q 342 924 340 1019 q 344 728 343 830 q 345 517 345 625 q 347 307 346 410 q 351 111 349 205 q 358 -61 354 16 z "},"D":{"ha":825,"x_min":35,"x_max":814,"o":"m 35 1076 q 207 1105 117 1107 q 385 1073 297 1103 q 552 989 473 1043 q 690 863 631 935 q 781 703 749 791 q 808 519 814 616 q 762 326 802 410 q 659 181 722 241 q 519 83 597 121 q 358 26 441 45 q 195 5 275 7 q 47 18 114 4 l 35 1076 m 293 289 q 395 303 349 285 q 475 353 441 321 q 529 429 509 385 q 555 519 549 472 q 505 689 566 621 q 293 783 444 757 l 293 289 z "},"a":{"ha":713,"x_min":11,"x_max":700,"o":"m 420 102 q 305 35 359 52 q 204 27 251 18 q 120 67 157 37 q 58 141 83 98 q 22 237 34 184 q 16 342 11 289 q 64 527 26 441 q 157 672 102 613 q 282 756 213 731 q 423 761 351 781 l 423 807 q 451 829 429 821 q 503 841 473 838 q 567 842 533 844 q 629 831 601 840 q 677 808 658 823 q 700 773 697 793 l 700 65 q 673 24 696 39 q 621 -1 651 8 q 557 -11 591 -9 q 494 -8 522 -12 q 445 5 465 -4 q 423 26 425 14 l 420 102 m 427 541 q 382 541 408 549 q 333 511 357 533 q 293 452 309 488 q 277 368 277 416 q 286 309 277 336 q 313 267 296 282 q 355 252 330 252 q 414 273 381 251 l 427 541 z "},"N":{"ha":928,"x_min":22,"x_max":898,"o":"m 22 1051 q 81 1082 42 1069 q 165 1099 121 1095 q 253 1100 209 1104 q 328 1080 297 1096 l 562 506 l 544 1085 q 625 1114 572 1105 q 733 1120 678 1122 q 835 1107 788 1118 q 898 1082 882 1097 l 887 53 q 806 -1 857 12 q 705 -12 755 -14 q 613 4 654 -9 q 564 30 572 18 l 373 437 l 363 0 q 290 -17 339 -12 q 189 -20 240 -22 q 92 -9 137 -18 q 33 15 47 0 l 22 1051 z "},"W":{"ha":1241,"x_min":14,"x_max":1227,"o":"m 464 34 q 342 4 411 4 q 201 22 273 4 l 14 1029 q 65 1075 27 1058 q 149 1100 103 1092 q 239 1109 194 1108 q 313 1107 285 1111 l 412 545 l 496 749 q 557 791 521 777 q 629 807 593 806 q 694 800 665 808 q 735 773 723 791 l 833 522 l 906 1065 q 937 1093 911 1084 q 997 1105 962 1103 q 1071 1100 1032 1107 q 1143 1079 1109 1093 q 1201 1042 1177 1065 q 1227 991 1225 1020 l 979 52 q 954 27 975 37 q 904 12 933 18 q 840 5 875 7 q 775 6 806 4 q 722 13 745 8 q 692 24 699 18 l 597 336 l 464 34 z "},"m":{"ha":952,"x_min":31,"x_max":941,"o":"m 31 773 q 91 812 57 799 q 159 828 125 825 q 224 825 193 831 q 275 804 255 818 l 275 751 q 354 801 315 780 q 429 824 393 822 q 497 804 465 826 q 555 722 529 781 q 730 810 654 798 q 856 750 807 823 q 923 505 905 677 q 922 39 941 332 q 852 -5 891 3 q 776 -5 812 -12 q 713 18 739 1 q 682 47 686 35 q 669 210 671 141 q 663 326 666 279 q 655 399 661 373 q 633 433 650 426 q 609 407 618 429 q 593 351 600 385 q 584 276 587 317 q 578 192 581 235 q 572 110 575 149 q 564 42 570 71 q 526 19 552 26 q 473 12 500 12 q 420 18 445 12 q 385 35 395 24 q 382 213 382 134 q 380 347 382 292 q 369 431 377 401 q 340 463 361 461 q 317 426 324 454 q 307 358 309 397 q 304 272 304 319 q 304 181 304 225 q 303 99 304 137 q 297 39 302 61 q 266 22 289 30 q 214 10 243 15 q 152 3 184 5 q 93 4 119 1 q 49 14 66 7 q 31 35 31 22 l 31 773 z "},"w":{"ha":1108,"x_min":35,"x_max":1095,"o":"m 35 727 q 80 777 49 754 q 149 811 111 799 q 226 821 187 823 q 293 798 264 819 l 369 435 l 453 762 q 567 803 509 804 q 665 762 625 802 l 727 448 l 844 803 q 869 819 848 814 q 918 824 890 825 q 979 817 947 823 q 1037 800 1010 811 q 1079 772 1063 788 q 1092 734 1095 755 l 868 47 q 819 12 853 24 q 747 -1 785 0 q 674 10 708 -1 q 627 46 640 22 l 541 381 l 418 53 q 363 21 400 30 q 286 14 326 12 q 213 28 245 16 q 172 58 180 39 l 35 727 z "},"E":{"ha":751,"x_min":26,"x_max":724,"o":"m 26 1101 l 693 1109 q 716 1063 708 1097 q 720 989 724 1028 q 698 917 716 951 q 643 873 680 883 l 282 868 l 296 728 l 526 722 q 549 690 540 716 q 561 631 559 663 q 557 567 563 598 q 537 519 552 536 l 283 511 l 289 301 l 675 304 q 709 227 703 267 q 711 151 716 187 q 691 83 705 114 q 661 31 677 52 l 26 19 l 26 1101 z "},"b":{"ha":727,"x_min":18,"x_max":716,"o":"m 18 1051 q 60 1083 30 1065 q 128 1109 91 1101 q 203 1107 165 1116 q 269 1058 241 1097 l 274 711 q 400 812 332 783 q 530 821 468 841 q 641 728 593 800 q 708 528 689 656 q 685 260 716 374 q 593 81 654 145 q 451 9 533 16 q 275 65 369 3 l 274 27 q 224 3 258 14 q 153 -9 191 -7 q 80 -5 115 -12 q 26 23 45 3 l 18 1051 m 403 581 q 368 560 382 582 q 346 505 354 538 q 336 431 338 471 q 340 355 335 391 q 358 296 346 320 q 391 273 370 273 q 433 294 416 271 q 458 349 450 316 q 467 422 467 382 q 460 496 468 463 q 438 554 453 530 q 403 581 423 578 z "},"O":{"ha":902,"x_min":34,"x_max":892,"o":"m 34 505 q 73 753 34 640 q 180 947 113 865 q 339 1073 248 1028 q 533 1118 430 1118 q 699 1072 629 1118 q 812 951 768 1027 q 874 777 856 875 q 885 576 892 678 q 845 373 878 473 q 755 192 812 273 q 615 58 697 111 q 427 -3 533 5 q 269 37 340 -3 q 144 146 197 77 q 63 307 92 214 q 34 505 34 399 m 415 286 q 492 321 460 285 q 543 412 524 357 q 568 532 562 467 q 570 656 575 598 q 548 755 566 713 q 502 807 530 798 q 439 779 468 814 q 387 687 410 743 q 353 563 365 631 q 342 435 340 495 q 361 333 343 376 q 415 286 378 290 z "},"n":{"ha":787,"x_min":38,"x_max":761,"o":"m 511 53 q 507 275 510 174 q 485 439 503 376 q 427 518 467 502 q 311 486 387 534 l 315 53 q 281 22 304 34 q 229 3 258 9 q 170 -2 201 -3 q 113 5 140 -1 q 65 26 85 12 q 38 60 45 39 l 38 743 q 65 775 42 761 q 120 798 88 789 q 188 810 152 807 q 254 809 224 812 q 304 795 285 806 q 326 765 324 784 l 323 726 q 472 796 408 783 q 583 791 536 810 q 661 728 629 773 q 711 619 692 682 q 741 481 731 556 q 756 330 751 407 q 761 180 761 254 q 761 47 761 107 q 697 9 736 20 q 619 0 658 -1 q 549 15 581 1 q 511 53 518 28 z "},"F":{"ha":699,"x_min":31,"x_max":684,"o":"m 31 1107 l 589 1108 q 654 1065 631 1100 q 680 986 677 1029 q 665 901 684 943 q 604 834 646 859 l 355 830 l 355 707 l 555 704 q 612 655 598 689 q 622 584 625 621 q 604 513 618 547 q 581 468 590 480 l 355 458 l 350 47 q 320 18 343 31 q 266 -5 297 4 q 199 -15 235 -14 q 133 -8 164 -16 q 79 18 102 0 q 49 69 56 37 l 31 1107 z "},"c":{"ha":609,"x_min":19,"x_max":606,"o":"m 23 407 q 56 567 26 491 q 135 700 87 643 q 243 790 183 757 q 365 824 302 823 q 487 786 427 825 q 593 662 547 747 q 585 599 598 629 q 548 547 572 568 q 493 516 524 525 q 433 517 463 507 q 402 574 419 557 q 368 587 385 590 q 335 567 351 585 q 305 524 319 549 q 283 469 292 498 q 273 412 274 439 q 281 351 270 381 q 315 307 293 321 q 364 298 336 292 q 423 347 392 305 q 469 372 439 372 q 528 357 499 372 q 581 319 557 343 q 606 275 604 296 q 501 113 563 174 q 373 31 439 53 q 242 24 307 9 q 127 87 178 38 q 48 216 77 136 q 23 407 19 297 z "},"X":{"ha":1021,"x_min":27,"x_max":1015,"o":"m 301 548 l 30 948 q 49 1004 27 974 q 104 1058 71 1034 q 178 1098 138 1082 q 254 1112 218 1114 l 502 780 l 682 1116 q 719 1132 693 1133 q 774 1120 745 1131 q 833 1086 803 1108 q 884 1034 863 1063 q 912 971 905 1005 q 905 902 920 937 l 741 613 l 983 286 q 1010 227 1015 259 q 981 163 1006 194 q 916 103 955 132 q 837 56 876 75 q 767 29 798 37 q 728 31 736 22 l 506 345 l 298 -19 q 256 -17 283 -24 q 196 5 228 -9 q 132 41 164 20 q 77 84 100 61 q 41 130 53 107 q 37 172 28 153 l 301 548 z "},"x":{"ha":905,"x_min":27,"x_max":887,"o":"m 437 254 l 273 -4 q 203 -7 240 -14 q 133 17 165 -1 q 76 64 100 35 q 43 129 52 92 l 247 391 l 30 675 q 39 715 27 694 q 73 755 52 736 q 121 791 95 774 q 175 819 148 807 q 227 835 202 830 q 266 836 251 840 l 439 601 l 629 817 q 680 825 648 827 q 743 806 712 822 q 799 760 774 789 q 827 689 823 731 l 612 442 l 867 180 q 869 116 887 151 q 816 54 850 81 q 741 10 781 26 q 675 1 700 -5 l 437 254 z "},"o":{"ha":686,"x_min":30,"x_max":648,"o":"m 305 5 q 159 50 217 11 q 72 150 102 90 q 36 285 42 210 q 43 437 30 359 q 89 587 57 514 q 166 714 121 659 q 267 800 212 769 q 385 826 323 831 q 507 786 456 823 q 591 690 559 749 q 635 557 623 631 q 643 407 648 483 q 613 258 637 331 q 546 129 589 186 q 443 38 503 72 q 305 5 382 4 m 362 576 q 323 557 339 579 q 296 502 307 536 q 282 427 286 468 q 281 349 278 385 q 293 286 283 312 q 319 258 302 260 q 356 274 340 252 q 381 330 372 296 q 393 407 391 365 q 394 486 396 449 q 384 549 392 524 q 362 576 376 575 z "},"P":{"ha":829,"x_min":35,"x_max":812,"o":"m 35 974 q 79 1026 45 1002 q 165 1067 114 1050 q 279 1095 217 1085 q 408 1105 342 1104 q 537 1095 473 1105 q 654 1063 601 1085 q 746 1006 708 1042 q 799 921 784 971 q 798 796 812 867 q 734 657 784 726 q 597 532 685 589 q 376 450 510 476 l 397 39 q 325 -5 374 8 q 222 -18 275 -19 q 126 -3 170 -16 q 72 34 83 11 l 35 974 m 350 726 q 409 731 372 726 q 482 749 446 736 q 545 784 518 762 q 571 840 571 806 q 527 874 563 868 q 450 876 491 880 q 346 857 403 871 l 350 726 z "},"d":{"ha":688,"x_min":15,"x_max":663,"o":"m 19 275 q 22 432 15 353 q 48 582 30 511 q 98 707 66 652 q 172 790 129 762 q 272 812 216 818 q 400 757 328 807 l 399 1048 q 414 1075 396 1061 q 459 1101 431 1089 q 520 1119 487 1112 q 583 1123 553 1126 q 635 1107 613 1120 q 663 1065 658 1093 l 663 58 q 587 9 629 22 q 506 -3 545 -4 q 435 8 467 -1 q 391 26 403 18 l 391 121 q 256 5 321 26 q 140 16 191 -15 q 56 118 88 47 q 19 275 23 189 m 228 419 q 253 313 229 346 q 304 288 277 279 q 356 349 332 297 q 380 495 380 400 q 357 554 377 530 q 310 575 336 578 q 260 537 283 572 q 228 419 236 502 z "},"G":{"ha":918,"x_min":28,"x_max":903,"o":"m 891 608 l 903 45 q 866 14 895 26 q 800 0 837 3 q 728 4 764 -3 q 673 31 692 11 l 673 126 q 479 18 568 43 q 317 9 389 -8 q 191 79 245 26 q 100 208 136 132 q 46 377 64 285 q 31 564 28 469 q 55 751 33 659 q 121 916 77 842 q 229 1040 164 990 q 381 1101 293 1089 q 494 1105 439 1109 q 593 1087 548 1100 q 675 1054 639 1074 q 734 1009 711 1034 q 745 978 742 1000 q 747 928 749 956 q 736 872 745 901 q 713 822 727 844 q 676 789 699 800 q 625 787 654 779 q 479 802 538 810 q 381 764 419 793 q 323 691 343 735 q 296 600 304 647 q 291 510 289 553 q 297 437 293 467 q 342 331 307 373 q 423 276 377 289 q 520 284 469 263 q 612 368 571 305 l 515 358 q 457 372 479 355 q 425 414 435 388 q 413 473 414 441 q 418 534 412 505 q 435 585 425 563 q 461 613 446 606 l 891 608 z "},"Y":{"ha":1019,"x_min":8,"x_max":1006,"o":"m 350 610 l 8 1024 q 41 1076 16 1057 q 96 1103 65 1095 q 162 1114 127 1112 q 225 1114 197 1116 q 273 1107 254 1111 q 293 1100 292 1103 l 507 796 l 667 1101 q 747 1116 696 1111 q 850 1117 798 1122 q 947 1096 903 1112 q 1006 1046 991 1080 l 719 621 l 711 56 q 644 5 686 26 q 551 -21 602 -16 q 446 -11 500 -26 q 345 47 392 4 l 350 610 z "},"y":{"ha":836,"x_min":-1,"x_max":817,"o":"m 258 18 l -1 738 q 46 784 11 757 q 125 827 81 811 q 215 840 168 844 q 297 795 262 836 l 393 271 l 551 804 q 620 819 576 815 q 706 817 663 823 q 781 789 749 810 q 817 730 814 768 l 385 -519 q 290 -557 345 -552 q 183 -554 235 -563 q 93 -528 132 -545 q 46 -498 54 -510 l 258 18 z "},"e":{"ha":699,"x_min":9,"x_max":701,"o":"m 597 334 q 652 318 627 338 q 689 267 677 298 q 696 198 701 235 q 658 130 690 161 q 519 33 589 64 q 384 1 449 3 q 260 20 319 -1 q 155 80 202 42 q 74 168 107 118 q 26 274 41 218 q 14 344 19 298 q 12 445 9 389 q 28 561 15 500 q 71 675 41 621 q 149 770 100 728 q 273 829 198 811 q 426 831 355 848 q 547 775 496 815 q 626 676 598 735 q 652 551 654 617 q 605 441 650 487 q 498 370 560 395 q 369 345 435 346 q 258 368 302 343 q 293 282 264 312 q 367 248 321 252 q 471 265 412 244 q 597 334 529 286 m 298 582 q 320 549 300 557 q 364 543 340 541 q 409 556 388 545 q 433 582 430 567 q 417 615 437 605 q 371 625 397 625 q 321 613 345 624 q 298 582 298 602 z "},"Q":{"ha":918,"x_min":18,"x_max":918,"o":"m 18 311 q 30 471 18 382 q 69 650 42 560 q 138 825 96 741 q 241 975 180 910 q 382 1077 302 1039 q 564 1111 463 1115 q 690 1078 632 1118 q 793 968 749 1038 q 866 808 838 899 q 900 622 894 718 q 888 433 906 526 q 822 266 869 339 l 895 225 q 916 180 913 212 q 905 121 918 149 q 860 75 891 92 q 779 69 829 57 l 713 117 q 580 31 654 61 q 429 -3 506 1 q 277 11 351 -8 q 146 70 203 30 q 53 170 88 110 q 18 311 18 231 m 543 854 q 460 827 499 856 q 388 749 420 798 q 333 640 355 701 q 301 515 311 578 q 296 396 292 453 q 325 300 301 339 q 392 245 349 260 q 503 248 435 229 l 418 313 q 408 383 403 351 q 431 435 412 415 q 484 461 450 456 q 559 453 517 467 l 629 412 q 644 440 635 410 q 659 519 652 471 q 665 626 665 568 q 653 734 665 684 q 615 818 642 784 q 543 854 589 852 z "},"p":{"ha":777,"x_min":26,"x_max":754,"o":"m 26 785 q 95 844 56 833 q 171 846 134 854 q 235 819 208 838 q 270 784 263 799 l 274 728 q 366 789 315 766 q 469 816 416 811 q 571 808 521 821 q 661 763 621 795 q 724 679 700 731 q 750 553 749 627 q 743 427 754 498 q 705 286 731 355 q 639 157 680 217 q 544 62 598 96 q 422 26 490 27 q 275 75 354 26 l 292 -513 q 244 -544 277 -533 q 174 -555 212 -555 q 98 -548 136 -556 q 34 -522 60 -540 l 26 785 m 335 378 q 390 328 361 338 q 445 330 419 317 q 488 376 471 343 q 506 453 505 408 q 493 524 507 498 q 457 557 479 549 q 410 557 435 566 q 365 525 384 548 q 336 465 346 502 q 335 378 326 427 z "},"H":{"ha":848,"x_min":35,"x_max":818,"o":"m 35 1044 q 64 1079 41 1065 q 123 1101 88 1093 q 197 1108 157 1108 q 273 1101 237 1108 q 334 1079 308 1093 q 368 1043 359 1065 l 374 631 l 505 628 l 510 1058 q 548 1088 521 1076 q 609 1107 575 1101 q 680 1112 643 1114 q 748 1100 718 1109 q 798 1072 779 1090 q 817 1027 818 1054 l 815 50 q 745 12 792 23 q 649 3 699 1 q 557 14 600 4 q 502 39 515 24 l 498 389 l 374 389 l 361 47 q 336 34 357 42 q 285 18 315 26 q 220 6 255 11 q 151 3 184 1 q 87 14 117 4 q 39 43 57 23 l 35 1044 z "},"z":{"ha":713,"x_min":9,"x_max":707,"o":"m 47 26 q 23 72 30 43 q 17 133 16 100 q 24 200 18 165 q 43 266 31 235 l 384 547 l 68 537 q 32 566 45 544 q 14 616 19 587 q 12 678 9 646 q 22 739 15 711 q 41 787 30 768 q 64 811 52 807 l 562 829 q 629 789 605 814 q 662 734 652 765 q 670 671 671 704 q 662 609 669 639 q 646 555 655 579 q 632 519 637 532 l 351 283 l 650 294 q 694 226 681 267 q 703 143 707 184 q 682 68 700 102 q 633 20 665 34 l 47 26 z "},"Z":{"ha":944,"x_min":7,"x_max":932,"o":"m 119 0 q 73 41 88 11 q 52 113 57 72 q 50 201 47 155 q 60 289 53 247 q 73 363 66 331 q 84 410 80 396 q 90 424 83 416 q 112 446 96 431 q 153 488 127 461 q 214 560 178 515 q 298 672 250 605 q 410 836 347 739 l 43 836 q 26 998 7 935 q 107 1097 46 1062 l 777 1105 q 830 1086 814 1104 q 849 1042 846 1069 q 844 981 852 1015 q 821 917 836 948 q 791 859 807 886 q 762 819 774 833 l 450 340 l 823 353 q 908 264 884 313 q 931 167 932 214 q 913 80 930 119 q 878 23 897 41 l 119 0 z "},"!":{"ha":369,"x_min":66,"x_max":339,"o":"m 195 -23 q 129 -3 156 -23 q 87 45 102 16 q 71 109 72 75 q 83 172 69 142 q 125 222 96 202 q 198 244 153 243 q 273 225 244 244 q 316 177 302 206 q 328 113 330 148 q 311 49 327 79 q 267 -1 296 19 q 195 -23 237 -22 m 71 1073 q 117 1112 79 1099 q 201 1126 156 1126 q 287 1115 247 1127 q 339 1076 327 1103 l 328 345 q 265 309 300 321 q 196 296 231 297 q 127 304 161 296 q 66 331 94 313 l 71 1073 z "},"(":{"ha":688,"x_min":34,"x_max":650,"o":"m 617 96 q 627 -26 635 18 q 602 -91 620 -69 q 563 -119 585 -113 q 532 -129 541 -125 l 528 -129 q 353 -20 442 -91 q 192 140 263 50 q 77 334 121 231 q 39 538 34 437 q 92 749 45 642 q 212 945 138 856 q 380 1095 286 1035 q 575 1166 475 1156 q 621 1137 604 1164 q 644 1074 637 1109 q 646 1004 650 1039 q 628 951 642 968 q 596 939 621 951 q 538 906 571 928 q 466 852 505 884 q 394 776 427 819 q 336 677 361 732 q 304 557 311 623 q 327 424 297 495 q 404 288 357 353 q 509 171 452 222 q 617 96 567 119 z "},"/":{"ha":949,"x_min":22,"x_max":921,"o":"m 260 0 q 193 -27 228 -22 q 127 -24 159 -33 q 67 4 95 -16 q 22 54 39 24 l 713 1093 q 781 1114 746 1114 q 846 1099 817 1114 q 897 1055 876 1084 q 921 989 918 1027 l 260 0 z "},"⁄":{"ha":949,"x_min":22,"x_max":921,"o":"m 260 0 q 193 -27 228 -22 q 127 -24 159 -33 q 67 4 95 -16 q 22 54 39 24 l 713 1093 q 781 1114 746 1114 q 846 1099 817 1114 q 897 1055 876 1084 q 921 989 918 1027 l 260 0 z "},"∕":{"ha":949,"x_min":22,"x_max":921,"o":"m 260 0 q 193 -27 228 -22 q 127 -24 159 -33 q 67 4 95 -16 q 22 54 39 24 l 713 1093 q 781 1114 746 1114 q 846 1099 817 1114 q 897 1055 876 1084 q 921 989 918 1027 l 260 0 z "},"\\":{"ha":949,"x_min":22,"x_max":921,"o":"m 22 989 q 45 1055 24 1027 q 96 1099 66 1084 q 161 1114 126 1114 q 229 1093 197 1114 l 921 54 q 875 4 902 24 q 816 -24 848 -16 q 749 -27 784 -33 q 682 0 715 -22 l 22 989 z "},"@":{"ha":1424,"x_min":33,"x_max":1378,"o":"m 930 39 q 978 -5 960 28 q 997 -78 996 -38 q 981 -157 998 -118 q 924 -218 964 -195 q 718 -241 825 -251 q 507 -190 610 -232 q 313 -77 404 -148 q 159 85 222 -5 q 64 280 95 175 q 49 496 33 385 q 114 709 66 614 q 230 875 161 803 q 385 996 298 947 q 565 1073 471 1046 q 759 1105 659 1100 q 955 1093 859 1109 q 1120 1033 1046 1077 q 1250 922 1195 989 q 1338 769 1305 856 q 1378 583 1371 682 q 1329 334 1375 435 q 1213 172 1283 232 q 1061 88 1143 111 q 905 74 979 65 q 777 120 831 83 q 709 217 723 157 q 591 167 646 164 q 494 205 536 170 q 429 298 453 241 q 406 410 406 355 q 433 543 406 480 q 502 651 460 606 q 596 716 544 696 q 699 722 648 736 l 699 753 q 739 769 704 768 q 812 762 773 770 q 882 737 850 754 q 917 699 914 720 q 872 460 873 545 q 894 341 871 374 q 955 318 917 308 q 1029 367 993 328 q 1089 465 1065 406 q 1109 590 1114 525 q 1070 747 1103 689 q 999 836 1038 806 q 926 875 960 865 q 879 887 891 884 q 714 890 804 906 q 542 823 624 873 q 399 687 460 772 q 323 486 339 602 q 331 308 309 387 q 398 172 353 229 q 507 77 444 114 q 643 23 571 39 q 789 11 715 7 q 930 39 864 15 m 707 541 q 675 541 693 547 q 640 520 656 536 q 612 479 624 505 q 601 419 601 453 q 632 364 601 376 q 709 382 663 353 l 707 541 z "},"ˆ":{"ha":568,"x_min":35,"x_max":521,"o":"m 515 983 q 518 960 521 978 q 505 923 515 943 q 479 884 495 903 q 442 857 463 865 q 397 852 422 848 q 347 884 373 857 l 292 983 l 227 872 q 178 854 208 854 q 121 868 149 854 q 68 909 92 882 q 35 972 45 936 l 184 1190 q 233 1225 202 1215 q 295 1234 263 1236 q 354 1219 327 1232 q 393 1190 381 1207 l 515 983 z "},"˜":{"ha":747,"x_min":41,"x_max":727,"o":"m 171 887 q 117 868 144 856 q 73 911 91 880 q 47 979 54 941 q 53 1040 41 1017 q 81 1097 57 1062 q 138 1164 106 1133 q 203 1215 170 1195 q 260 1225 237 1234 q 321 1206 297 1225 q 364 1164 345 1187 q 402 1124 384 1142 q 446 1105 420 1105 q 492 1118 475 1105 q 521 1150 510 1131 q 536 1192 532 1169 q 545 1233 541 1214 q 593 1253 562 1257 q 656 1230 625 1249 q 707 1181 686 1210 q 722 1128 727 1153 q 680 1031 709 1073 q 618 960 651 989 q 555 913 586 930 q 507 887 524 895 q 437 897 468 880 q 380 933 407 913 q 331 971 354 954 q 285 986 308 989 q 226 968 254 991 q 171 887 198 945 z "},"’":{"ha":491,"x_min":79,"x_max":444,"o":"m 146 670 q 171 686 152 673 q 208 720 190 699 q 238 768 227 741 q 241 830 250 796 q 161 827 194 818 q 108 860 127 837 q 83 916 88 883 q 87 981 79 948 q 117 1045 95 1015 q 174 1096 138 1076 q 250 1114 209 1116 q 328 1088 290 1111 q 394 1025 365 1066 q 435 929 423 985 q 421 804 444 864 q 357 705 399 745 q 259 654 315 666 q 146 670 203 642 z "},"“":{"ha":811,"x_min":47,"x_max":789,"o":"m 345 1063 q 320 1048 339 1061 q 283 1014 301 1035 q 253 965 264 993 q 250 903 241 937 q 330 906 297 916 q 383 873 363 897 q 408 818 403 850 q 404 752 412 785 q 374 688 396 719 q 317 637 353 656 q 241 620 282 617 q 163 645 201 623 q 97 708 126 667 q 56 804 68 749 q 70 929 47 869 q 134 1028 92 989 q 232 1080 176 1067 q 345 1063 288 1092 m 722 1093 q 697 1078 716 1090 q 660 1044 678 1065 q 630 995 642 1023 q 627 933 618 967 q 707 936 674 945 q 760 903 741 926 q 785 848 780 880 q 781 782 789 815 q 751 718 773 749 q 694 667 730 688 q 618 650 659 647 q 541 675 578 652 q 474 738 503 697 q 433 834 445 779 q 447 959 425 899 q 511 1058 469 1019 q 609 1109 553 1097 q 722 1093 665 1122 z "},"„":{"ha":873,"x_min":37,"x_max":779,"o":"m 481 -68 q 506 -52 487 -65 q 543 -18 525 -39 q 573 31 562 3 q 576 92 585 58 q 496 90 529 80 q 443 122 463 99 q 418 178 423 145 q 422 243 414 210 q 452 307 430 277 q 509 358 473 338 q 585 376 544 378 q 663 351 625 373 q 729 288 700 328 q 770 191 758 247 q 756 66 779 126 q 692 -33 734 7 q 594 -84 650 -72 q 481 -68 538 -96 m 104 -98 q 129 -82 110 -95 q 166 -48 148 -69 q 196 1 184 -27 q 199 62 208 28 q 119 60 152 50 q 66 92 85 69 q 41 148 46 115 q 45 214 37 180 q 75 277 53 247 q 132 328 96 308 q 208 346 167 349 q 286 321 248 343 q 352 258 323 298 q 393 161 381 217 q 379 37 401 96 q 315 -62 357 -23 q 217 -114 273 -102 q 104 -98 161 -126 z "},"‚":{"ha":491,"x_min":56,"x_max":420,"o":"m 123 -46 q 148 -31 129 -43 q 185 3 167 -18 q 215 52 203 24 q 218 114 227 80 q 138 111 171 102 q 85 144 104 121 q 60 199 65 167 q 64 265 56 232 q 94 329 72 298 q 151 380 115 359 q 227 397 186 400 q 304 372 267 395 q 371 309 342 350 q 412 213 400 269 q 398 88 420 148 q 334 -11 376 28 q 236 -62 292 -50 q 123 -46 180 -75 z "},"£":{"ha":883,"x_min":-9,"x_max":850,"o":"m 49 416 q 16 446 31 416 q -5 515 0 476 q 0 589 -9 553 q 42 636 9 625 l 161 640 q 212 857 178 766 q 297 1004 247 947 q 413 1087 347 1061 q 559 1114 479 1114 q 669 1093 618 1114 q 758 1031 720 1072 q 819 935 796 991 q 848 808 842 879 q 821 767 849 788 q 757 736 793 746 q 685 733 720 727 q 637 773 650 739 q 637 783 636 777 q 637 798 637 788 q 632 825 636 808 q 616 865 628 841 q 582 885 604 879 q 536 887 560 891 q 486 868 511 883 q 441 825 461 853 q 408 753 420 796 q 396 651 395 711 l 608 651 q 643 611 632 643 q 651 541 654 579 q 633 469 648 503 q 594 420 618 434 l 389 415 l 363 175 q 490 189 429 190 q 608 178 551 189 q 720 146 666 167 q 826 100 774 126 q 843 75 837 95 q 850 30 849 56 q 845 -24 850 4 q 827 -74 840 -52 q 794 -109 814 -96 q 747 -118 774 -122 q 628 -83 685 -98 q 501 -64 571 -68 q 338 -70 431 -60 q 110 -110 244 -80 l 157 415 l 49 416 z "},"€":{"ha":1184,"x_min":37,"x_max":1169,"o":"m 103 578 q 56 629 72 602 q 38 683 39 656 q 53 733 37 709 q 103 773 69 757 l 201 773 q 313 927 236 857 q 486 1043 389 997 q 688 1108 582 1089 q 890 1109 795 1127 q 1059 1031 985 1090 q 1165 861 1133 971 q 1147 795 1169 826 q 1090 745 1124 764 q 1019 722 1057 726 q 955 739 981 719 q 852 827 907 800 q 739 854 796 853 q 628 833 682 854 q 529 773 574 811 l 684 773 q 713 745 696 768 q 738 692 730 722 q 736 631 746 662 q 684 578 726 600 l 406 578 q 401 524 401 549 l 684 524 q 713 496 696 518 q 738 444 730 473 q 736 385 746 415 q 684 332 726 354 l 488 332 q 580 272 528 294 q 692 251 632 250 q 819 282 753 252 q 952 380 886 312 q 987 391 966 395 q 1029 372 1008 388 q 1071 331 1051 357 q 1100 276 1090 305 q 1107 216 1109 247 q 1084 161 1105 186 q 913 41 1002 83 q 734 -11 823 -1 q 559 0 644 -20 q 400 65 473 20 q 271 178 327 110 q 184 332 216 245 l 103 332 q 56 383 72 357 q 38 435 39 410 q 53 484 37 461 q 103 524 69 507 l 152 524 q 153 550 152 537 q 155 578 153 563 l 103 578 l 103 578 z "},"˚":{"ha":464,"x_min":27,"x_max":441,"o":"m 27 1036 q 51 1139 27 1096 q 111 1209 75 1183 q 193 1244 148 1236 q 282 1243 239 1253 q 361 1202 326 1233 q 415 1120 396 1172 q 422 996 441 1050 q 359 907 403 941 q 259 862 316 873 q 151 865 202 850 q 63 921 99 879 q 27 1036 27 963 m 175 1042 q 189 998 175 1012 q 220 984 203 983 q 250 999 236 985 q 264 1042 264 1013 q 250 1080 264 1067 q 220 1093 236 1093 q 189 1080 203 1093 q 175 1042 175 1067 z "},"˝":{"ha":673,"x_min":35,"x_max":643,"o":"m 172 1203 q 220 1229 191 1225 q 277 1221 250 1233 q 323 1183 304 1208 q 343 1119 343 1157 l 199 892 q 140 872 172 867 q 83 899 109 878 q 47 949 58 921 q 50 997 35 978 l 172 1203 m 472 1180 q 520 1206 491 1202 q 576 1198 549 1210 q 623 1160 604 1185 q 643 1096 643 1134 l 499 869 q 440 849 472 844 q 383 876 408 854 q 347 926 358 898 q 350 974 335 955 l 472 1180 z "},"˙":{"ha":293,"x_min":26,"x_max":281,"o":"m 153 868 q 83 886 111 868 q 41 932 56 905 q 26 991 27 959 q 39 1050 26 1023 q 81 1099 53 1078 q 153 1123 110 1119 q 225 1103 197 1122 q 267 1057 254 1085 q 279 997 281 1029 q 264 936 278 964 q 222 888 250 907 q 153 868 194 869 z "},"ˇ":{"ha":568,"x_min":35,"x_max":521,"o":"m 393 894 q 354 864 381 876 q 295 850 327 852 q 233 857 263 848 q 184 894 202 867 l 35 1111 q 68 1175 45 1147 q 121 1215 92 1202 q 178 1229 149 1229 q 227 1211 208 1229 l 292 1100 l 347 1199 q 397 1231 373 1226 q 442 1227 422 1236 q 479 1199 463 1218 q 505 1160 495 1180 q 518 1123 515 1141 q 515 1100 521 1105 l 393 894 z "},"˘":{"ha":568,"x_min":9,"x_max":556,"o":"m 14 1050 q 20 1087 9 1063 q 52 1130 31 1111 q 102 1154 73 1149 q 161 1137 130 1160 q 202 1074 170 1099 q 275 1047 235 1050 q 354 1068 315 1044 q 415 1149 393 1092 q 469 1157 442 1160 q 515 1141 495 1154 q 545 1105 534 1127 q 555 1054 556 1082 q 493 941 536 985 q 395 876 450 897 q 278 857 339 854 q 163 881 217 859 q 68 946 109 903 q 14 1050 27 989 z "},"ı":{"ha":358,"x_min":34,"x_max":320,"o":"m 34 796 q 100 829 58 817 q 184 840 141 841 q 262 825 227 840 q 315 777 298 810 l 320 77 q 269 28 308 43 q 186 12 231 12 q 100 26 141 12 q 39 65 58 41 l 34 796 z "},"ƒ":{"ha":670,"x_min":-152,"x_max":749,"o":"m 201 14 q 202 81 201 53 q 202 150 203 110 q 197 251 201 190 q 182 416 193 312 l 57 416 q 24 446 39 416 q 3 515 8 476 q 8 589 -1 553 q 50 636 18 625 l 186 642 q 243 989 167 875 q 480 1104 319 1104 q 589 1086 540 1104 q 674 1030 639 1067 q 729 936 709 993 q 749 800 749 879 q 719 777 749 789 q 653 758 689 765 q 587 753 617 751 q 556 773 557 755 q 553 807 555 783 q 529 882 552 831 q 492 897 510 902 q 460 861 473 891 q 440 777 446 831 q 441 643 434 722 l 572 642 q 612 603 597 633 q 629 536 627 572 q 620 467 631 500 q 585 420 609 434 l 460 416 l 457 42 q 447 -97 461 -26 q 400 -230 433 -168 q 319 -338 368 -292 q 209 -405 271 -385 q 72 -412 146 -425 q -88 -340 -3 -399 q -139 -268 -126 -307 q -145 -195 -152 -229 q -114 -133 -138 -160 q -53 -96 -90 -106 q -17 -121 -39 -106 q 32 -146 5 -136 q 86 -158 58 -156 q 138 -144 114 -160 q 178 -92 161 -129 q 201 14 195 -54 z "},"…":{"ha":1038,"x_min":52,"x_max":998,"o":"m 179 -1 q 109 17 137 -1 q 67 62 81 35 q 52 121 53 90 q 65 181 52 153 q 107 229 79 209 q 179 254 136 250 q 251 235 222 254 q 293 188 279 216 q 305 127 307 160 q 290 66 304 95 q 248 19 275 38 q 179 -1 220 0 m 525 -1 q 455 17 483 -1 q 413 62 427 35 q 398 121 399 90 q 411 181 397 153 q 453 229 425 209 q 525 254 481 250 q 597 235 568 254 q 639 188 625 216 q 651 127 652 160 q 635 66 650 95 q 593 19 621 38 q 525 -1 566 0 m 871 -1 q 801 17 829 -1 q 759 62 773 35 q 744 121 745 90 q 757 181 743 153 q 799 229 770 209 q 871 254 827 250 q 943 235 914 254 q 985 188 971 216 q 997 127 998 160 q 981 66 996 95 q 939 19 967 38 q 871 -1 911 0 z "},"¸":{"ha":537,"x_min":39,"x_max":481,"o":"m 73 -456 q 45 -397 50 -425 q 45 -347 39 -370 q 64 -306 50 -324 q 91 -274 77 -288 q 94 -281 83 -277 q 128 -288 106 -285 q 178 -292 151 -292 q 229 -288 205 -293 q 267 -269 252 -282 q 279 -231 282 -255 q 257 -193 277 -203 q 211 -180 237 -183 q 155 -176 184 -178 q 101 -167 125 -175 q 63 -138 77 -159 q 53 -75 49 -118 l 49 34 q 92 71 64 58 q 149 82 119 83 q 205 68 179 81 q 244 26 232 54 l 248 -35 q 323 -49 285 -35 q 393 -87 361 -62 q 446 -148 425 -113 q 471 -227 468 -183 q 379 -431 481 -370 q 73 -456 277 -491 z "},"¡":{"ha":369,"x_min":66,"x_max":339,"o":"m 195 1147 q 129 1128 156 1147 q 87 1079 102 1108 q 71 1016 72 1050 q 83 952 69 982 q 125 902 96 922 q 198 880 153 882 q 273 899 244 880 q 316 947 302 918 q 328 1011 330 977 q 311 1076 327 1046 q 267 1126 296 1105 q 195 1147 237 1146 m 71 52 q 117 12 79 26 q 201 -2 156 -1 q 287 10 247 -3 q 339 49 327 22 l 328 780 q 265 815 300 803 q 196 828 231 827 q 127 820 161 829 q 66 793 94 811 l 71 52 z "},"¿":{"ha":749,"x_min":18,"x_max":696,"o":"m 576 503 q 492 504 540 503 q 401 494 445 505 q 322 455 357 484 q 275 365 288 426 q 332 286 294 307 q 407 275 369 266 q 476 317 445 284 q 514 400 507 351 q 568 430 534 429 q 631 415 601 431 q 678 368 661 399 q 684 298 696 336 q 604 122 662 189 q 473 29 547 56 q 318 12 399 1 q 171 68 237 23 q 61 190 104 113 q 18 373 18 267 q 44 499 18 445 q 114 592 71 553 q 212 654 157 631 q 320 690 266 678 l 319 791 q 376 820 343 811 q 446 828 410 829 q 515 817 482 827 q 574 785 549 806 l 576 503 m 460 1146 q 530 1128 502 1146 q 572 1082 557 1109 q 587 1023 586 1055 q 574 964 587 991 q 532 916 560 936 q 460 891 503 895 q 388 910 416 891 q 346 957 359 929 q 334 1017 332 985 q 349 1078 335 1050 q 391 1126 364 1107 q 460 1146 419 1145 z "},"˛":{"ha":332,"x_min":71,"x_max":347,"o":"m 273 -180 q 317 -189 298 -176 q 341 -221 335 -201 q 336 -265 347 -241 q 293 -307 326 -289 q 189 -301 232 -316 q 118 -256 145 -286 q 81 -183 91 -225 q 76 -96 71 -141 q 101 -5 81 -50 q 155 76 121 39 l 232 39 q 203 18 213 37 q 190 -24 193 0 q 191 -77 187 -49 q 206 -129 195 -106 q 234 -167 217 -152 q 273 -180 251 -182 z "},"¯":{"ha":633,"x_min":75,"x_max":547,"o":"m 146 864 q 104 884 119 865 q 81 928 88 902 q 77 985 75 955 q 88 1040 80 1015 q 111 1083 96 1066 q 142 1100 125 1100 l 494 1105 q 534 1061 522 1097 q 545 985 547 1025 q 530 909 543 944 q 496 868 517 875 l 146 864 z "},"ˉ":{"ha":633,"x_min":75,"x_max":547,"o":"m 146 864 q 104 884 119 865 q 81 928 88 902 q 77 985 75 955 q 88 1040 80 1015 q 111 1083 96 1066 q 142 1100 125 1100 l 494 1105 q 534 1061 522 1097 q 545 985 547 1025 q 530 909 543 944 q 496 868 517 875 l 146 864 z "},"−":{"ha":708,"x_min":179,"x_max":651,"o":"m 251 296 q 208 315 224 297 q 186 360 193 334 q 182 416 179 387 q 193 472 184 446 q 215 515 201 498 q 247 532 229 532 l 598 537 q 639 493 627 529 q 649 416 651 457 q 634 341 647 376 q 601 300 621 307 l 251 296 z "},"·":{"ha":346,"x_min":43,"x_max":298,"o":"m 171 496 q 101 515 129 496 q 59 560 73 533 q 44 619 45 587 q 57 679 43 651 q 99 727 71 707 q 171 751 127 747 q 243 732 214 750 q 285 686 271 713 q 297 625 298 658 q 281 564 296 593 q 239 517 267 536 q 171 496 212 498 z "},"∙":{"ha":346,"x_min":43,"x_max":298,"o":"m 171 496 q 101 515 129 496 q 59 560 73 533 q 44 619 45 587 q 57 679 43 651 q 99 727 71 707 q 171 751 127 747 q 243 732 214 750 q 285 686 271 713 q 297 625 298 658 q 281 564 296 593 q 239 517 267 536 q 171 496 212 498 z "},"•":{"ha":716,"x_min":224,"x_max":666,"o":"m 445 313 q 324 345 373 313 q 250 424 275 377 q 224 526 225 471 q 248 630 224 581 q 321 714 273 680 q 445 755 370 749 q 570 722 521 754 q 642 641 618 689 q 664 536 666 593 q 637 431 662 480 q 564 349 612 382 q 445 313 515 316 z "},"":{"ha":340,"x_min":23,"x_max":323,"o":"m 81 -388 q 100 -375 85 -385 q 130 -347 115 -365 q 155 -307 145 -330 q 157 -258 164 -285 q 67 -249 99 -273 q 29 -187 35 -225 q 41 -107 23 -149 q 103 -41 60 -65 q 165 -26 132 -24 q 228 -47 198 -28 q 281 -98 258 -65 q 316 -176 305 -132 q 304 -278 323 -229 q 252 -359 286 -327 q 172 -401 217 -391 q 81 -388 127 -411 z "},"Á":{"ha":1013,"x_min":33,"x_max":987,"o":"m 392 54 q 340 16 374 28 q 265 0 305 3 q 184 2 225 -3 q 109 16 142 7 q 54 36 75 24 q 34 57 33 47 l 271 1009 q 321 1066 286 1044 q 399 1098 355 1088 q 490 1108 442 1108 q 581 1100 538 1108 q 654 1076 623 1092 q 694 1040 685 1061 l 987 43 q 895 3 939 14 q 812 -7 852 -8 q 733 5 772 -5 q 656 28 694 16 l 598 437 l 433 442 l 392 54 m 586 665 q 551 807 570 766 q 512 840 532 848 q 474 783 492 831 q 441 659 456 734 l 586 665 m 500 1457 q 549 1482 519 1478 q 605 1474 578 1487 q 652 1436 632 1462 q 671 1373 671 1411 l 528 1146 q 469 1126 500 1120 q 412 1153 437 1131 q 375 1203 387 1175 q 378 1251 363 1232 l 500 1457 z "},"Ă":{"ha":1013,"x_min":33,"x_max":987,"o":"m 392 54 q 340 16 374 28 q 265 0 305 3 q 184 2 225 -3 q 109 16 142 7 q 54 36 75 24 q 34 57 33 47 l 271 1009 q 321 1066 286 1044 q 399 1098 355 1088 q 490 1108 442 1108 q 581 1100 538 1108 q 654 1076 623 1092 q 694 1040 685 1061 l 987 43 q 895 3 939 14 q 812 -7 852 -8 q 733 5 772 -5 q 656 28 694 16 l 598 437 l 433 442 l 392 54 m 586 665 q 551 807 570 766 q 512 840 532 848 q 474 783 492 831 q 441 659 456 734 l 586 665 m 239 1322 q 245 1360 235 1336 q 277 1402 256 1383 q 327 1427 298 1421 q 387 1409 355 1432 q 427 1347 395 1371 q 500 1320 460 1322 q 579 1341 540 1317 q 640 1421 618 1364 q 694 1430 667 1432 q 740 1413 720 1427 q 770 1377 760 1400 q 780 1326 781 1355 q 718 1213 761 1257 q 620 1148 675 1169 q 503 1129 564 1127 q 388 1154 442 1131 q 293 1219 334 1176 q 239 1322 252 1261 z "},"Â":{"ha":1013,"x_min":33,"x_max":987,"o":"m 392 54 q 340 16 374 28 q 265 0 305 3 q 184 2 225 -3 q 109 16 142 7 q 54 36 75 24 q 34 57 33 47 l 271 1009 q 321 1066 286 1044 q 399 1098 355 1088 q 490 1108 442 1108 q 581 1100 538 1108 q 654 1076 623 1092 q 694 1040 685 1061 l 987 43 q 895 3 939 14 q 812 -7 852 -8 q 733 5 772 -5 q 656 28 694 16 l 598 437 l 433 442 l 392 54 m 586 665 q 551 807 570 766 q 512 840 532 848 q 474 783 492 831 q 441 659 456 734 l 586 665 m 734 1256 q 736 1233 739 1251 q 724 1196 734 1215 q 697 1157 713 1176 q 661 1129 681 1138 q 616 1125 640 1120 q 566 1157 591 1130 l 510 1256 l 445 1145 q 397 1127 426 1127 q 339 1141 368 1127 q 287 1181 311 1154 q 254 1245 263 1208 l 403 1462 q 451 1498 420 1488 q 513 1506 481 1508 q 572 1492 545 1504 q 612 1462 600 1480 l 734 1256 z "},"À":{"ha":1013,"x_min":33,"x_max":987,"o":"m 392 54 q 340 16 374 28 q 265 0 305 3 q 184 2 225 -3 q 109 16 142 7 q 54 36 75 24 q 34 57 33 47 l 271 1009 q 321 1066 286 1044 q 399 1098 355 1088 q 490 1108 442 1108 q 581 1100 538 1108 q 654 1076 623 1092 q 694 1040 685 1061 l 987 43 q 895 3 939 14 q 812 -7 852 -8 q 733 5 772 -5 q 656 28 694 16 l 598 437 l 433 442 l 392 54 m 586 665 q 551 807 570 766 q 512 840 532 848 q 474 783 492 831 q 441 659 456 734 l 586 665 m 633 1251 q 637 1203 648 1232 q 600 1153 625 1175 q 543 1126 575 1131 q 484 1146 510 1120 l 340 1373 q 359 1436 340 1411 q 406 1474 378 1462 q 463 1482 434 1487 q 511 1457 492 1478 l 633 1251 z "},"Ä":{"ha":1013,"x_min":33,"x_max":987,"o":"m 392 54 q 340 16 374 28 q 265 0 305 3 q 184 2 225 -3 q 109 16 142 7 q 54 36 75 24 q 34 57 33 47 l 271 1009 q 321 1066 286 1044 q 399 1098 355 1088 q 490 1108 442 1108 q 581 1100 538 1108 q 654 1076 623 1092 q 694 1040 685 1061 l 987 43 q 895 3 939 14 q 812 -7 852 -8 q 733 5 772 -5 q 656 28 694 16 l 598 437 l 433 442 l 392 54 m 586 665 q 551 807 570 766 q 512 840 532 848 q 474 783 492 831 q 441 659 456 734 l 586 665 m 340 1142 q 271 1160 298 1142 q 229 1206 243 1179 q 214 1265 214 1233 q 227 1324 213 1297 q 269 1373 240 1352 q 340 1397 297 1393 q 412 1377 384 1396 q 454 1331 441 1359 q 467 1271 468 1303 q 451 1210 465 1238 q 409 1162 437 1181 q 340 1142 381 1143 m 669 1142 q 599 1160 627 1142 q 557 1206 571 1179 q 542 1265 543 1233 q 555 1324 541 1297 q 597 1373 568 1352 q 669 1397 625 1393 q 741 1377 712 1396 q 783 1331 769 1359 q 795 1271 796 1303 q 779 1210 793 1238 q 737 1162 765 1181 q 669 1142 709 1143 z "},"Ā":{"ha":1013,"x_min":33,"x_max":987,"o":"m 392 54 q 340 16 374 28 q 265 0 305 3 q 184 2 225 -3 q 109 16 142 7 q 54 36 75 24 q 34 57 33 47 l 271 1009 q 321 1066 286 1044 q 399 1098 355 1088 q 490 1108 442 1108 q 581 1100 538 1108 q 654 1076 623 1092 q 694 1040 685 1061 l 987 43 q 895 3 939 14 q 812 -7 852 -8 q 733 5 772 -5 q 656 28 694 16 l 598 437 l 433 442 l 392 54 m 586 665 q 551 807 570 766 q 512 840 532 848 q 474 783 492 831 q 441 659 456 734 l 586 665 m 349 1137 q 306 1156 321 1138 q 283 1201 290 1175 q 279 1257 277 1227 q 290 1313 282 1287 q 313 1356 298 1339 q 345 1373 327 1373 l 696 1378 q 736 1334 724 1370 q 747 1257 749 1298 q 732 1182 745 1217 q 699 1141 719 1147 l 349 1137 z "},"Å":{"ha":1013,"x_min":33,"x_max":987,"o":"m 392 54 q 340 16 374 28 q 265 0 305 3 q 184 2 225 -3 q 109 16 142 7 q 54 36 75 24 q 34 57 33 47 l 271 1009 q 321 1066 286 1044 q 399 1098 355 1088 q 490 1108 442 1108 q 581 1100 538 1108 q 654 1076 623 1092 q 694 1040 685 1061 l 987 43 q 895 3 939 14 q 812 -7 852 -8 q 733 5 772 -5 q 656 28 694 16 l 598 437 l 433 442 l 392 54 m 586 665 q 551 807 570 766 q 512 840 532 848 q 474 783 492 831 q 441 659 456 734 l 586 665 m 262 1309 q 286 1412 262 1369 q 346 1482 309 1455 q 428 1517 382 1508 q 517 1516 473 1526 q 595 1475 560 1506 q 650 1393 631 1444 q 656 1268 675 1322 q 594 1180 637 1214 q 494 1135 551 1146 q 385 1137 437 1123 q 298 1194 334 1152 q 262 1309 262 1236 m 410 1314 q 424 1270 410 1284 q 454 1257 438 1256 q 485 1272 471 1257 q 499 1314 499 1286 q 485 1353 499 1340 q 454 1366 471 1366 q 424 1353 438 1366 q 410 1314 410 1340 z "},"Ą":{"ha":1013,"x_min":33,"x_max":987,"o":"m 800 -132 q 844 -140 826 -127 q 869 -172 863 -152 q 864 -216 875 -193 q 821 -258 853 -240 q 686 -239 736 -270 q 614 -156 635 -209 q 604 -39 594 -103 q 648 81 613 26 l 598 437 l 433 442 l 392 54 q 340 16 374 28 q 265 0 305 3 q 184 2 225 -3 q 109 16 142 7 q 54 36 75 24 q 34 57 33 47 l 271 1009 q 321 1066 286 1044 q 399 1098 355 1088 q 490 1108 442 1108 q 581 1100 538 1108 q 654 1076 623 1092 q 694 1040 685 1061 l 987 43 q 912 9 948 20 q 843 -5 876 -3 q 778 -3 810 -8 q 716 9 746 1 q 722 -40 716 -15 q 738 -86 727 -65 q 764 -120 749 -107 q 800 -132 780 -133 m 586 665 q 551 807 570 766 q 512 840 532 848 q 474 783 492 831 q 441 659 456 734 l 586 665 z "},"Ã":{"ha":1013,"x_min":33,"x_max":987,"o":"m 392 54 q 340 16 374 28 q 265 0 305 3 q 184 2 225 -3 q 109 16 142 7 q 54 36 75 24 q 34 57 33 47 l 271 1009 q 321 1066 286 1044 q 399 1098 355 1088 q 490 1108 442 1108 q 581 1100 538 1108 q 654 1076 623 1092 q 694 1040 685 1061 l 987 43 q 895 3 939 14 q 812 -7 852 -8 q 733 5 772 -5 q 656 28 694 16 l 598 437 l 433 442 l 392 54 m 586 665 q 551 807 570 766 q 512 840 532 848 q 474 783 492 831 q 441 659 456 734 l 586 665 m 298 1160 q 245 1141 271 1128 q 200 1183 218 1153 q 175 1252 182 1214 q 180 1313 168 1290 q 209 1370 184 1335 q 265 1436 233 1405 q 331 1487 297 1468 q 388 1497 365 1507 q 448 1478 425 1497 q 492 1437 472 1459 q 530 1396 511 1415 q 574 1378 548 1378 q 620 1391 602 1378 q 648 1423 637 1404 q 664 1464 659 1442 q 673 1506 669 1487 q 721 1526 689 1530 q 783 1502 753 1522 q 834 1454 814 1482 q 849 1401 854 1426 q 808 1303 837 1345 q 746 1232 779 1261 q 682 1185 713 1203 q 635 1160 651 1168 q 565 1169 595 1153 q 508 1206 534 1185 q 458 1244 481 1226 q 412 1259 435 1261 q 353 1241 381 1264 q 298 1160 326 1218 z "},"Æ":{"ha":1241,"x_min":33,"x_max":1234,"o":"m 536 438 l 433 442 l 392 54 q 340 16 374 28 q 265 0 305 3 q 184 2 225 -3 q 109 16 142 7 q 54 36 75 24 q 34 57 33 47 l 271 1009 q 300 1047 281 1031 q 360 1075 320 1063 q 465 1094 400 1086 q 631 1105 530 1101 q 873 1108 732 1108 q 1203 1105 1013 1108 q 1226 1059 1218 1093 q 1230 985 1234 1024 q 1208 913 1226 947 q 1153 869 1190 879 l 792 864 l 806 724 l 1036 718 q 1059 686 1050 712 q 1071 627 1069 659 q 1067 563 1073 594 q 1047 515 1062 532 l 793 507 l 799 297 l 1185 300 q 1219 223 1213 263 q 1221 146 1226 183 q 1201 79 1215 110 q 1171 27 1187 47 l 536 15 l 536 438 m 536 662 l 536 831 q 511 838 524 845 q 486 808 498 831 q 462 746 473 784 q 441 659 450 708 l 536 662 z "},"Ǽ":{"ha":1241,"x_min":33,"x_max":1234,"o":"m 536 438 l 433 442 l 392 54 q 340 16 374 28 q 265 0 305 3 q 184 2 225 -3 q 109 16 142 7 q 54 36 75 24 q 34 57 33 47 l 271 1009 q 300 1047 281 1031 q 360 1075 320 1063 q 465 1094 400 1086 q 631 1105 530 1101 q 873 1108 732 1108 q 1203 1105 1013 1108 q 1226 1059 1218 1093 q 1230 985 1234 1024 q 1208 913 1226 947 q 1153 869 1190 879 l 792 864 l 806 724 l 1036 718 q 1059 686 1050 712 q 1071 627 1069 659 q 1067 563 1073 594 q 1047 515 1062 532 l 793 507 l 799 297 l 1185 300 q 1219 223 1213 263 q 1221 146 1226 183 q 1201 79 1215 110 q 1171 27 1187 47 l 536 15 l 536 438 m 536 662 l 536 831 q 511 838 524 845 q 486 808 498 831 q 462 746 473 784 q 441 659 450 708 l 536 662 m 614 1457 q 663 1482 633 1478 q 719 1474 692 1487 q 766 1436 746 1462 q 785 1373 785 1411 l 642 1146 q 583 1126 614 1120 q 526 1153 551 1131 q 489 1203 500 1175 q 492 1251 477 1232 l 614 1457 z "},"Ć":{"ha":926,"x_min":37,"x_max":909,"o":"m 909 372 q 783 154 854 237 q 631 31 711 71 q 470 -6 552 -8 q 314 33 388 -4 q 180 138 240 71 q 85 300 121 206 q 43 508 49 393 q 71 753 37 623 q 155 916 94 842 q 295 1039 216 990 q 465 1107 374 1088 q 638 1107 555 1126 q 788 1028 722 1089 q 887 856 854 967 q 869 789 891 821 q 812 739 846 758 q 741 717 779 720 q 677 734 703 713 q 590 818 632 793 q 511 842 548 842 q 441 821 473 842 q 382 769 408 800 q 337 701 355 738 q 311 629 319 663 q 304 524 297 579 q 332 422 311 469 q 387 342 353 376 q 464 303 422 309 q 553 323 506 297 q 648 423 600 350 q 677 463 655 449 q 727 481 699 477 q 787 480 755 486 q 845 460 818 475 q 890 424 872 446 q 909 372 907 401 m 457 1457 q 505 1482 476 1478 q 562 1474 534 1487 q 608 1436 589 1462 q 628 1373 628 1411 l 484 1146 q 425 1126 457 1120 q 368 1153 393 1131 q 332 1203 343 1175 q 335 1251 320 1232 l 457 1457 z "},"Č":{"ha":926,"x_min":37,"x_max":909,"o":"m 909 372 q 783 154 854 237 q 631 31 711 71 q 470 -6 552 -8 q 314 33 388 -4 q 180 138 240 71 q 85 300 121 206 q 43 508 49 393 q 71 753 37 623 q 155 916 94 842 q 295 1039 216 990 q 465 1107 374 1088 q 638 1107 555 1126 q 788 1028 722 1089 q 887 856 854 967 q 869 789 891 821 q 812 739 846 758 q 741 717 779 720 q 677 734 703 713 q 590 818 632 793 q 511 842 548 842 q 441 821 473 842 q 382 769 408 800 q 337 701 355 738 q 311 629 319 663 q 304 524 297 579 q 332 422 311 469 q 387 342 353 376 q 464 303 422 309 q 553 323 506 297 q 648 423 600 350 q 677 463 655 449 q 727 481 699 477 q 787 480 755 486 q 845 460 818 475 q 890 424 872 446 q 909 372 907 401 m 568 1166 q 529 1137 556 1149 q 470 1122 502 1124 q 408 1130 438 1120 q 359 1166 377 1139 l 210 1383 q 243 1447 220 1420 q 296 1488 267 1474 q 353 1501 324 1501 q 401 1484 382 1501 l 467 1373 l 522 1472 q 572 1503 548 1499 q 617 1499 597 1508 q 654 1472 637 1491 q 680 1433 670 1453 q 693 1396 690 1413 q 690 1373 696 1378 l 568 1166 z "},"Ç":{"ha":926,"x_min":35,"x_max":909,"o":"m 354 -503 q 322 -440 328 -469 q 321 -386 316 -411 q 340 -341 327 -361 q 369 -307 354 -321 q 387 -314 370 -309 q 429 -321 404 -319 q 481 -323 453 -324 q 532 -316 509 -323 q 569 -295 555 -309 q 581 -255 583 -281 q 555 -215 576 -227 q 505 -200 534 -203 q 444 -196 476 -197 q 385 -186 411 -195 q 342 -154 358 -176 q 331 -84 327 -132 l 327 27 q 188 130 251 61 q 87 292 125 198 q 43 503 50 387 q 71 753 35 620 q 155 916 94 842 q 295 1039 216 990 q 465 1107 374 1088 q 638 1107 555 1126 q 788 1028 722 1089 q 887 856 854 967 q 869 789 891 821 q 812 739 846 758 q 741 717 779 720 q 677 734 703 713 q 590 818 632 793 q 511 842 548 842 q 441 821 473 842 q 382 769 408 800 q 337 701 355 738 q 311 629 319 663 q 304 524 297 579 q 332 422 311 469 q 387 342 353 376 q 464 303 422 309 q 553 323 506 297 q 648 423 600 350 q 677 463 655 449 q 727 481 699 477 q 787 480 755 486 q 845 460 818 475 q 890 424 872 446 q 909 372 907 401 q 743 111 840 199 q 543 1 646 22 l 545 -41 q 628 -56 586 -41 q 705 -98 670 -71 q 764 -165 741 -126 q 791 -251 787 -203 q 690 -476 803 -410 q 354 -503 578 -543 m 373 -304 q 369 -307 372 -304 q 373 -304 369 -304 z "},"Ĉ":{"ha":926,"x_min":37,"x_max":909,"o":"m 909 372 q 783 154 854 237 q 631 31 711 71 q 470 -6 552 -8 q 314 33 388 -4 q 180 138 240 71 q 85 300 121 206 q 43 508 49 393 q 71 753 37 623 q 155 916 94 842 q 295 1039 216 990 q 465 1107 374 1088 q 638 1107 555 1126 q 788 1028 722 1089 q 887 856 854 967 q 869 789 891 821 q 812 739 846 758 q 741 717 779 720 q 677 734 703 713 q 590 818 632 793 q 511 842 548 842 q 441 821 473 842 q 382 769 408 800 q 337 701 355 738 q 311 629 319 663 q 304 524 297 579 q 332 422 311 469 q 387 342 353 376 q 464 303 422 309 q 553 323 506 297 q 648 423 600 350 q 677 463 655 449 q 727 481 699 477 q 787 480 755 486 q 845 460 818 475 q 890 424 872 446 q 909 372 907 401 m 690 1256 q 693 1233 696 1251 q 680 1196 690 1215 q 654 1157 670 1176 q 617 1129 637 1138 q 572 1125 597 1120 q 522 1157 548 1130 l 467 1256 l 401 1145 q 353 1127 382 1127 q 296 1141 324 1127 q 243 1181 267 1154 q 210 1245 220 1208 l 359 1462 q 408 1498 377 1488 q 470 1506 438 1508 q 529 1492 502 1504 q 568 1462 556 1480 l 690 1256 z "},"Ċ":{"ha":926,"x_min":37,"x_max":909,"o":"m 909 372 q 783 154 854 237 q 631 31 711 71 q 470 -6 552 -8 q 314 33 388 -4 q 180 138 240 71 q 85 300 121 206 q 43 508 49 393 q 71 753 37 623 q 155 916 94 842 q 295 1039 216 990 q 465 1107 374 1088 q 638 1107 555 1126 q 788 1028 722 1089 q 887 856 854 967 q 869 789 891 821 q 812 739 846 758 q 741 717 779 720 q 677 734 703 713 q 590 818 632 793 q 511 842 548 842 q 441 821 473 842 q 382 769 408 800 q 337 701 355 738 q 311 629 319 663 q 304 524 297 579 q 332 422 311 469 q 387 342 353 376 q 464 303 422 309 q 553 323 506 297 q 648 423 600 350 q 677 463 655 449 q 727 481 699 477 q 787 480 755 486 q 845 460 818 475 q 890 424 872 446 q 909 372 907 401 m 461 1141 q 391 1159 419 1141 q 349 1204 363 1177 q 334 1263 335 1232 q 347 1323 334 1295 q 389 1371 361 1351 q 461 1396 418 1392 q 533 1376 505 1394 q 575 1330 562 1358 q 587 1270 589 1302 q 572 1208 586 1237 q 530 1161 557 1180 q 461 1141 502 1142 z "},"Ď":{"ha":825,"x_min":35,"x_max":814,"o":"m 35 1076 q 207 1105 117 1107 q 385 1073 297 1103 q 552 989 473 1043 q 690 863 631 935 q 781 703 749 791 q 808 519 814 616 q 762 326 802 410 q 659 181 722 241 q 519 83 597 121 q 358 26 441 45 q 195 5 275 7 q 47 18 114 4 l 35 1076 m 293 289 q 395 303 349 285 q 475 353 441 321 q 529 429 509 385 q 555 519 549 472 q 505 689 566 621 q 293 783 444 757 l 293 289 m 518 1166 q 479 1137 506 1149 q 420 1122 452 1124 q 357 1130 388 1120 q 309 1166 327 1139 l 160 1383 q 193 1447 170 1420 q 245 1488 217 1474 q 303 1501 274 1501 q 351 1484 332 1501 l 416 1373 l 472 1472 q 522 1503 498 1499 q 567 1499 547 1508 q 604 1472 587 1491 q 630 1433 620 1453 q 643 1396 640 1413 q 640 1373 646 1378 l 518 1166 z "},"Đ":{"ha":825,"x_min":-46,"x_max":814,"o":"m 42 450 l 26 450 q -17 470 -1 452 q -39 515 -33 488 q -43 571 -46 541 q -33 627 -41 601 q -10 669 -24 652 q 22 686 4 686 l 39 686 l 35 1076 q 207 1105 117 1107 q 385 1073 297 1103 q 552 989 473 1043 q 690 863 631 935 q 781 703 749 791 q 808 519 814 616 q 762 326 802 410 q 659 181 722 241 q 519 83 597 121 q 358 26 441 45 q 195 5 275 7 q 47 18 114 4 l 42 450 m 293 453 l 293 289 q 395 303 349 285 q 475 353 441 321 q 529 429 509 385 q 555 519 549 472 q 505 689 566 621 q 293 783 444 757 l 293 690 l 373 692 q 414 648 401 684 q 424 571 426 612 q 409 496 422 530 q 376 454 396 461 l 293 453 z "},"É":{"ha":751,"x_min":26,"x_max":724,"o":"m 26 1101 l 693 1109 q 716 1063 708 1097 q 720 989 724 1028 q 698 917 716 951 q 643 873 680 883 l 282 868 l 296 728 l 526 722 q 549 690 540 716 q 561 631 559 663 q 557 567 563 598 q 537 519 552 536 l 283 511 l 289 301 l 675 304 q 709 227 703 267 q 711 151 716 187 q 691 83 705 114 q 661 31 677 52 l 26 19 l 26 1101 m 370 1457 q 418 1482 389 1478 q 475 1474 448 1487 q 522 1436 502 1462 q 541 1373 541 1411 l 397 1146 q 338 1126 370 1120 q 281 1153 307 1131 q 245 1203 256 1175 q 248 1251 233 1232 l 370 1457 z "},"Ĕ":{"ha":751,"x_min":26,"x_max":724,"o":"m 26 1101 l 693 1109 q 716 1063 708 1097 q 720 989 724 1028 q 698 917 716 951 q 643 873 680 883 l 282 868 l 296 728 l 526 722 q 549 690 540 716 q 561 631 559 663 q 557 567 563 598 q 537 519 552 536 l 283 511 l 289 301 l 675 304 q 709 227 703 267 q 711 151 716 187 q 691 83 705 114 q 661 31 677 52 l 26 19 l 26 1101 m 109 1322 q 115 1360 104 1336 q 147 1402 126 1383 q 197 1427 168 1421 q 256 1409 225 1432 q 297 1347 264 1371 q 370 1320 330 1322 q 449 1341 410 1317 q 510 1421 488 1364 q 564 1430 537 1432 q 610 1413 590 1427 q 640 1377 629 1400 q 650 1326 651 1355 q 588 1213 631 1257 q 490 1148 545 1169 q 373 1129 434 1127 q 258 1154 312 1131 q 163 1219 203 1176 q 109 1322 122 1261 z "},"Ě":{"ha":751,"x_min":26,"x_max":724,"o":"m 26 1101 l 693 1109 q 716 1063 708 1097 q 720 989 724 1028 q 698 917 716 951 q 643 873 680 883 l 282 868 l 296 728 l 526 722 q 549 690 540 716 q 561 631 559 663 q 557 567 563 598 q 537 519 552 536 l 283 511 l 289 301 l 675 304 q 709 227 703 267 q 711 151 716 187 q 691 83 705 114 q 661 31 677 52 l 26 19 l 26 1101 m 481 1166 q 442 1137 469 1149 q 383 1122 415 1124 q 321 1130 351 1120 q 273 1166 290 1139 l 123 1383 q 157 1447 133 1420 q 209 1488 180 1474 q 267 1501 237 1501 q 315 1484 296 1501 l 380 1373 l 435 1472 q 486 1503 461 1499 q 530 1499 510 1508 q 567 1472 551 1491 q 593 1433 583 1453 q 606 1396 604 1413 q 604 1373 609 1378 l 481 1166 z "},"Ë":{"ha":751,"x_min":26,"x_max":724,"o":"m 26 1101 l 693 1109 q 716 1063 708 1097 q 720 989 724 1028 q 698 917 716 951 q 643 873 680 883 l 282 868 l 296 728 l 526 722 q 549 690 540 716 q 561 631 559 663 q 557 567 563 598 q 537 519 552 536 l 283 511 l 289 301 l 675 304 q 709 227 703 267 q 711 151 716 187 q 691 83 705 114 q 661 31 677 52 l 26 19 l 26 1101 m 210 1142 q 140 1160 168 1142 q 98 1206 113 1179 q 83 1265 84 1233 q 96 1324 83 1297 q 138 1373 110 1352 q 210 1397 167 1393 q 282 1377 254 1396 q 324 1331 311 1359 q 336 1271 338 1303 q 321 1210 335 1238 q 279 1162 307 1181 q 210 1142 251 1143 m 538 1142 q 469 1160 496 1142 q 427 1206 441 1179 q 412 1265 412 1233 q 425 1324 411 1297 q 467 1373 438 1352 q 538 1397 495 1393 q 610 1377 582 1396 q 652 1331 639 1359 q 665 1271 666 1303 q 649 1210 663 1238 q 607 1162 635 1181 q 538 1142 579 1143 z "},"Ê":{"ha":751,"x_min":26,"x_max":724,"o":"m 26 1101 l 693 1109 q 716 1063 708 1097 q 720 989 724 1028 q 698 917 716 951 q 643 873 680 883 l 282 868 l 296 728 l 526 722 q 549 690 540 716 q 561 631 559 663 q 557 567 563 598 q 537 519 552 536 l 283 511 l 289 301 l 675 304 q 709 227 703 267 q 711 151 716 187 q 691 83 705 114 q 661 31 677 52 l 26 19 l 26 1101 m 604 1256 q 606 1233 609 1251 q 593 1196 604 1215 q 567 1157 583 1176 q 530 1129 551 1138 q 486 1125 510 1120 q 435 1157 461 1130 l 380 1256 l 315 1145 q 267 1127 296 1127 q 209 1141 237 1127 q 157 1181 180 1154 q 123 1245 133 1208 l 273 1462 q 321 1498 290 1488 q 383 1506 351 1508 q 442 1492 415 1504 q 481 1462 469 1480 l 604 1256 z "},"Ē":{"ha":751,"x_min":26,"x_max":724,"o":"m 26 1101 l 693 1109 q 716 1063 708 1097 q 720 989 724 1028 q 698 917 716 951 q 643 873 680 883 l 282 868 l 296 728 l 526 722 q 549 690 540 716 q 561 631 559 663 q 557 567 563 598 q 537 519 552 536 l 283 511 l 289 301 l 675 304 q 709 227 703 267 q 711 151 716 187 q 691 83 705 114 q 661 31 677 52 l 26 19 l 26 1101 m 217 1137 q 174 1156 190 1138 q 152 1201 159 1175 q 148 1257 145 1227 q 159 1313 151 1287 q 181 1356 167 1339 q 213 1373 195 1373 l 564 1378 q 605 1334 593 1370 q 615 1257 617 1298 q 600 1182 613 1217 q 567 1141 587 1147 l 217 1137 z "},"Ė":{"ha":751,"x_min":26,"x_max":724,"o":"m 26 1101 l 693 1109 q 716 1063 708 1097 q 720 989 724 1028 q 698 917 716 951 q 643 873 680 883 l 282 868 l 296 728 l 526 722 q 549 690 540 716 q 561 631 559 663 q 557 567 563 598 q 537 519 552 536 l 283 511 l 289 301 l 675 304 q 709 227 703 267 q 711 151 716 187 q 691 83 705 114 q 661 31 677 52 l 26 19 l 26 1101 m 374 1141 q 304 1159 332 1141 q 262 1204 277 1177 q 248 1263 248 1232 q 260 1323 247 1295 q 302 1371 274 1351 q 374 1396 331 1392 q 446 1376 418 1394 q 488 1330 475 1358 q 500 1270 502 1302 q 485 1208 499 1237 q 443 1161 471 1180 q 374 1141 415 1142 z "},"È":{"ha":751,"x_min":26,"x_max":724,"o":"m 26 1101 l 693 1109 q 716 1063 708 1097 q 720 989 724 1028 q 698 917 716 951 q 643 873 680 883 l 282 868 l 296 728 l 526 722 q 549 690 540 716 q 561 631 559 663 q 557 567 563 598 q 537 519 552 536 l 283 511 l 289 301 l 675 304 q 709 227 703 267 q 711 151 716 187 q 691 83 705 114 q 661 31 677 52 l 26 19 l 26 1101 m 503 1251 q 507 1203 518 1232 q 470 1153 495 1175 q 412 1126 445 1131 q 354 1146 380 1120 l 210 1373 q 229 1436 210 1411 q 276 1474 248 1462 q 333 1482 304 1487 q 381 1457 362 1478 l 503 1251 z "},"Ę":{"ha":751,"x_min":26,"x_max":724,"o":"m 26 1101 l 693 1109 q 716 1063 708 1097 q 720 989 724 1028 q 698 917 716 951 q 643 873 680 883 l 282 868 l 296 728 l 526 722 q 549 690 540 716 q 561 631 559 663 q 557 567 563 598 q 537 519 552 536 l 283 511 l 289 301 l 675 304 q 709 227 703 267 q 711 151 716 187 q 691 83 705 114 q 661 31 677 52 l 578 30 q 555 -22 559 14 q 561 -93 552 -57 q 589 -155 570 -129 q 639 -180 609 -182 q 683 -189 665 -176 q 707 -221 701 -201 q 703 -265 713 -241 q 659 -307 692 -289 q 526 -289 576 -319 q 454 -208 475 -259 q 442 -92 434 -156 q 484 27 450 -28 l 26 19 l 26 1101 z "},"Ğ":{"ha":918,"x_min":28,"x_max":903,"o":"m 891 608 l 903 45 q 866 14 895 26 q 800 0 837 3 q 728 4 764 -3 q 673 31 692 11 l 673 126 q 479 18 568 43 q 317 9 389 -8 q 191 79 245 26 q 100 208 136 132 q 46 377 64 285 q 31 564 28 469 q 55 751 33 659 q 121 916 77 842 q 229 1040 164 990 q 381 1101 293 1089 q 494 1105 439 1109 q 593 1087 548 1100 q 675 1054 639 1074 q 734 1009 711 1034 q 745 978 742 1000 q 747 928 749 956 q 736 872 745 901 q 713 822 727 844 q 676 789 699 800 q 625 787 654 779 q 479 802 538 810 q 381 764 419 793 q 323 691 343 735 q 296 600 304 647 q 291 510 289 553 q 297 437 293 467 q 342 331 307 373 q 423 276 377 289 q 520 284 469 263 q 612 368 571 305 l 515 358 q 457 372 479 355 q 425 414 435 388 q 413 473 414 441 q 418 534 412 505 q 435 585 425 563 q 461 613 446 606 l 891 608 m 191 1322 q 198 1360 187 1336 q 230 1402 209 1383 q 279 1427 251 1421 q 339 1409 308 1432 q 380 1347 347 1371 q 452 1320 412 1322 q 532 1341 492 1317 q 593 1421 571 1364 q 646 1430 620 1432 q 692 1413 673 1427 q 723 1377 712 1400 q 732 1326 734 1355 q 671 1213 713 1257 q 572 1148 628 1169 q 456 1129 517 1127 q 340 1154 395 1131 q 245 1219 286 1176 q 191 1322 205 1261 z "},"Ĝ":{"ha":918,"x_min":28,"x_max":903,"o":"m 891 608 l 903 45 q 866 14 895 26 q 800 0 837 3 q 728 4 764 -3 q 673 31 692 11 l 673 126 q 479 18 568 43 q 317 9 389 -8 q 191 79 245 26 q 100 208 136 132 q 46 377 64 285 q 31 564 28 469 q 55 751 33 659 q 121 916 77 842 q 229 1040 164 990 q 381 1101 293 1089 q 494 1105 439 1109 q 593 1087 548 1100 q 675 1054 639 1074 q 734 1009 711 1034 q 745 978 742 1000 q 747 928 749 956 q 736 872 745 901 q 713 822 727 844 q 676 789 699 800 q 625 787 654 779 q 479 802 538 810 q 381 764 419 793 q 323 691 343 735 q 296 600 304 647 q 291 510 289 553 q 297 437 293 467 q 342 331 307 373 q 423 276 377 289 q 520 284 469 263 q 612 368 571 305 l 515 358 q 457 372 479 355 q 425 414 435 388 q 413 473 414 441 q 418 534 412 505 q 435 585 425 563 q 461 613 446 606 l 891 608 m 686 1256 q 689 1233 692 1251 q 676 1196 686 1215 q 650 1157 666 1176 q 613 1129 633 1138 q 568 1125 593 1120 q 518 1157 544 1130 l 463 1256 l 397 1145 q 349 1127 378 1127 q 292 1141 320 1127 q 239 1181 263 1154 q 206 1245 216 1208 l 355 1462 q 404 1498 373 1488 q 466 1506 434 1508 q 525 1492 498 1504 q 564 1462 552 1480 l 686 1256 z "},"Ģ":{"ha":918,"x_min":28,"x_max":903,"o":"m 891 608 l 903 45 q 866 14 895 26 q 800 0 837 3 q 728 4 764 -3 q 673 31 692 11 l 673 126 q 479 18 568 43 q 317 9 389 -8 q 191 79 245 26 q 100 208 136 132 q 46 377 64 285 q 31 564 28 469 q 55 751 33 659 q 121 916 77 842 q 229 1040 164 990 q 381 1101 293 1089 q 494 1105 439 1109 q 593 1087 548 1100 q 675 1054 639 1074 q 734 1009 711 1034 q 745 978 742 1000 q 747 928 749 956 q 736 872 745 901 q 713 822 727 844 q 676 789 699 800 q 625 787 654 779 q 479 802 538 810 q 381 764 419 793 q 323 691 343 735 q 296 600 304 647 q 291 510 289 553 q 297 437 293 467 q 342 331 307 373 q 423 276 377 289 q 520 284 469 263 q 612 368 571 305 l 515 358 q 457 372 479 355 q 425 414 435 388 q 413 473 414 441 q 418 534 412 505 q 435 585 425 563 q 461 613 446 606 l 891 608 m 378 -388 q 397 -375 382 -385 q 427 -347 412 -365 q 452 -307 442 -330 q 454 -258 461 -285 q 364 -249 396 -273 q 326 -187 332 -225 q 338 -107 320 -149 q 400 -41 357 -65 q 462 -26 429 -24 q 525 -47 495 -28 q 578 -98 555 -65 q 613 -176 602 -132 q 602 -278 620 -229 q 549 -359 583 -327 q 469 -401 514 -391 q 378 -388 425 -411 z "},"Ġ":{"ha":918,"x_min":28,"x_max":903,"o":"m 891 608 l 903 45 q 866 14 895 26 q 800 0 837 3 q 728 4 764 -3 q 673 31 692 11 l 673 126 q 479 18 568 43 q 317 9 389 -8 q 191 79 245 26 q 100 208 136 132 q 46 377 64 285 q 31 564 28 469 q 55 751 33 659 q 121 916 77 842 q 229 1040 164 990 q 381 1101 293 1089 q 494 1105 439 1109 q 593 1087 548 1100 q 675 1054 639 1074 q 734 1009 711 1034 q 745 978 742 1000 q 747 928 749 956 q 736 872 745 901 q 713 822 727 844 q 676 789 699 800 q 625 787 654 779 q 479 802 538 810 q 381 764 419 793 q 323 691 343 735 q 296 600 304 647 q 291 510 289 553 q 297 437 293 467 q 342 331 307 373 q 423 276 377 289 q 520 284 469 263 q 612 368 571 305 l 515 358 q 457 372 479 355 q 425 414 435 388 q 413 473 414 441 q 418 534 412 505 q 435 585 425 563 q 461 613 446 606 l 891 608 m 457 1141 q 387 1159 415 1141 q 345 1204 359 1177 q 330 1263 331 1232 q 343 1323 330 1295 q 385 1371 357 1351 q 457 1396 414 1392 q 529 1376 500 1394 q 571 1330 557 1358 q 583 1270 585 1302 q 568 1208 582 1237 q 526 1161 553 1180 q 457 1141 498 1142 z "},"Ħ":{"ha":848,"x_min":35,"x_max":818,"o":"m 35 1044 q 66 1079 41 1065 q 126 1101 91 1093 q 203 1108 161 1108 q 281 1101 244 1108 q 344 1079 317 1093 q 378 1043 370 1065 l 380 933 l 491 935 l 492 1058 q 532 1088 503 1076 q 596 1107 560 1101 q 671 1112 632 1114 q 743 1100 711 1109 q 797 1072 776 1090 q 817 1027 818 1054 l 815 50 q 743 12 792 23 q 640 3 693 1 q 543 14 587 4 q 484 39 498 24 l 480 389 l 385 389 l 372 47 q 346 34 368 42 q 294 18 324 26 q 226 6 263 11 q 153 3 189 1 q 87 14 118 4 q 39 43 57 23 l 35 1044 m 487 628 l 488 711 l 384 709 l 385 631 l 487 628 z "},"Ĥ":{"ha":848,"x_min":35,"x_max":818,"o":"m 35 1044 q 64 1079 41 1065 q 123 1101 88 1093 q 197 1108 157 1108 q 273 1101 237 1108 q 334 1079 308 1093 q 368 1043 359 1065 l 374 631 l 505 628 l 510 1058 q 548 1088 521 1076 q 609 1107 575 1101 q 680 1112 643 1114 q 748 1100 718 1109 q 798 1072 779 1090 q 817 1027 818 1054 l 815 50 q 745 12 792 23 q 649 3 699 1 q 557 14 600 4 q 502 39 515 24 l 498 389 l 374 389 l 361 47 q 336 34 357 42 q 285 18 315 26 q 220 6 255 11 q 151 3 184 1 q 87 14 117 4 q 39 43 57 23 l 35 1044 m 651 1256 q 654 1233 656 1251 q 641 1196 651 1215 q 614 1157 631 1176 q 578 1129 598 1138 q 533 1125 557 1120 q 483 1157 509 1130 l 427 1256 l 362 1145 q 314 1127 343 1127 q 256 1141 285 1127 q 204 1181 228 1154 q 171 1245 180 1208 l 320 1462 q 368 1498 338 1488 q 431 1506 399 1508 q 490 1492 463 1504 q 529 1462 517 1480 l 651 1256 z "},"Í":{"ha":712,"x_min":15,"x_max":704,"o":"m 90 12 q 46 56 60 28 q 29 116 33 84 q 31 180 26 148 q 43 240 35 213 q 60 285 52 267 q 71 305 68 302 l 221 312 l 222 838 l 79 838 q 48 878 66 844 q 22 956 30 911 q 28 1042 15 1000 q 92 1108 41 1085 l 633 1105 q 668 1053 654 1082 q 685 988 682 1023 q 676 916 688 954 q 633 838 665 878 l 475 841 l 480 311 l 661 311 q 680 269 667 304 q 699 187 693 233 q 695 94 704 141 q 651 14 686 46 l 90 12 m 350 1457 q 398 1482 369 1478 q 454 1474 427 1487 q 501 1436 481 1462 q 521 1373 521 1411 l 377 1146 q 318 1126 350 1120 q 261 1153 286 1131 q 224 1203 236 1175 q 228 1251 213 1232 l 350 1457 z "},"Ĭ":{"ha":712,"x_min":15,"x_max":704,"o":"m 90 12 q 46 56 60 28 q 29 116 33 84 q 31 180 26 148 q 43 240 35 213 q 60 285 52 267 q 71 305 68 302 l 221 312 l 222 838 l 79 838 q 48 878 66 844 q 22 956 30 911 q 28 1042 15 1000 q 92 1108 41 1085 l 633 1105 q 668 1053 654 1082 q 685 988 682 1023 q 676 916 688 954 q 633 838 665 878 l 475 841 l 480 311 l 661 311 q 680 269 667 304 q 699 187 693 233 q 695 94 704 141 q 651 14 686 46 l 90 12 m 88 1322 q 95 1360 84 1336 q 127 1402 106 1383 q 176 1427 148 1421 q 236 1409 205 1432 q 277 1347 244 1371 q 349 1320 309 1322 q 429 1341 389 1317 q 490 1421 468 1364 q 543 1430 517 1432 q 589 1413 570 1427 q 620 1377 609 1400 q 629 1326 631 1355 q 568 1213 610 1257 q 469 1148 525 1169 q 353 1129 414 1127 q 237 1154 292 1131 q 142 1219 183 1176 q 88 1322 102 1261 z "},"Î":{"ha":712,"x_min":15,"x_max":704,"o":"m 90 12 q 46 56 60 28 q 29 116 33 84 q 31 180 26 148 q 43 240 35 213 q 60 285 52 267 q 71 305 68 302 l 221 312 l 222 838 l 79 838 q 48 878 66 844 q 22 956 30 911 q 28 1042 15 1000 q 92 1108 41 1085 l 633 1105 q 668 1053 654 1082 q 685 988 682 1023 q 676 916 688 954 q 633 838 665 878 l 475 841 l 480 311 l 661 311 q 680 269 667 304 q 699 187 693 233 q 695 94 704 141 q 651 14 686 46 l 90 12 m 583 1256 q 586 1233 589 1251 q 573 1196 583 1215 q 547 1157 563 1176 q 510 1129 530 1138 q 465 1125 490 1120 q 415 1157 441 1130 l 359 1256 l 294 1145 q 246 1127 275 1127 q 189 1141 217 1127 q 136 1181 160 1154 q 103 1245 113 1208 l 252 1462 q 300 1498 270 1488 q 363 1506 331 1508 q 422 1492 395 1504 q 461 1462 449 1480 l 583 1256 z "},"Ï":{"ha":712,"x_min":15,"x_max":704,"o":"m 90 12 q 46 56 60 28 q 29 116 33 84 q 31 180 26 148 q 43 240 35 213 q 60 285 52 267 q 71 305 68 302 l 221 312 l 222 838 l 79 838 q 48 878 66 844 q 22 956 30 911 q 28 1042 15 1000 q 92 1108 41 1085 l 633 1105 q 668 1053 654 1082 q 685 988 682 1023 q 676 916 688 954 q 633 838 665 878 l 475 841 l 480 311 l 661 311 q 680 269 667 304 q 699 187 693 233 q 695 94 704 141 q 651 14 686 46 l 90 12 m 190 1142 q 120 1160 148 1142 q 78 1206 92 1179 q 63 1265 64 1233 q 76 1324 62 1297 q 118 1373 90 1352 q 190 1397 146 1393 q 262 1377 233 1396 q 304 1331 290 1359 q 316 1271 317 1303 q 300 1210 315 1238 q 258 1162 286 1181 q 190 1142 231 1143 m 518 1142 q 448 1160 476 1142 q 406 1206 420 1179 q 391 1265 392 1233 q 404 1324 391 1297 q 446 1373 418 1352 q 518 1397 475 1393 q 590 1377 562 1396 q 632 1331 618 1359 q 644 1271 646 1303 q 629 1210 643 1238 q 587 1162 614 1181 q 518 1142 559 1143 z "},"İ":{"ha":712,"x_min":15,"x_max":704,"o":"m 90 12 q 46 56 60 28 q 29 116 33 84 q 31 180 26 148 q 43 240 35 213 q 60 285 52 267 q 71 305 68 302 l 221 312 l 222 838 l 79 838 q 48 878 66 844 q 22 956 30 911 q 28 1042 15 1000 q 92 1108 41 1085 l 633 1105 q 668 1053 654 1082 q 685 988 682 1023 q 676 916 688 954 q 633 838 665 878 l 475 841 l 480 311 l 661 311 q 680 269 667 304 q 699 187 693 233 q 695 94 704 141 q 651 14 686 46 l 90 12 m 354 1141 q 284 1159 312 1141 q 242 1204 256 1177 q 227 1263 228 1232 q 240 1323 227 1295 q 282 1371 254 1351 q 354 1396 311 1392 q 426 1376 397 1394 q 468 1330 454 1358 q 480 1270 481 1302 q 465 1208 479 1237 q 422 1161 450 1180 q 354 1141 395 1142 z "},"Ì":{"ha":712,"x_min":15,"x_max":704,"o":"m 90 12 q 46 56 60 28 q 29 116 33 84 q 31 180 26 148 q 43 240 35 213 q 60 285 52 267 q 71 305 68 302 l 221 312 l 222 838 l 79 838 q 48 878 66 844 q 22 956 30 911 q 28 1042 15 1000 q 92 1108 41 1085 l 633 1105 q 668 1053 654 1082 q 685 988 682 1023 q 676 916 688 954 q 633 838 665 878 l 475 841 l 480 311 l 661 311 q 680 269 667 304 q 699 187 693 233 q 695 94 704 141 q 651 14 686 46 l 90 12 m 483 1251 q 486 1203 498 1232 q 450 1153 475 1175 q 392 1126 425 1131 q 334 1146 359 1120 l 190 1373 q 209 1436 190 1411 q 256 1474 228 1462 q 313 1482 283 1487 q 361 1457 342 1478 l 483 1251 z "},"Ī":{"ha":712,"x_min":15,"x_max":704,"o":"m 90 12 q 46 56 60 28 q 29 116 33 84 q 31 180 26 148 q 43 240 35 213 q 60 285 52 267 q 71 305 68 302 l 221 312 l 222 838 l 79 838 q 48 878 66 844 q 22 956 30 911 q 28 1042 15 1000 q 92 1108 41 1085 l 633 1105 q 668 1053 654 1082 q 685 988 682 1023 q 676 916 688 954 q 633 838 665 878 l 475 841 l 480 311 l 661 311 q 680 269 667 304 q 699 187 693 233 q 695 94 704 141 q 651 14 686 46 l 90 12 m 198 1137 q 155 1156 171 1138 q 133 1201 140 1175 q 129 1257 126 1227 q 140 1313 132 1287 q 162 1356 148 1339 q 194 1373 176 1373 l 545 1378 q 586 1334 574 1370 q 596 1257 598 1298 q 581 1182 594 1217 q 548 1141 568 1147 l 198 1137 z "},"Į":{"ha":712,"x_min":15,"x_max":712,"o":"m 637 -180 q 682 -189 663 -176 q 706 -221 700 -201 q 701 -265 712 -241 q 658 -307 690 -289 q 528 -291 578 -319 q 456 -214 479 -263 q 439 -104 434 -165 q 473 12 444 -43 l 90 12 q 46 56 60 28 q 29 116 33 84 q 31 180 26 148 q 43 240 35 213 q 60 285 52 267 q 71 305 68 302 l 221 312 l 222 838 l 79 838 q 48 878 66 844 q 22 956 30 911 q 28 1042 15 1000 q 92 1108 41 1085 l 633 1105 q 668 1053 654 1082 q 685 988 682 1023 q 676 916 688 954 q 633 838 665 878 l 475 841 l 480 311 l 661 311 q 680 269 667 304 q 699 187 693 233 q 695 94 704 141 q 651 14 686 46 l 564 14 q 553 -43 553 -9 q 564 -107 553 -76 q 592 -160 574 -138 q 637 -180 610 -182 z "},"Ĩ":{"ha":712,"x_min":15,"x_max":705,"o":"m 90 12 q 46 56 60 28 q 29 116 33 84 q 31 180 26 148 q 43 240 35 213 q 60 285 52 267 q 71 305 68 302 l 221 312 l 222 838 l 79 838 q 48 878 66 844 q 22 956 30 911 q 28 1042 15 1000 q 92 1108 41 1085 l 633 1105 q 668 1053 654 1082 q 685 988 682 1023 q 676 916 688 954 q 633 838 665 878 l 475 841 l 480 311 l 661 311 q 680 269 667 304 q 699 187 693 233 q 695 94 704 141 q 651 14 686 46 l 90 12 m 149 1160 q 96 1141 122 1128 q 51 1183 69 1153 q 26 1252 33 1214 q 31 1313 19 1290 q 60 1370 35 1335 q 116 1436 84 1405 q 182 1487 148 1468 q 239 1497 216 1507 q 299 1478 275 1497 q 342 1437 323 1459 q 380 1396 362 1415 q 425 1378 399 1378 q 471 1391 453 1378 q 499 1423 488 1404 q 515 1464 510 1442 q 524 1506 519 1487 q 572 1526 540 1530 q 634 1502 604 1522 q 685 1454 665 1482 q 700 1401 705 1426 q 659 1303 688 1345 q 597 1232 629 1261 q 533 1185 564 1203 q 486 1160 502 1168 q 416 1169 446 1153 q 359 1206 385 1185 q 309 1244 332 1226 q 263 1259 286 1261 q 204 1241 232 1264 q 149 1160 176 1218 z "},"Ĵ":{"ha":677,"x_min":19,"x_max":821,"o":"m 296 0 q 155 32 209 0 q 70 115 100 64 q 29 229 39 167 q 20 354 19 292 q 31 470 22 416 q 47 556 39 524 q 111 587 79 579 q 170 592 142 594 q 217 581 197 590 q 244 564 237 572 q 241 506 244 540 q 237 437 239 472 q 237 368 236 401 q 245 311 239 335 q 267 276 252 288 q 307 273 281 264 q 344 305 328 273 q 368 389 359 338 q 378 505 377 441 q 374 633 380 570 q 354 755 368 697 q 320 852 340 812 l 195 848 q 158 875 182 849 q 121 939 134 901 q 116 1020 109 977 q 171 1099 123 1063 l 754 1107 q 804 1069 788 1100 q 820 999 821 1039 q 801 919 819 959 q 746 854 783 879 l 609 848 q 618 690 612 780 q 623 507 624 601 q 608 321 621 412 q 560 159 595 231 q 461 44 525 88 q 296 0 397 0 m 688 1265 q 690 1242 693 1260 q 677 1205 688 1225 q 651 1166 667 1185 q 614 1139 635 1147 q 570 1135 594 1130 q 519 1166 545 1139 l 464 1265 l 399 1154 q 351 1137 380 1137 q 293 1150 321 1137 q 241 1191 264 1164 q 208 1255 217 1218 l 357 1472 q 405 1508 374 1497 q 467 1516 435 1518 q 526 1501 499 1514 q 566 1472 553 1489 l 688 1265 z "},"Ķ":{"ha":812,"x_min":33,"x_max":802,"o":"m 41 1044 q 96 1094 61 1077 q 170 1114 132 1111 q 248 1109 209 1118 q 316 1081 288 1100 l 305 757 l 590 1072 q 686 1101 647 1101 q 748 1085 724 1101 q 783 1041 772 1069 q 798 985 795 1013 q 800 935 802 958 q 793 907 798 913 l 456 551 l 783 164 q 770 94 787 122 q 727 46 754 65 q 667 18 700 27 q 604 7 633 9 q 553 9 575 5 q 529 22 532 14 l 294 334 l 317 26 q 282 11 305 19 q 229 -3 259 3 q 168 -9 199 -8 q 108 -3 136 -9 q 60 19 80 4 q 33 62 39 34 l 41 1044 m 326 -388 q 345 -375 330 -385 q 374 -347 359 -365 q 399 -307 389 -330 q 401 -258 408 -285 q 311 -249 343 -273 q 273 -187 279 -225 q 286 -107 267 -149 q 347 -41 304 -65 q 409 -26 376 -24 q 472 -47 442 -28 q 526 -98 502 -65 q 560 -176 549 -132 q 549 -278 567 -229 q 496 -359 530 -327 q 416 -401 461 -391 q 326 -388 372 -411 z "},"Ĺ":{"ha":728,"x_min":37,"x_max":711,"o":"m 43 3 q 41 103 42 34 q 39 264 39 172 q 37 465 38 357 q 37 682 37 574 q 37 890 37 789 q 37 1070 37 991 q 100 1108 54 1095 q 197 1122 145 1122 q 294 1110 248 1123 q 357 1070 339 1097 l 339 321 l 674 328 q 701 263 692 308 q 710 169 711 218 q 696 77 709 119 q 654 19 682 34 l 43 3 m 358 1457 q 406 1482 377 1478 q 463 1474 435 1487 q 509 1436 490 1462 q 529 1373 529 1411 l 385 1146 q 326 1126 358 1120 q 269 1153 294 1131 q 233 1203 244 1175 q 236 1251 221 1232 l 358 1457 z "},"Ľ":{"ha":728,"x_min":37,"x_max":753,"o":"m 43 3 q 41 103 42 34 q 39 264 39 172 q 37 465 38 357 q 37 682 37 574 q 37 890 37 789 q 37 1070 37 991 q 100 1108 54 1095 q 197 1122 145 1122 q 294 1110 248 1123 q 357 1070 339 1097 l 339 321 l 674 328 q 701 263 692 308 q 710 169 711 218 q 696 77 709 119 q 654 19 682 34 l 43 3 m 456 655 q 480 671 461 658 q 517 705 499 684 q 547 753 536 726 q 551 815 559 781 q 470 812 503 803 q 417 845 437 822 q 393 901 397 868 q 396 966 388 933 q 426 1030 404 1000 q 483 1081 448 1061 q 559 1099 518 1101 q 637 1074 600 1096 q 703 1010 674 1051 q 745 914 732 970 q 730 789 753 849 q 666 690 708 730 q 568 639 624 651 q 456 655 513 627 z "},"Ļ":{"ha":728,"x_min":37,"x_max":711,"o":"m 43 3 q 41 103 42 34 q 39 264 39 172 q 37 465 38 357 q 37 682 37 574 q 37 890 37 789 q 37 1070 37 991 q 100 1108 54 1095 q 197 1122 145 1122 q 294 1110 248 1123 q 357 1070 339 1097 l 339 321 l 674 328 q 701 263 692 308 q 710 169 711 218 q 696 77 709 119 q 654 19 682 34 l 43 3 m 283 -388 q 302 -375 288 -385 q 332 -347 317 -365 q 357 -307 347 -330 q 359 -258 366 -285 q 269 -249 301 -273 q 231 -187 237 -225 q 243 -107 225 -149 q 305 -41 262 -65 q 367 -26 334 -24 q 430 -47 400 -28 q 484 -98 460 -65 q 518 -176 507 -132 q 507 -278 525 -229 q 454 -359 488 -327 q 374 -401 419 -391 q 283 -388 330 -411 z "},"Ŀ":{"ha":728,"x_min":37,"x_max":711,"o":"m 43 3 q 41 103 42 34 q 39 264 39 172 q 37 465 38 357 q 37 682 37 574 q 37 890 37 789 q 37 1070 37 991 q 100 1108 54 1095 q 197 1122 145 1122 q 294 1110 248 1123 q 357 1070 339 1097 l 339 321 l 674 328 q 701 263 692 308 q 710 169 711 218 q 696 77 709 119 q 654 19 682 34 l 43 3 m 528 566 q 458 584 486 566 q 416 629 430 602 q 401 688 401 656 q 414 748 400 720 q 456 796 427 776 q 528 821 484 817 q 600 801 571 819 q 642 755 628 783 q 654 694 655 727 q 638 633 652 662 q 596 586 624 605 q 528 566 568 567 z "},"Ł":{"ha":891,"x_min":11,"x_max":871,"o":"m 203 11 q 200 140 201 49 q 198 354 199 232 l 175 332 q 130 321 153 316 q 84 342 106 326 q 45 385 62 359 q 20 435 28 410 q 12 482 11 460 q 26 515 12 505 l 197 620 q 195 867 195 747 q 197 1078 195 986 q 260 1116 214 1103 q 357 1131 305 1130 q 454 1118 408 1131 q 517 1078 499 1105 l 510 796 l 585 838 q 644 829 613 849 q 698 775 674 808 q 733 707 722 742 q 732 654 745 671 l 503 525 l 499 330 l 834 336 q 861 271 852 316 q 870 177 871 227 q 856 85 869 127 q 814 27 842 42 l 203 11 z "},"Ń":{"ha":928,"x_min":22,"x_max":898,"o":"m 22 1051 q 81 1082 42 1069 q 165 1099 121 1095 q 253 1100 209 1104 q 328 1080 297 1096 l 562 506 l 544 1085 q 625 1114 572 1105 q 733 1120 678 1122 q 835 1107 788 1118 q 898 1082 882 1097 l 887 53 q 806 -1 857 12 q 705 -12 755 -14 q 613 4 654 -9 q 564 30 572 18 l 373 437 l 363 0 q 290 -17 339 -12 q 189 -20 240 -22 q 92 -9 137 -18 q 33 15 47 0 l 22 1051 m 458 1457 q 507 1482 477 1478 q 563 1474 536 1487 q 610 1436 590 1462 q 629 1373 629 1411 l 486 1146 q 427 1126 458 1120 q 370 1153 395 1131 q 333 1203 345 1175 q 336 1251 321 1232 l 458 1457 z "},"Ň":{"ha":928,"x_min":22,"x_max":898,"o":"m 22 1051 q 81 1082 42 1069 q 165 1099 121 1095 q 253 1100 209 1104 q 328 1080 297 1096 l 562 506 l 544 1085 q 625 1114 572 1105 q 733 1120 678 1122 q 835 1107 788 1118 q 898 1082 882 1097 l 887 53 q 806 -1 857 12 q 705 -12 755 -14 q 613 4 654 -9 q 564 30 572 18 l 373 437 l 363 0 q 290 -17 339 -12 q 189 -20 240 -22 q 92 -9 137 -18 q 33 15 47 0 l 22 1051 m 570 1166 q 530 1137 557 1149 q 471 1122 503 1124 q 409 1130 439 1120 q 361 1166 378 1139 l 212 1383 q 245 1447 221 1420 q 297 1488 269 1474 q 355 1501 326 1501 q 403 1484 384 1501 l 468 1373 l 524 1472 q 574 1503 549 1499 q 618 1499 598 1508 q 655 1472 639 1491 q 682 1433 671 1453 q 694 1396 692 1413 q 692 1373 697 1378 l 570 1166 z "},"Ņ":{"ha":928,"x_min":22,"x_max":898,"o":"m 22 1051 q 81 1082 42 1069 q 165 1099 121 1095 q 253 1100 209 1104 q 328 1080 297 1096 l 562 506 l 544 1085 q 625 1114 572 1105 q 733 1120 678 1122 q 835 1107 788 1118 q 898 1082 882 1097 l 887 53 q 806 -1 857 12 q 705 -12 755 -14 q 613 4 654 -9 q 564 30 572 18 l 373 437 l 363 0 q 290 -17 339 -12 q 189 -20 240 -22 q 92 -9 137 -18 q 33 15 47 0 l 22 1051 m 384 -388 q 403 -375 388 -385 q 433 -347 418 -365 q 457 -307 448 -330 q 460 -258 467 -285 q 370 -249 401 -273 q 332 -187 338 -225 q 344 -107 326 -149 q 406 -41 362 -65 q 467 -26 434 -24 q 530 -47 500 -28 q 584 -98 560 -65 q 618 -176 608 -132 q 607 -278 625 -229 q 554 -359 589 -327 q 475 -401 519 -391 q 384 -388 430 -411 z "},"Ñ":{"ha":928,"x_min":22,"x_max":898,"o":"m 22 1051 q 81 1082 42 1069 q 165 1099 121 1095 q 253 1100 209 1104 q 328 1080 297 1096 l 562 506 l 544 1085 q 625 1114 572 1105 q 733 1120 678 1122 q 835 1107 788 1118 q 898 1082 882 1097 l 887 53 q 806 -1 857 12 q 705 -12 755 -14 q 613 4 654 -9 q 564 30 572 18 l 373 437 l 363 0 q 290 -17 339 -12 q 189 -20 240 -22 q 92 -9 137 -18 q 33 15 47 0 l 22 1051 m 255 1160 q 201 1141 228 1128 q 157 1183 175 1153 q 132 1252 138 1214 q 137 1313 125 1290 q 165 1370 141 1335 q 222 1436 190 1405 q 288 1487 254 1468 q 345 1497 321 1507 q 405 1478 381 1497 q 448 1437 429 1459 q 486 1396 468 1415 q 530 1378 505 1378 q 576 1391 559 1378 q 605 1423 594 1404 q 621 1464 616 1442 q 629 1506 625 1487 q 677 1526 646 1530 q 740 1502 709 1522 q 791 1454 770 1482 q 806 1401 811 1426 q 764 1303 793 1345 q 703 1232 735 1261 q 639 1185 670 1203 q 591 1160 608 1168 q 522 1169 552 1153 q 465 1206 491 1185 q 415 1244 438 1226 q 369 1259 392 1261 q 310 1241 338 1264 q 255 1160 282 1218 z "},"Ó":{"ha":902,"x_min":34,"x_max":892,"o":"m 34 505 q 73 753 34 640 q 180 947 113 865 q 339 1073 248 1028 q 533 1118 430 1118 q 699 1072 629 1118 q 812 951 768 1027 q 874 777 856 875 q 885 576 892 678 q 845 373 878 473 q 755 192 812 273 q 615 58 697 111 q 427 -3 533 5 q 269 37 340 -3 q 144 146 197 77 q 63 307 92 214 q 34 505 34 399 m 415 286 q 492 321 460 285 q 543 412 524 357 q 568 532 562 467 q 570 656 575 598 q 548 755 566 713 q 502 807 530 798 q 439 779 468 814 q 387 687 410 743 q 353 563 365 631 q 342 435 340 495 q 361 333 343 376 q 415 286 378 290 m 445 1457 q 493 1482 464 1478 q 549 1474 522 1487 q 596 1436 576 1462 q 616 1373 616 1411 l 472 1146 q 413 1126 445 1120 q 356 1153 381 1131 q 319 1203 331 1175 q 323 1251 308 1232 l 445 1457 z "},"Ŏ":{"ha":902,"x_min":34,"x_max":892,"o":"m 34 505 q 73 753 34 640 q 180 947 113 865 q 339 1073 248 1028 q 533 1118 430 1118 q 699 1072 629 1118 q 812 951 768 1027 q 874 777 856 875 q 885 576 892 678 q 845 373 878 473 q 755 192 812 273 q 615 58 697 111 q 427 -3 533 5 q 269 37 340 -3 q 144 146 197 77 q 63 307 92 214 q 34 505 34 399 m 415 286 q 492 321 460 285 q 543 412 524 357 q 568 532 562 467 q 570 656 575 598 q 548 755 566 713 q 502 807 530 798 q 439 779 468 814 q 387 687 410 743 q 353 563 365 631 q 342 435 340 495 q 361 333 343 376 q 415 286 378 290 m 183 1322 q 190 1360 179 1336 q 222 1402 201 1383 q 271 1427 243 1421 q 331 1409 300 1432 q 372 1347 339 1371 q 444 1320 404 1322 q 524 1341 484 1317 q 585 1421 563 1364 q 638 1430 612 1432 q 684 1413 665 1427 q 715 1377 704 1400 q 724 1326 726 1355 q 663 1213 705 1257 q 564 1148 620 1169 q 448 1129 509 1127 q 332 1154 387 1131 q 237 1219 278 1176 q 183 1322 197 1261 z "},"Ô":{"ha":902,"x_min":34,"x_max":892,"o":"m 34 505 q 73 753 34 640 q 180 947 113 865 q 339 1073 248 1028 q 533 1118 430 1118 q 699 1072 629 1118 q 812 951 768 1027 q 874 777 856 875 q 885 576 892 678 q 845 373 878 473 q 755 192 812 273 q 615 58 697 111 q 427 -3 533 5 q 269 37 340 -3 q 144 146 197 77 q 63 307 92 214 q 34 505 34 399 m 415 286 q 492 321 460 285 q 543 412 524 357 q 568 532 562 467 q 570 656 575 598 q 548 755 566 713 q 502 807 530 798 q 439 779 468 814 q 387 687 410 743 q 353 563 365 631 q 342 435 340 495 q 361 333 343 376 q 415 286 378 290 m 678 1256 q 681 1233 684 1251 q 668 1196 678 1215 q 642 1157 658 1176 q 605 1129 625 1138 q 560 1125 585 1120 q 510 1157 536 1130 l 454 1256 l 389 1145 q 341 1127 370 1127 q 283 1141 312 1127 q 231 1181 255 1154 q 198 1245 208 1208 l 347 1462 q 395 1498 365 1488 q 458 1506 426 1508 q 517 1492 490 1504 q 556 1462 544 1480 l 678 1256 z "},"Ö":{"ha":902,"x_min":34,"x_max":892,"o":"m 34 505 q 73 753 34 640 q 180 947 113 865 q 339 1073 248 1028 q 533 1118 430 1118 q 699 1072 629 1118 q 812 951 768 1027 q 874 777 856 875 q 885 576 892 678 q 845 373 878 473 q 755 192 812 273 q 615 58 697 111 q 427 -3 533 5 q 269 37 340 -3 q 144 146 197 77 q 63 307 92 214 q 34 505 34 399 m 415 286 q 492 321 460 285 q 543 412 524 357 q 568 532 562 467 q 570 656 575 598 q 548 755 566 713 q 502 807 530 798 q 439 779 468 814 q 387 687 410 743 q 353 563 365 631 q 342 435 340 495 q 361 333 343 376 q 415 286 378 290 m 285 1142 q 215 1160 243 1142 q 173 1206 187 1179 q 158 1265 159 1233 q 171 1324 157 1297 q 213 1373 184 1352 q 285 1397 241 1393 q 357 1377 328 1396 q 399 1331 385 1359 q 411 1271 412 1303 q 395 1210 410 1238 q 353 1162 381 1181 q 285 1142 326 1143 m 613 1142 q 543 1160 571 1142 q 501 1206 515 1179 q 486 1265 487 1233 q 499 1324 486 1297 q 541 1373 513 1352 q 613 1397 570 1393 q 685 1377 656 1396 q 727 1331 713 1359 q 739 1271 741 1303 q 724 1210 738 1238 q 682 1162 709 1181 q 613 1142 654 1143 z "},"Ò":{"ha":902,"x_min":34,"x_max":892,"o":"m 34 505 q 73 753 34 640 q 180 947 113 865 q 339 1073 248 1028 q 533 1118 430 1118 q 699 1072 629 1118 q 812 951 768 1027 q 874 777 856 875 q 885 576 892 678 q 845 373 878 473 q 755 192 812 273 q 615 58 697 111 q 427 -3 533 5 q 269 37 340 -3 q 144 146 197 77 q 63 307 92 214 q 34 505 34 399 m 415 286 q 492 321 460 285 q 543 412 524 357 q 568 532 562 467 q 570 656 575 598 q 548 755 566 713 q 502 807 530 798 q 439 779 468 814 q 387 687 410 743 q 353 563 365 631 q 342 435 340 495 q 361 333 343 376 q 415 286 378 290 m 578 1251 q 581 1203 593 1232 q 545 1153 570 1175 q 487 1126 519 1131 q 429 1146 454 1120 l 285 1373 q 304 1436 285 1411 q 351 1474 323 1462 q 408 1482 378 1487 q 456 1457 437 1478 l 578 1251 z "},"Ő":{"ha":902,"x_min":34,"x_max":892,"o":"m 34 505 q 73 753 34 640 q 180 947 113 865 q 339 1073 248 1028 q 533 1118 430 1118 q 699 1072 629 1118 q 812 951 768 1027 q 874 777 856 875 q 885 576 892 678 q 845 373 878 473 q 755 192 812 273 q 615 58 697 111 q 427 -3 533 5 q 269 37 340 -3 q 144 146 197 77 q 63 307 92 214 q 34 505 34 399 m 415 286 q 492 321 460 285 q 543 412 524 357 q 568 532 562 467 q 570 656 575 598 q 548 755 566 713 q 502 807 530 798 q 439 779 468 814 q 387 687 410 743 q 353 563 365 631 q 342 435 340 495 q 361 333 343 376 q 415 286 378 290 m 296 1476 q 344 1501 315 1497 q 400 1493 373 1506 q 447 1455 427 1481 q 467 1392 467 1430 l 323 1165 q 264 1145 296 1139 q 207 1172 232 1150 q 170 1222 182 1194 q 174 1270 159 1251 l 296 1476 m 595 1453 q 644 1478 614 1474 q 700 1470 673 1482 q 747 1432 727 1458 q 766 1369 766 1407 l 623 1142 q 564 1122 595 1116 q 507 1149 532 1127 q 470 1199 481 1171 q 473 1246 458 1227 l 595 1453 z "},"Ō":{"ha":902,"x_min":34,"x_max":892,"o":"m 34 505 q 73 753 34 640 q 180 947 113 865 q 339 1073 248 1028 q 533 1118 430 1118 q 699 1072 629 1118 q 812 951 768 1027 q 874 777 856 875 q 885 576 892 678 q 845 373 878 473 q 755 192 812 273 q 615 58 697 111 q 427 -3 533 5 q 269 37 340 -3 q 144 146 197 77 q 63 307 92 214 q 34 505 34 399 m 415 286 q 492 321 460 285 q 543 412 524 357 q 568 532 562 467 q 570 656 575 598 q 548 755 566 713 q 502 807 530 798 q 439 779 468 814 q 387 687 410 743 q 353 563 365 631 q 342 435 340 495 q 361 333 343 376 q 415 286 378 290 m 293 1137 q 250 1156 266 1138 q 228 1201 235 1175 q 224 1257 221 1227 q 235 1313 227 1287 q 257 1356 243 1339 q 289 1373 271 1373 l 640 1378 q 681 1334 669 1370 q 691 1257 693 1298 q 676 1182 689 1217 q 643 1141 663 1147 l 293 1137 z "},"Ø":{"ha":902,"x_min":5,"x_max":905,"o":"m 831 911 q 880 736 868 833 q 881 542 892 640 q 836 349 869 444 q 745 178 802 254 q 608 54 688 103 q 427 -3 529 5 q 254 45 332 -3 l 244 31 q 177 4 212 9 q 111 7 142 -1 q 51 35 79 15 q 5 85 23 56 l 96 222 q 50 355 66 283 q 34 505 34 426 q 73 753 34 640 q 180 947 113 865 q 339 1073 248 1028 q 533 1118 430 1118 q 671 1086 609 1118 l 697 1124 q 765 1145 730 1145 q 830 1130 800 1145 q 881 1086 860 1115 q 905 1020 902 1058 l 831 911 m 415 286 q 471 304 446 286 q 515 354 496 323 q 547 427 534 385 q 566 513 559 468 l 414 286 l 415 286 m 486 807 q 419 751 450 802 q 369 631 388 700 l 486 807 z "},"Ǿ":{"ha":902,"x_min":1,"x_max":901,"o":"m 34 505 q 73 753 34 640 q 180 947 113 865 q 339 1073 248 1028 q 533 1118 430 1118 q 684 1080 616 1118 l 693 1093 q 761 1114 726 1114 q 826 1099 796 1114 q 877 1055 856 1084 q 901 989 898 1027 l 838 895 q 881 721 871 817 q 879 528 891 625 q 832 339 867 431 q 741 174 798 247 q 606 53 685 100 q 427 -3 528 5 q 342 8 382 -3 q 266 38 301 19 l 240 0 q 173 -27 208 -22 q 106 -24 138 -33 q 47 4 75 -16 q 1 54 19 24 l 103 208 q 52 346 69 271 q 34 505 34 420 m 502 807 q 457 795 479 811 q 417 748 435 779 q 383 677 399 718 q 358 591 368 636 l 502 807 m 431 288 q 514 351 483 296 q 560 480 545 407 l 431 288 m 445 1457 q 493 1482 464 1478 q 549 1474 522 1487 q 596 1436 576 1462 q 616 1373 616 1411 l 472 1146 q 413 1126 445 1120 q 356 1153 381 1131 q 319 1203 331 1175 q 323 1251 308 1232 l 445 1457 z "},"Õ":{"ha":902,"x_min":34,"x_max":892,"o":"m 34 505 q 73 753 34 640 q 180 947 113 865 q 339 1073 248 1028 q 533 1118 430 1118 q 699 1072 629 1118 q 812 951 768 1027 q 874 777 856 875 q 885 576 892 678 q 845 373 878 473 q 755 192 812 273 q 615 58 697 111 q 427 -3 533 5 q 269 37 340 -3 q 144 146 197 77 q 63 307 92 214 q 34 505 34 399 m 415 286 q 492 321 460 285 q 543 412 524 357 q 568 532 562 467 q 570 656 575 598 q 548 755 566 713 q 502 807 530 798 q 439 779 468 814 q 387 687 410 743 q 353 563 365 631 q 342 435 340 495 q 361 333 343 376 q 415 286 378 290 m 243 1160 q 189 1141 216 1128 q 144 1183 163 1153 q 119 1252 126 1214 q 125 1313 113 1290 q 153 1370 129 1335 q 210 1436 178 1405 q 275 1487 241 1468 q 332 1497 309 1507 q 393 1478 369 1497 q 436 1437 416 1459 q 474 1396 456 1415 q 518 1378 492 1378 q 564 1391 547 1378 q 593 1423 582 1404 q 608 1464 604 1442 q 617 1506 613 1487 q 665 1526 633 1530 q 728 1502 697 1522 q 779 1454 758 1482 q 793 1401 799 1426 q 752 1303 781 1345 q 690 1232 723 1261 q 627 1185 658 1203 q 579 1160 595 1168 q 509 1169 540 1153 q 452 1206 479 1185 q 403 1244 426 1226 q 357 1259 380 1261 q 298 1241 326 1264 q 243 1160 270 1218 z "},"Œ":{"ha":1145,"x_min":34,"x_max":1133,"o":"m 1101 1109 q 1124 1063 1116 1097 q 1128 989 1133 1028 q 1106 917 1124 951 q 1051 873 1088 883 l 690 868 l 704 728 l 935 722 q 958 690 948 716 q 969 631 967 663 q 966 567 971 598 q 945 519 960 536 l 692 511 l 697 301 l 1084 304 q 1118 227 1111 267 q 1119 151 1124 187 q 1099 83 1114 114 q 1069 31 1085 52 l 419 23 q 262 59 332 23 q 140 159 191 95 q 62 311 90 222 q 34 505 34 399 q 66 731 34 627 q 155 914 99 836 q 288 1044 212 993 q 454 1111 365 1095 l 1101 1109 m 415 286 q 424 286 419 286 q 434 288 429 286 l 434 772 q 391 697 410 743 q 359 598 372 651 q 343 492 347 545 q 345 393 339 438 q 367 319 350 349 q 415 286 384 290 z "},"Ŕ":{"ha":905,"x_min":31,"x_max":901,"o":"m 43 987 q 183 1057 104 1027 q 347 1101 262 1086 q 515 1109 431 1115 q 667 1072 598 1103 q 783 983 735 1042 q 846 830 831 924 q 829 740 846 783 q 786 657 812 697 q 726 580 760 617 q 658 507 692 543 l 901 151 q 844 73 886 102 q 750 28 803 43 q 640 9 697 14 q 538 3 583 4 l 339 397 l 342 34 q 275 -22 326 -7 q 170 -31 225 -37 q 73 -4 115 -26 q 31 49 31 18 l 43 987 m 330 694 q 386 693 351 689 q 455 711 420 697 q 518 751 490 726 q 556 818 547 777 q 538 867 559 849 q 483 893 517 886 q 407 896 449 901 q 327 875 365 891 l 330 694 m 446 1457 q 494 1482 465 1478 q 551 1474 524 1487 q 597 1436 578 1462 q 617 1373 617 1411 l 473 1146 q 414 1126 446 1120 q 357 1153 382 1131 q 321 1203 332 1175 q 324 1251 309 1232 l 446 1457 z "},"Ř":{"ha":905,"x_min":31,"x_max":901,"o":"m 43 987 q 183 1057 104 1027 q 347 1101 262 1086 q 515 1109 431 1115 q 667 1072 598 1103 q 783 983 735 1042 q 846 830 831 924 q 829 740 846 783 q 786 657 812 697 q 726 580 760 617 q 658 507 692 543 l 901 151 q 844 73 886 102 q 750 28 803 43 q 640 9 697 14 q 538 3 583 4 l 339 397 l 342 34 q 275 -22 326 -7 q 170 -31 225 -37 q 73 -4 115 -26 q 31 49 31 18 l 43 987 m 330 694 q 386 693 351 689 q 455 711 420 697 q 518 751 490 726 q 556 818 547 777 q 538 867 559 849 q 483 893 517 886 q 407 896 449 901 q 327 875 365 891 l 330 694 m 557 1166 q 518 1137 545 1149 q 459 1122 491 1124 q 397 1130 427 1120 q 349 1166 366 1139 l 199 1383 q 233 1447 209 1420 q 285 1488 256 1474 q 342 1501 313 1501 q 391 1484 372 1501 l 456 1373 l 511 1472 q 562 1503 537 1499 q 606 1499 586 1508 q 643 1472 627 1491 q 669 1433 659 1453 q 682 1396 680 1413 q 680 1373 685 1378 l 557 1166 z "},"Ŗ":{"ha":905,"x_min":31,"x_max":901,"o":"m 43 987 q 183 1057 104 1027 q 347 1101 262 1086 q 515 1109 431 1115 q 667 1072 598 1103 q 783 983 735 1042 q 846 830 831 924 q 829 740 846 783 q 786 657 812 697 q 726 580 760 617 q 658 507 692 543 l 901 151 q 844 73 886 102 q 750 28 803 43 q 640 9 697 14 q 538 3 583 4 l 339 397 l 342 34 q 275 -22 326 -7 q 170 -31 225 -37 q 73 -4 115 -26 q 31 49 31 18 l 43 987 m 330 694 q 386 693 351 689 q 455 711 420 697 q 518 751 490 726 q 556 818 547 777 q 538 867 559 849 q 483 893 517 886 q 407 896 449 901 q 327 875 365 891 l 330 694 m 372 -388 q 391 -375 376 -385 q 420 -347 406 -365 q 445 -307 435 -330 q 448 -258 454 -285 q 357 -249 389 -273 q 319 -187 326 -225 q 332 -107 313 -149 q 393 -41 350 -65 q 455 -26 422 -24 q 518 -47 488 -28 q 572 -98 548 -65 q 606 -176 595 -132 q 595 -278 613 -229 q 542 -359 576 -327 q 463 -401 507 -391 q 372 -388 418 -411 z "},"Ś":{"ha":749,"x_min":14,"x_max":736,"o":"m 64 365 q 128 330 90 343 q 205 314 167 317 q 278 316 244 311 q 330 334 312 321 q 345 364 349 346 q 307 407 342 382 q 215 444 269 425 q 115 494 161 463 q 41 573 69 525 q 26 697 14 621 q 92 840 46 774 q 197 957 137 906 q 328 1043 258 1008 q 467 1095 397 1078 q 601 1108 537 1111 q 712 1081 665 1105 q 727 1015 720 1053 q 730 939 734 978 q 707 862 726 899 q 646 799 688 825 q 553 838 605 829 q 456 833 502 846 q 381 784 411 819 q 354 692 351 749 q 412 627 373 652 q 496 582 450 602 q 589 539 543 562 q 669 484 635 517 q 720 400 704 450 q 723 273 736 350 q 620 112 690 168 q 461 31 549 56 q 277 4 373 5 q 96 8 182 3 q 39 98 58 43 q 17 208 20 153 q 26 307 14 263 q 64 365 38 351 m 369 1457 q 417 1482 388 1478 q 473 1474 446 1487 q 520 1436 500 1462 q 540 1373 540 1411 l 396 1146 q 337 1126 369 1120 q 280 1153 305 1131 q 243 1203 255 1175 q 247 1251 232 1232 l 369 1457 z "},"Š":{"ha":749,"x_min":14,"x_max":736,"o":"m 64 365 q 128 330 90 343 q 205 314 167 317 q 278 316 244 311 q 330 334 312 321 q 345 364 349 346 q 307 407 342 382 q 215 444 269 425 q 115 494 161 463 q 41 573 69 525 q 26 697 14 621 q 92 840 46 774 q 197 957 137 906 q 328 1043 258 1008 q 467 1095 397 1078 q 601 1108 537 1111 q 712 1081 665 1105 q 727 1015 720 1053 q 730 939 734 978 q 707 862 726 899 q 646 799 688 825 q 553 838 605 829 q 456 833 502 846 q 381 784 411 819 q 354 692 351 749 q 412 627 373 652 q 496 582 450 602 q 589 539 543 562 q 669 484 635 517 q 720 400 704 450 q 723 273 736 350 q 620 112 690 168 q 461 31 549 56 q 277 4 373 5 q 96 8 182 3 q 39 98 58 43 q 17 208 20 153 q 26 307 14 263 q 64 365 38 351 m 480 1166 q 441 1137 468 1149 q 382 1122 414 1124 q 319 1130 350 1120 q 271 1166 289 1139 l 122 1383 q 155 1447 132 1420 q 208 1488 179 1474 q 265 1501 236 1501 q 313 1484 294 1501 l 378 1373 l 434 1472 q 484 1503 460 1499 q 529 1499 509 1508 q 566 1472 549 1491 q 592 1433 582 1453 q 605 1396 602 1413 q 602 1373 608 1378 l 480 1166 z "},"Ş":{"ha":749,"x_min":14,"x_max":736,"o":"m 182 -511 q 150 -448 156 -477 q 149 -394 144 -419 q 168 -349 155 -369 q 197 -315 182 -330 q 215 -323 198 -319 q 256 -330 232 -327 q 309 -332 281 -332 q 359 -324 336 -331 q 397 -303 382 -317 q 408 -263 411 -289 q 383 -223 404 -235 q 333 -208 362 -212 q 271 -204 304 -205 q 212 -194 239 -203 q 170 -162 186 -184 q 159 -92 155 -140 l 155 5 q 125 6 140 5 q 96 8 111 7 q 39 98 58 43 q 17 208 20 153 q 26 307 14 263 q 64 365 38 351 q 128 330 90 343 q 205 314 167 317 q 278 316 244 311 q 330 334 312 321 q 345 364 349 346 q 307 407 342 382 q 215 444 269 425 q 115 494 161 463 q 41 573 69 525 q 26 697 14 621 q 92 840 46 774 q 197 957 137 906 q 328 1043 258 1008 q 467 1095 397 1078 q 601 1108 537 1111 q 712 1081 665 1105 q 727 1015 720 1053 q 730 939 734 978 q 707 862 726 899 q 646 799 688 825 q 553 838 605 829 q 456 833 502 846 q 381 784 411 819 q 354 692 351 749 q 412 627 373 652 q 496 582 450 602 q 589 539 543 562 q 669 484 635 517 q 720 400 704 450 q 723 273 736 350 q 666 161 703 208 q 583 85 629 115 q 481 37 536 54 q 369 12 427 20 l 373 -49 q 456 -64 414 -49 q 533 -106 498 -79 q 591 -173 568 -134 q 618 -259 614 -212 q 518 -484 631 -418 q 182 -511 406 -551 m 201 -312 q 197 -315 199 -312 q 201 -312 197 -312 z "},"":{"ha":749,"x_min":14,"x_max":736,"o":"m 182 -511 q 150 -448 156 -477 q 149 -394 144 -419 q 168 -349 155 -369 q 197 -315 182 -330 q 215 -323 198 -319 q 256 -330 232 -327 q 309 -332 281 -332 q 359 -324 336 -331 q 397 -303 382 -317 q 408 -263 411 -289 q 383 -223 404 -235 q 333 -208 362 -212 q 271 -204 304 -205 q 212 -194 239 -203 q 170 -162 186 -184 q 159 -92 155 -140 l 155 5 q 125 6 140 5 q 96 8 111 7 q 39 98 58 43 q 17 208 20 153 q 26 307 14 263 q 64 365 38 351 q 128 330 90 343 q 205 314 167 317 q 278 316 244 311 q 330 334 312 321 q 345 364 349 346 q 307 407 342 382 q 215 444 269 425 q 115 494 161 463 q 41 573 69 525 q 26 697 14 621 q 92 840 46 774 q 197 957 137 906 q 328 1043 258 1008 q 467 1095 397 1078 q 601 1108 537 1111 q 712 1081 665 1105 q 727 1015 720 1053 q 730 939 734 978 q 707 862 726 899 q 646 799 688 825 q 553 838 605 829 q 456 833 502 846 q 381 784 411 819 q 354 692 351 749 q 412 627 373 652 q 496 582 450 602 q 589 539 543 562 q 669 484 635 517 q 720 400 704 450 q 723 273 736 350 q 666 161 703 208 q 583 85 629 115 q 481 37 536 54 q 369 12 427 20 l 373 -49 q 456 -64 414 -49 q 533 -106 498 -79 q 591 -173 568 -134 q 618 -259 614 -212 q 518 -484 631 -418 q 182 -511 406 -551 m 201 -312 q 197 -315 199 -312 q 201 -312 197 -312 z "},"Ŝ":{"ha":749,"x_min":14,"x_max":736,"o":"m 64 365 q 128 330 90 343 q 205 314 167 317 q 278 316 244 311 q 330 334 312 321 q 345 364 349 346 q 307 407 342 382 q 215 444 269 425 q 115 494 161 463 q 41 573 69 525 q 26 697 14 621 q 92 840 46 774 q 197 957 137 906 q 328 1043 258 1008 q 467 1095 397 1078 q 601 1108 537 1111 q 712 1081 665 1105 q 727 1015 720 1053 q 730 939 734 978 q 707 862 726 899 q 646 799 688 825 q 553 838 605 829 q 456 833 502 846 q 381 784 411 819 q 354 692 351 749 q 412 627 373 652 q 496 582 450 602 q 589 539 543 562 q 669 484 635 517 q 720 400 704 450 q 723 273 736 350 q 620 112 690 168 q 461 31 549 56 q 277 4 373 5 q 96 8 182 3 q 39 98 58 43 q 17 208 20 153 q 26 307 14 263 q 64 365 38 351 m 602 1256 q 605 1233 608 1251 q 592 1196 602 1215 q 566 1157 582 1176 q 529 1129 549 1138 q 484 1125 509 1120 q 434 1157 460 1130 l 378 1256 l 313 1145 q 265 1127 294 1127 q 208 1141 236 1127 q 155 1181 179 1154 q 122 1245 132 1208 l 271 1462 q 319 1498 289 1488 q 382 1506 350 1508 q 441 1492 414 1504 q 480 1462 468 1480 l 602 1256 z "},"Ș":{"ha":749,"x_min":14,"x_max":736,"o":"m 64 365 q 128 330 90 343 q 205 314 167 317 q 278 316 244 311 q 330 334 312 321 q 345 364 349 346 q 307 407 342 382 q 215 444 269 425 q 115 494 161 463 q 41 573 69 525 q 26 697 14 621 q 92 840 46 774 q 197 957 137 906 q 328 1043 258 1008 q 467 1095 397 1078 q 601 1108 537 1111 q 712 1081 665 1105 q 727 1015 720 1053 q 730 939 734 978 q 707 862 726 899 q 646 799 688 825 q 553 838 605 829 q 456 833 502 846 q 381 784 411 819 q 354 692 351 749 q 412 627 373 652 q 496 582 450 602 q 589 539 543 562 q 669 484 635 517 q 720 400 704 450 q 723 273 736 350 q 620 112 690 168 q 461 31 549 56 q 277 4 373 5 q 96 8 182 3 q 39 98 58 43 q 17 208 20 153 q 26 307 14 263 q 64 365 38 351 m 294 -388 q 313 -375 298 -385 q 343 -347 328 -365 q 368 -307 358 -330 q 370 -258 377 -285 q 280 -249 312 -273 q 242 -187 248 -225 q 254 -107 236 -149 q 316 -41 273 -65 q 378 -26 345 -24 q 441 -47 411 -28 q 494 -98 471 -65 q 529 -176 518 -132 q 517 -278 536 -229 q 465 -359 499 -327 q 385 -401 430 -391 q 294 -388 340 -411 z "},"Ŧ":{"ha":842,"x_min":19,"x_max":837,"o":"m 42 814 q 25 880 31 842 q 19 956 19 917 q 27 1029 19 994 q 52 1089 35 1065 l 789 1105 q 821 1070 807 1097 q 836 1003 834 1043 q 823 916 837 963 q 772 822 808 868 l 553 822 l 553 730 l 597 731 q 637 687 625 723 q 648 610 650 651 q 633 535 646 570 q 600 494 620 500 l 559 492 q 562 370 560 431 q 566 252 564 308 q 568 146 567 195 q 568 62 568 98 q 538 20 563 35 q 479 0 513 5 q 407 -2 445 -5 q 336 9 369 1 q 281 30 304 18 q 254 56 258 42 l 267 490 l 250 490 q 207 509 222 491 q 184 554 191 528 q 180 610 178 581 q 191 666 183 640 q 214 709 199 692 q 245 726 228 726 l 274 726 l 278 822 l 42 814 z "},"Ť":{"ha":842,"x_min":19,"x_max":837,"o":"m 42 814 q 25 880 31 842 q 19 956 19 917 q 27 1029 19 994 q 52 1089 35 1065 l 789 1105 q 821 1070 807 1097 q 836 1003 834 1043 q 823 916 837 963 q 772 822 808 868 l 553 822 q 555 719 553 780 q 557 587 556 658 q 561 442 559 517 q 564 297 563 368 q 567 165 566 227 q 568 62 568 104 q 538 20 563 35 q 479 0 513 5 q 407 -2 445 -5 q 336 9 369 1 q 281 30 304 18 q 254 56 258 42 l 278 822 l 42 814 m 526 1166 q 487 1137 514 1149 q 428 1122 460 1124 q 366 1130 396 1120 q 317 1166 335 1139 l 168 1383 q 201 1447 178 1420 q 254 1488 225 1474 q 311 1501 282 1501 q 359 1484 340 1501 l 425 1373 l 480 1472 q 530 1503 506 1499 q 575 1499 555 1508 q 612 1472 595 1491 q 638 1433 628 1453 q 651 1396 648 1413 q 648 1373 654 1378 l 526 1166 z "},"Ţ":{"ha":842,"x_min":19,"x_max":837,"o":"m 42 814 q 25 880 31 842 q 19 956 19 917 q 27 1029 19 994 q 52 1089 35 1065 l 789 1105 q 821 1070 807 1097 q 836 1003 834 1043 q 823 916 837 963 q 772 822 808 868 l 553 822 q 555 719 553 780 q 557 587 556 658 q 561 442 559 517 q 564 297 563 368 q 567 165 566 227 q 568 62 568 104 q 538 20 563 35 q 479 0 513 5 q 407 -2 445 -5 q 336 9 369 1 q 281 30 304 18 q 254 56 258 42 l 278 822 l 42 814 m 340 -388 q 359 -375 345 -385 q 389 -347 374 -365 q 414 -307 404 -330 q 416 -258 423 -285 q 326 -249 358 -273 q 288 -187 294 -225 q 300 -107 282 -149 q 362 -41 319 -65 q 424 -26 391 -24 q 487 -47 457 -28 q 541 -98 517 -65 q 575 -176 564 -132 q 564 -278 582 -229 q 511 -359 545 -327 q 431 -401 476 -391 q 340 -388 387 -411 z "},"Ț":{"ha":842,"x_min":19,"x_max":837,"o":"m 42 814 q 25 880 31 842 q 19 956 19 917 q 27 1029 19 994 q 52 1089 35 1065 l 789 1105 q 821 1070 807 1097 q 836 1003 834 1043 q 823 916 837 963 q 772 822 808 868 l 553 822 q 555 719 553 780 q 557 587 556 658 q 561 442 559 517 q 564 297 563 368 q 567 165 566 227 q 568 62 568 104 q 538 20 563 35 q 479 0 513 5 q 407 -2 445 -5 q 336 9 369 1 q 281 30 304 18 q 254 56 258 42 l 278 822 l 42 814 m 340 -388 q 359 -375 345 -385 q 389 -347 374 -365 q 414 -307 404 -330 q 416 -258 423 -285 q 326 -249 358 -273 q 288 -187 294 -225 q 300 -107 282 -149 q 362 -41 319 -65 q 424 -26 391 -24 q 487 -47 457 -28 q 541 -98 517 -65 q 575 -176 564 -132 q 564 -278 582 -229 q 511 -359 545 -327 q 431 -401 476 -391 q 340 -388 387 -411 z "},"Ú":{"ha":825,"x_min":31,"x_max":810,"o":"m 57 359 q 36 583 41 483 q 33 768 31 684 q 38 924 34 852 q 43 1061 42 996 q 69 1080 47 1069 q 121 1101 91 1092 q 186 1115 151 1109 q 256 1119 222 1120 q 317 1106 289 1118 q 359 1070 345 1095 q 362 904 363 990 q 358 735 361 818 q 355 577 355 652 q 363 443 354 502 q 391 346 372 384 q 449 300 411 308 q 500 345 481 302 q 528 477 519 387 q 536 714 536 568 q 529 1072 536 860 q 547 1088 530 1078 q 589 1105 564 1097 q 643 1116 613 1112 q 703 1116 673 1120 q 758 1099 732 1112 q 798 1058 783 1085 q 806 667 810 833 q 782 385 802 502 q 726 194 762 269 q 637 77 690 119 q 514 18 585 34 q 355 0 444 1 q 226 31 277 0 q 142 113 175 62 q 90 229 110 164 q 57 359 71 293 m 407 1457 q 455 1482 426 1478 q 511 1474 484 1487 q 558 1436 538 1462 q 578 1373 578 1411 l 434 1146 q 375 1126 407 1120 q 318 1153 343 1131 q 281 1203 293 1175 q 285 1251 270 1232 l 407 1457 z "},"Ŭ":{"ha":825,"x_min":31,"x_max":810,"o":"m 57 359 q 36 583 41 483 q 33 768 31 684 q 38 924 34 852 q 43 1061 42 996 q 69 1080 47 1069 q 121 1101 91 1092 q 186 1115 151 1109 q 256 1119 222 1120 q 317 1106 289 1118 q 359 1070 345 1095 q 362 904 363 990 q 358 735 361 818 q 355 577 355 652 q 363 443 354 502 q 391 346 372 384 q 449 300 411 308 q 500 345 481 302 q 528 477 519 387 q 536 714 536 568 q 529 1072 536 860 q 547 1088 530 1078 q 589 1105 564 1097 q 643 1116 613 1112 q 703 1116 673 1120 q 758 1099 732 1112 q 798 1058 783 1085 q 806 667 810 833 q 782 385 802 502 q 726 194 762 269 q 637 77 690 119 q 514 18 585 34 q 355 0 444 1 q 226 31 277 0 q 142 113 175 62 q 90 229 110 164 q 57 359 71 293 m 145 1322 q 152 1360 141 1336 q 184 1402 163 1383 q 233 1427 205 1421 q 293 1409 262 1432 q 334 1347 301 1371 q 406 1320 366 1322 q 486 1341 446 1317 q 547 1421 525 1364 q 600 1430 574 1432 q 646 1413 627 1427 q 677 1377 666 1400 q 686 1326 688 1355 q 625 1213 667 1257 q 526 1148 582 1169 q 410 1129 471 1127 q 294 1154 349 1131 q 199 1219 240 1176 q 145 1322 159 1261 z "},"Û":{"ha":825,"x_min":31,"x_max":810,"o":"m 57 359 q 36 583 41 483 q 33 768 31 684 q 38 924 34 852 q 43 1061 42 996 q 69 1080 47 1069 q 121 1101 91 1092 q 186 1115 151 1109 q 256 1119 222 1120 q 317 1106 289 1118 q 359 1070 345 1095 q 362 904 363 990 q 358 735 361 818 q 355 577 355 652 q 363 443 354 502 q 391 346 372 384 q 449 300 411 308 q 500 345 481 302 q 528 477 519 387 q 536 714 536 568 q 529 1072 536 860 q 547 1088 530 1078 q 589 1105 564 1097 q 643 1116 613 1112 q 703 1116 673 1120 q 758 1099 732 1112 q 798 1058 783 1085 q 806 667 810 833 q 782 385 802 502 q 726 194 762 269 q 637 77 690 119 q 514 18 585 34 q 355 0 444 1 q 226 31 277 0 q 142 113 175 62 q 90 229 110 164 q 57 359 71 293 m 640 1256 q 643 1233 646 1251 q 630 1196 640 1215 q 604 1157 620 1176 q 567 1129 587 1138 q 522 1125 547 1120 q 472 1157 498 1130 l 416 1256 l 351 1145 q 303 1127 332 1127 q 245 1141 274 1127 q 193 1181 217 1154 q 160 1245 170 1208 l 309 1462 q 357 1498 327 1488 q 420 1506 388 1508 q 479 1492 452 1504 q 518 1462 506 1480 l 640 1256 z "},"Ü":{"ha":825,"x_min":31,"x_max":810,"o":"m 57 359 q 36 583 41 483 q 33 768 31 684 q 38 924 34 852 q 43 1061 42 996 q 69 1080 47 1069 q 121 1101 91 1092 q 186 1115 151 1109 q 256 1119 222 1120 q 317 1106 289 1118 q 359 1070 345 1095 q 362 904 363 990 q 358 735 361 818 q 355 577 355 652 q 363 443 354 502 q 391 346 372 384 q 449 300 411 308 q 500 345 481 302 q 528 477 519 387 q 536 714 536 568 q 529 1072 536 860 q 547 1088 530 1078 q 589 1105 564 1097 q 643 1116 613 1112 q 703 1116 673 1120 q 758 1099 732 1112 q 798 1058 783 1085 q 806 667 810 833 q 782 385 802 502 q 726 194 762 269 q 637 77 690 119 q 514 18 585 34 q 355 0 444 1 q 226 31 277 0 q 142 113 175 62 q 90 229 110 164 q 57 359 71 293 m 247 1142 q 177 1160 205 1142 q 135 1206 149 1179 q 120 1265 121 1233 q 133 1324 119 1297 q 175 1373 146 1352 q 247 1397 203 1393 q 319 1377 290 1396 q 361 1331 347 1359 q 373 1271 374 1303 q 357 1210 372 1238 q 315 1162 343 1181 q 247 1142 288 1143 m 575 1142 q 505 1160 533 1142 q 463 1206 477 1179 q 448 1265 449 1233 q 461 1324 448 1297 q 503 1373 475 1352 q 575 1397 532 1393 q 647 1377 618 1396 q 689 1331 675 1359 q 701 1271 703 1303 q 686 1210 700 1238 q 644 1162 671 1181 q 575 1142 616 1143 z "},"Ù":{"ha":825,"x_min":31,"x_max":810,"o":"m 57 359 q 36 583 41 483 q 33 768 31 684 q 38 924 34 852 q 43 1061 42 996 q 69 1080 47 1069 q 121 1101 91 1092 q 186 1115 151 1109 q 256 1119 222 1120 q 317 1106 289 1118 q 359 1070 345 1095 q 362 904 363 990 q 358 735 361 818 q 355 577 355 652 q 363 443 354 502 q 391 346 372 384 q 449 300 411 308 q 500 345 481 302 q 528 477 519 387 q 536 714 536 568 q 529 1072 536 860 q 547 1088 530 1078 q 589 1105 564 1097 q 643 1116 613 1112 q 703 1116 673 1120 q 758 1099 732 1112 q 798 1058 783 1085 q 806 667 810 833 q 782 385 802 502 q 726 194 762 269 q 637 77 690 119 q 514 18 585 34 q 355 0 444 1 q 226 31 277 0 q 142 113 175 62 q 90 229 110 164 q 57 359 71 293 m 540 1251 q 543 1203 555 1232 q 507 1153 532 1175 q 449 1126 481 1131 q 391 1146 416 1120 l 247 1373 q 266 1436 247 1411 q 313 1474 285 1462 q 370 1482 340 1487 q 418 1457 399 1478 l 540 1251 z "},"Ű":{"ha":825,"x_min":31,"x_max":810,"o":"m 57 359 q 36 583 41 483 q 33 768 31 684 q 38 924 34 852 q 43 1061 42 996 q 69 1080 47 1069 q 121 1101 91 1092 q 186 1115 151 1109 q 256 1119 222 1120 q 317 1106 289 1118 q 359 1070 345 1095 q 362 904 363 990 q 358 735 361 818 q 355 577 355 652 q 363 443 354 502 q 391 346 372 384 q 449 300 411 308 q 500 345 481 302 q 528 477 519 387 q 536 714 536 568 q 529 1072 536 860 q 547 1088 530 1078 q 589 1105 564 1097 q 643 1116 613 1112 q 703 1116 673 1120 q 758 1099 732 1112 q 798 1058 783 1085 q 806 667 810 833 q 782 385 802 502 q 726 194 762 269 q 637 77 690 119 q 514 18 585 34 q 355 0 444 1 q 226 31 277 0 q 142 113 175 62 q 90 229 110 164 q 57 359 71 293 m 256 1476 q 304 1501 275 1497 q 361 1493 334 1506 q 408 1455 388 1481 q 427 1392 427 1430 l 283 1165 q 224 1145 256 1139 q 168 1172 193 1150 q 131 1222 142 1194 q 134 1270 119 1251 l 256 1476 m 556 1453 q 604 1478 575 1474 q 661 1470 633 1482 q 707 1432 688 1458 q 727 1369 727 1407 l 583 1142 q 524 1122 556 1116 q 467 1149 492 1127 q 431 1199 442 1171 q 434 1246 419 1227 l 556 1453 z "},"Ų":{"ha":825,"x_min":31,"x_max":811,"o":"m 652 -123 q 696 -132 678 -119 q 721 -164 715 -144 q 716 -208 727 -184 q 673 -250 705 -232 q 557 -240 604 -260 q 485 -182 510 -220 q 454 -94 460 -144 q 464 8 449 -43 q 355 0 412 0 q 226 31 277 0 q 142 113 175 62 q 90 229 110 164 q 57 359 71 293 q 36 583 41 483 q 33 768 31 684 q 38 924 34 852 q 43 1061 42 996 q 69 1080 47 1069 q 121 1101 91 1092 q 186 1115 151 1109 q 256 1119 222 1120 q 317 1106 289 1118 q 359 1070 345 1095 q 362 904 363 990 q 358 735 361 818 q 355 577 355 652 q 363 443 354 502 q 391 346 372 384 q 449 300 411 308 q 500 345 481 302 q 528 477 519 387 q 536 714 536 568 q 529 1072 536 860 q 547 1088 530 1078 q 589 1105 564 1097 q 643 1116 613 1112 q 703 1116 673 1120 q 758 1099 732 1112 q 798 1058 783 1085 q 804 621 811 800 q 768 321 796 441 q 691 135 741 202 q 570 37 642 68 q 570 -16 566 12 q 585 -69 574 -45 q 612 -109 595 -94 q 652 -123 629 -125 z "},"Ū":{"ha":825,"x_min":31,"x_max":810,"o":"m 57 359 q 36 583 41 483 q 33 768 31 684 q 38 924 34 852 q 43 1061 42 996 q 69 1080 47 1069 q 121 1101 91 1092 q 186 1115 151 1109 q 256 1119 222 1120 q 317 1106 289 1118 q 359 1070 345 1095 q 362 904 363 990 q 358 735 361 818 q 355 577 355 652 q 363 443 354 502 q 391 346 372 384 q 449 300 411 308 q 500 345 481 302 q 528 477 519 387 q 536 714 536 568 q 529 1072 536 860 q 547 1088 530 1078 q 589 1105 564 1097 q 643 1116 613 1112 q 703 1116 673 1120 q 758 1099 732 1112 q 798 1058 783 1085 q 806 667 810 833 q 782 385 802 502 q 726 194 762 269 q 637 77 690 119 q 514 18 585 34 q 355 0 444 1 q 226 31 277 0 q 142 113 175 62 q 90 229 110 164 q 57 359 71 293 m 254 1137 q 211 1156 227 1138 q 189 1201 195 1175 q 184 1257 182 1227 q 195 1313 187 1287 q 218 1356 203 1339 q 250 1373 232 1373 l 601 1378 q 642 1334 629 1370 q 652 1257 654 1298 q 637 1182 650 1217 q 604 1141 624 1147 l 254 1137 z "},"Ů":{"ha":825,"x_min":31,"x_max":810,"o":"m 57 359 q 36 583 41 483 q 33 768 31 684 q 38 924 34 852 q 43 1061 42 996 q 69 1080 47 1069 q 121 1101 91 1092 q 186 1115 151 1109 q 256 1119 222 1120 q 317 1106 289 1118 q 359 1070 345 1095 q 362 904 363 990 q 358 735 361 818 q 355 577 355 652 q 363 443 354 502 q 391 346 372 384 q 449 300 411 308 q 500 345 481 302 q 528 477 519 387 q 536 714 536 568 q 529 1072 536 860 q 547 1088 530 1078 q 589 1105 564 1097 q 643 1116 613 1112 q 703 1116 673 1120 q 758 1099 732 1112 q 798 1058 783 1085 q 806 667 810 833 q 782 385 802 502 q 726 194 762 269 q 637 77 690 119 q 514 18 585 34 q 355 0 444 1 q 226 31 277 0 q 142 113 175 62 q 90 229 110 164 q 57 359 71 293 m 250 1309 q 273 1412 250 1369 q 334 1482 297 1455 q 416 1517 370 1508 q 505 1516 461 1526 q 583 1475 548 1506 q 637 1393 618 1444 q 644 1268 663 1322 q 582 1180 625 1214 q 481 1135 538 1146 q 373 1137 425 1123 q 286 1194 321 1152 q 250 1309 250 1236 m 397 1314 q 412 1270 397 1284 q 442 1257 426 1256 q 473 1272 458 1257 q 487 1314 487 1286 q 473 1353 487 1340 q 442 1366 458 1366 q 412 1353 426 1366 q 397 1314 397 1340 z "},"Ũ":{"ha":825,"x_min":31,"x_max":810,"o":"m 57 359 q 36 583 41 483 q 33 768 31 684 q 38 924 34 852 q 43 1061 42 996 q 69 1080 47 1069 q 121 1101 91 1092 q 186 1115 151 1109 q 256 1119 222 1120 q 317 1106 289 1118 q 359 1070 345 1095 q 362 904 363 990 q 358 735 361 818 q 355 577 355 652 q 363 443 354 502 q 391 346 372 384 q 449 300 411 308 q 500 345 481 302 q 528 477 519 387 q 536 714 536 568 q 529 1072 536 860 q 547 1088 530 1078 q 589 1105 564 1097 q 643 1116 613 1112 q 703 1116 673 1120 q 758 1099 732 1112 q 798 1058 783 1085 q 806 667 810 833 q 782 385 802 502 q 726 194 762 269 q 637 77 690 119 q 514 18 585 34 q 355 0 444 1 q 226 31 277 0 q 142 113 175 62 q 90 229 110 164 q 57 359 71 293 m 203 1160 q 150 1141 176 1128 q 105 1183 123 1153 q 80 1252 87 1214 q 85 1313 73 1290 q 114 1370 90 1335 q 170 1436 138 1405 q 236 1487 202 1468 q 293 1497 270 1507 q 353 1478 330 1497 q 397 1437 377 1459 q 435 1396 416 1415 q 479 1378 453 1378 q 525 1391 507 1378 q 553 1423 543 1404 q 569 1464 564 1442 q 578 1506 574 1487 q 626 1526 594 1530 q 688 1502 658 1522 q 739 1454 719 1482 q 754 1401 760 1426 q 713 1303 742 1345 q 651 1232 684 1261 q 587 1185 618 1203 q 540 1160 556 1168 q 470 1169 500 1153 q 413 1206 439 1185 q 363 1244 387 1226 q 317 1259 340 1261 q 258 1241 286 1264 q 203 1160 231 1218 z "},"Ẃ":{"ha":1223,"x_min":14,"x_max":1227,"o":"m 464 34 q 342 4 411 4 q 201 22 273 4 l 14 1029 q 65 1075 27 1058 q 149 1100 103 1092 q 239 1109 194 1108 q 313 1107 285 1111 l 412 545 l 496 749 q 557 791 521 777 q 629 807 593 806 q 694 800 665 808 q 735 773 723 791 l 833 522 l 906 1065 q 937 1093 911 1084 q 997 1105 962 1103 q 1071 1100 1032 1107 q 1143 1079 1109 1093 q 1201 1042 1177 1065 q 1227 991 1225 1020 l 979 52 q 954 27 975 37 q 904 12 933 18 q 840 5 875 7 q 775 6 806 4 q 722 13 745 8 q 692 24 699 18 l 597 336 l 464 34 m 606 1457 q 654 1482 625 1478 q 711 1474 684 1487 q 758 1436 738 1462 q 777 1373 777 1411 l 633 1146 q 574 1126 606 1120 q 517 1153 543 1131 q 481 1203 492 1175 q 484 1251 469 1232 l 606 1457 z "},"Ŵ":{"ha":1223,"x_min":14,"x_max":1227,"o":"m 464 34 q 342 4 411 4 q 201 22 273 4 l 14 1029 q 65 1075 27 1058 q 149 1100 103 1092 q 239 1109 194 1108 q 313 1107 285 1111 l 412 545 l 496 749 q 557 791 521 777 q 629 807 593 806 q 694 800 665 808 q 735 773 723 791 l 833 522 l 906 1065 q 937 1093 911 1084 q 997 1105 962 1103 q 1071 1100 1032 1107 q 1143 1079 1109 1093 q 1201 1042 1177 1065 q 1227 991 1225 1020 l 979 52 q 954 27 975 37 q 904 12 933 18 q 840 5 875 7 q 775 6 806 4 q 722 13 745 8 q 692 24 699 18 l 597 336 l 464 34 m 840 1256 q 842 1233 845 1251 q 829 1196 840 1215 q 803 1157 819 1176 q 766 1129 787 1138 q 722 1125 746 1120 q 671 1157 697 1130 l 616 1256 l 551 1145 q 503 1127 532 1127 q 445 1141 473 1127 q 393 1181 416 1154 q 359 1245 369 1208 l 509 1462 q 557 1498 526 1488 q 619 1506 587 1508 q 678 1492 651 1504 q 718 1462 705 1480 l 840 1256 z "},"Ẅ":{"ha":1223,"x_min":14,"x_max":1227,"o":"m 464 34 q 342 4 411 4 q 201 22 273 4 l 14 1029 q 65 1075 27 1058 q 149 1100 103 1092 q 239 1109 194 1108 q 313 1107 285 1111 l 412 545 l 496 749 q 557 791 521 777 q 629 807 593 806 q 694 800 665 808 q 735 773 723 791 l 833 522 l 906 1065 q 937 1093 911 1084 q 997 1105 962 1103 q 1071 1100 1032 1107 q 1143 1079 1109 1093 q 1201 1042 1177 1065 q 1227 991 1225 1020 l 979 52 q 954 27 975 37 q 904 12 933 18 q 840 5 875 7 q 775 6 806 4 q 722 13 745 8 q 692 24 699 18 l 597 336 l 464 34 m 446 1142 q 376 1160 404 1142 q 334 1206 349 1179 q 319 1265 320 1233 q 332 1324 319 1297 q 374 1373 346 1352 q 446 1397 403 1393 q 518 1377 490 1396 q 560 1331 547 1359 q 572 1271 574 1303 q 557 1210 571 1238 q 515 1162 543 1181 q 446 1142 487 1143 m 774 1142 q 705 1160 732 1142 q 663 1206 677 1179 q 648 1265 648 1233 q 661 1324 647 1297 q 703 1373 674 1352 q 774 1397 731 1393 q 846 1377 818 1396 q 888 1331 875 1359 q 901 1271 902 1303 q 885 1210 899 1238 q 843 1162 871 1181 q 774 1142 815 1143 z "},"Ẁ":{"ha":1223,"x_min":14,"x_max":1227,"o":"m 464 34 q 342 4 411 4 q 201 22 273 4 l 14 1029 q 65 1075 27 1058 q 149 1100 103 1092 q 239 1109 194 1108 q 313 1107 285 1111 l 412 545 l 496 749 q 557 791 521 777 q 629 807 593 806 q 694 800 665 808 q 735 773 723 791 l 833 522 l 906 1065 q 937 1093 911 1084 q 997 1105 962 1103 q 1071 1100 1032 1107 q 1143 1079 1109 1093 q 1201 1042 1177 1065 q 1227 991 1225 1020 l 979 52 q 954 27 975 37 q 904 12 933 18 q 840 5 875 7 q 775 6 806 4 q 722 13 745 8 q 692 24 699 18 l 597 336 l 464 34 m 739 1251 q 743 1203 754 1232 q 706 1153 731 1175 q 648 1126 681 1131 q 590 1146 616 1120 l 446 1373 q 465 1436 446 1411 q 512 1474 484 1462 q 569 1482 540 1487 q 617 1457 598 1478 l 739 1251 z "},"Ý":{"ha":1019,"x_min":8,"x_max":1006,"o":"m 350 610 l 8 1024 q 41 1076 16 1057 q 96 1103 65 1095 q 162 1114 127 1112 q 225 1114 197 1116 q 273 1107 254 1111 q 293 1100 292 1103 l 507 796 l 667 1101 q 747 1116 696 1111 q 850 1117 798 1122 q 947 1096 903 1112 q 1006 1046 991 1080 l 719 621 l 711 56 q 644 5 686 26 q 551 -21 602 -16 q 446 -11 500 -26 q 345 47 392 4 l 350 610 m 503 1457 q 551 1482 522 1478 q 608 1474 581 1487 q 654 1436 635 1462 q 674 1373 674 1411 l 530 1146 q 471 1126 503 1120 q 414 1153 439 1131 q 378 1203 389 1175 q 381 1251 366 1232 l 503 1457 z "},"Ŷ":{"ha":1019,"x_min":8,"x_max":1006,"o":"m 350 610 l 8 1024 q 41 1076 16 1057 q 96 1103 65 1095 q 162 1114 127 1112 q 225 1114 197 1116 q 273 1107 254 1111 q 293 1100 292 1103 l 507 796 l 667 1101 q 747 1116 696 1111 q 850 1117 798 1122 q 947 1096 903 1112 q 1006 1046 991 1080 l 719 621 l 711 56 q 644 5 686 26 q 551 -21 602 -16 q 446 -11 500 -26 q 345 47 392 4 l 350 610 m 736 1256 q 739 1233 742 1251 q 726 1196 736 1215 q 700 1157 716 1176 q 663 1129 684 1138 q 618 1125 643 1120 q 568 1157 594 1130 l 513 1256 l 448 1145 q 399 1127 429 1127 q 342 1141 370 1127 q 290 1181 313 1154 q 256 1245 266 1208 l 406 1462 q 454 1498 423 1488 q 516 1506 484 1508 q 575 1492 548 1504 q 614 1462 602 1480 l 736 1256 z "},"Ÿ":{"ha":1019,"x_min":8,"x_max":1006,"o":"m 350 610 l 8 1024 q 41 1076 16 1057 q 96 1103 65 1095 q 162 1114 127 1112 q 225 1114 197 1116 q 273 1107 254 1111 q 293 1100 292 1103 l 507 796 l 667 1101 q 747 1116 696 1111 q 850 1117 798 1122 q 947 1096 903 1112 q 1006 1046 991 1080 l 719 621 l 711 56 q 644 5 686 26 q 551 -21 602 -16 q 446 -11 500 -26 q 345 47 392 4 l 350 610 m 343 1142 q 273 1160 301 1142 q 231 1206 245 1179 q 216 1265 217 1233 q 229 1324 216 1297 q 271 1373 243 1352 q 343 1397 300 1393 q 415 1377 387 1396 q 457 1331 444 1359 q 469 1271 471 1303 q 454 1210 468 1238 q 412 1162 439 1181 q 343 1142 384 1143 m 671 1142 q 602 1160 629 1142 q 559 1206 574 1179 q 545 1265 545 1233 q 557 1324 544 1297 q 600 1373 571 1352 q 671 1397 628 1393 q 743 1377 715 1396 q 785 1331 772 1359 q 798 1271 799 1303 q 782 1210 796 1238 q 740 1162 768 1181 q 671 1142 712 1143 z "},"Ỳ":{"ha":1019,"x_min":8,"x_max":1006,"o":"m 350 610 l 8 1024 q 41 1076 16 1057 q 96 1103 65 1095 q 162 1114 127 1112 q 225 1114 197 1116 q 273 1107 254 1111 q 293 1100 292 1103 l 507 796 l 667 1101 q 747 1116 696 1111 q 850 1117 798 1122 q 947 1096 903 1112 q 1006 1046 991 1080 l 719 621 l 711 56 q 644 5 686 26 q 551 -21 602 -16 q 446 -11 500 -26 q 345 47 392 4 l 350 610 m 636 1251 q 640 1203 651 1232 q 603 1153 628 1175 q 545 1126 578 1131 q 487 1146 513 1120 l 343 1373 q 362 1436 343 1411 q 409 1474 381 1462 q 466 1482 437 1487 q 514 1457 495 1478 l 636 1251 z "},"Ź":{"ha":929,"x_min":7,"x_max":932,"o":"m 119 0 q 73 41 88 11 q 52 113 57 72 q 50 201 47 155 q 60 289 53 247 q 73 363 66 331 q 84 410 80 396 q 90 424 83 416 q 112 446 96 431 q 153 488 127 461 q 214 560 178 515 q 298 672 250 605 q 410 836 347 739 l 43 836 q 26 998 7 935 q 107 1097 46 1062 l 777 1105 q 830 1086 814 1104 q 849 1042 846 1069 q 844 981 852 1015 q 821 917 836 948 q 791 859 807 886 q 762 819 774 833 l 450 340 l 823 353 q 908 264 884 313 q 931 167 932 214 q 913 80 930 119 q 878 23 897 41 l 119 0 m 458 1457 q 507 1482 477 1478 q 563 1474 536 1487 q 610 1436 590 1462 q 629 1373 629 1411 l 486 1146 q 427 1126 458 1120 q 370 1153 395 1131 q 333 1203 345 1175 q 336 1251 321 1232 l 458 1457 z "},"Ž":{"ha":929,"x_min":7,"x_max":932,"o":"m 119 0 q 73 41 88 11 q 52 113 57 72 q 50 201 47 155 q 60 289 53 247 q 73 363 66 331 q 84 410 80 396 q 90 424 83 416 q 112 446 96 431 q 153 488 127 461 q 214 560 178 515 q 298 672 250 605 q 410 836 347 739 l 43 836 q 26 998 7 935 q 107 1097 46 1062 l 777 1105 q 830 1086 814 1104 q 849 1042 846 1069 q 844 981 852 1015 q 821 917 836 948 q 791 859 807 886 q 762 819 774 833 l 450 340 l 823 353 q 908 264 884 313 q 931 167 932 214 q 913 80 930 119 q 878 23 897 41 l 119 0 m 570 1166 q 530 1137 557 1149 q 471 1122 503 1124 q 409 1130 439 1120 q 361 1166 378 1139 l 212 1383 q 245 1447 221 1420 q 297 1488 269 1474 q 355 1501 326 1501 q 403 1484 384 1501 l 468 1373 l 524 1472 q 574 1503 549 1499 q 618 1499 598 1508 q 655 1472 639 1491 q 682 1433 671 1453 q 694 1396 692 1413 q 692 1373 697 1378 l 570 1166 z "},"Ż":{"ha":929,"x_min":7,"x_max":932,"o":"m 119 0 q 73 41 88 11 q 52 113 57 72 q 50 201 47 155 q 60 289 53 247 q 73 363 66 331 q 84 410 80 396 q 90 424 83 416 q 112 446 96 431 q 153 488 127 461 q 214 560 178 515 q 298 672 250 605 q 410 836 347 739 l 43 836 q 26 998 7 935 q 107 1097 46 1062 l 777 1105 q 830 1086 814 1104 q 849 1042 846 1069 q 844 981 852 1015 q 821 917 836 948 q 791 859 807 886 q 762 819 774 833 l 450 340 l 823 353 q 908 264 884 313 q 931 167 932 214 q 913 80 930 119 q 878 23 897 41 l 119 0 m 463 1141 q 393 1159 420 1141 q 351 1204 365 1177 q 336 1263 336 1232 q 349 1323 335 1295 q 391 1371 362 1351 q 463 1396 419 1392 q 534 1376 506 1394 q 576 1330 563 1358 q 589 1270 590 1302 q 573 1208 587 1237 q 531 1161 559 1180 q 463 1141 503 1142 z "},"á":{"ha":709,"x_min":8,"x_max":697,"o":"m 418 102 q 302 35 357 52 q 201 27 248 18 q 117 67 155 37 q 56 141 80 98 q 20 237 31 184 q 14 342 8 289 q 61 527 23 441 q 155 672 99 613 q 279 756 210 731 q 420 761 349 781 l 420 807 q 448 829 426 821 q 500 841 471 838 q 564 842 530 844 q 627 831 598 840 q 675 808 655 823 q 697 773 694 793 l 697 65 q 671 24 693 39 q 618 -1 648 8 q 554 -11 589 -9 q 491 -8 519 -12 q 442 5 463 -4 q 420 26 422 14 l 418 102 m 425 541 q 380 541 406 549 q 330 511 354 533 q 290 452 307 488 q 274 368 274 416 q 283 309 274 336 q 310 267 293 282 q 353 252 327 252 q 411 273 378 251 l 425 541 m 349 1184 q 397 1210 368 1206 q 453 1202 426 1214 q 500 1164 480 1190 q 519 1100 519 1138 l 376 873 q 317 853 349 848 q 260 880 285 859 q 223 930 235 902 q 227 978 212 959 l 349 1184 z "},"ă":{"ha":709,"x_min":8,"x_max":697,"o":"m 418 102 q 302 35 357 52 q 201 27 248 18 q 117 67 155 37 q 56 141 80 98 q 20 237 31 184 q 14 342 8 289 q 61 527 23 441 q 155 672 99 613 q 279 756 210 731 q 420 761 349 781 l 420 807 q 448 829 426 821 q 500 841 471 838 q 564 842 530 844 q 627 831 598 840 q 675 808 655 823 q 697 773 694 793 l 697 65 q 671 24 693 39 q 618 -1 648 8 q 554 -11 589 -9 q 491 -8 519 -12 q 442 5 463 -4 q 420 26 422 14 l 418 102 m 425 541 q 380 541 406 549 q 330 511 354 533 q 290 452 307 488 q 274 368 274 416 q 283 309 274 336 q 310 267 293 282 q 353 252 327 252 q 411 273 378 251 l 425 541 m 87 1050 q 94 1087 83 1063 q 125 1130 104 1111 q 175 1154 146 1149 q 235 1137 203 1160 q 275 1074 243 1099 q 348 1047 308 1050 q 427 1068 388 1044 q 488 1149 467 1092 q 542 1157 515 1160 q 588 1141 568 1154 q 618 1105 608 1127 q 628 1054 629 1082 q 566 941 609 985 q 468 876 524 897 q 351 857 412 854 q 236 881 290 859 q 141 946 182 903 q 87 1050 100 989 z "},"â":{"ha":709,"x_min":8,"x_max":697,"o":"m 418 102 q 302 35 357 52 q 201 27 248 18 q 117 67 155 37 q 56 141 80 98 q 20 237 31 184 q 14 342 8 289 q 61 527 23 441 q 155 672 99 613 q 279 756 210 731 q 420 761 349 781 l 420 807 q 448 829 426 821 q 500 841 471 838 q 564 842 530 844 q 627 831 598 840 q 675 808 655 823 q 697 773 694 793 l 697 65 q 671 24 693 39 q 618 -1 648 8 q 554 -11 589 -9 q 491 -8 519 -12 q 442 5 463 -4 q 420 26 422 14 l 418 102 m 425 541 q 380 541 406 549 q 330 511 354 533 q 290 452 307 488 q 274 368 274 416 q 283 309 274 336 q 310 267 293 282 q 353 252 327 252 q 411 273 378 251 l 425 541 m 582 983 q 585 960 587 978 q 572 923 582 943 q 545 884 562 903 q 509 857 529 865 q 464 852 488 848 q 414 884 439 857 l 358 983 l 293 872 q 245 854 274 854 q 187 868 216 854 q 135 909 159 882 q 102 972 111 936 l 251 1190 q 299 1225 269 1215 q 361 1234 330 1236 q 420 1219 393 1232 q 460 1190 448 1207 l 582 983 z "},"ä":{"ha":709,"x_min":8,"x_max":697,"o":"m 418 102 q 302 35 357 52 q 201 27 248 18 q 117 67 155 37 q 56 141 80 98 q 20 237 31 184 q 14 342 8 289 q 61 527 23 441 q 155 672 99 613 q 279 756 210 731 q 420 761 349 781 l 420 807 q 448 829 426 821 q 500 841 471 838 q 564 842 530 844 q 627 831 598 840 q 675 808 655 823 q 697 773 694 793 l 697 65 q 671 24 693 39 q 618 -1 648 8 q 554 -11 589 -9 q 491 -8 519 -12 q 442 5 463 -4 q 420 26 422 14 l 418 102 m 425 541 q 380 541 406 549 q 330 511 354 533 q 290 452 307 488 q 274 368 274 416 q 283 309 274 336 q 310 267 293 282 q 353 252 327 252 q 411 273 378 251 l 425 541 m 189 869 q 119 888 146 869 q 77 933 91 906 q 62 992 62 960 q 75 1052 61 1024 q 117 1100 88 1080 q 189 1124 145 1120 q 260 1105 232 1123 q 302 1059 289 1086 q 315 998 316 1031 q 299 937 313 966 q 257 890 285 909 q 189 869 229 871 m 517 869 q 447 888 475 869 q 405 933 419 906 q 390 992 391 960 q 403 1052 389 1024 q 445 1100 416 1080 q 517 1124 473 1120 q 589 1105 560 1123 q 631 1059 617 1086 q 643 998 644 1031 q 627 937 642 966 q 585 890 613 909 q 517 869 557 871 z "},"ā":{"ha":709,"x_min":8,"x_max":697,"o":"m 418 102 q 302 35 357 52 q 201 27 248 18 q 117 67 155 37 q 56 141 80 98 q 20 237 31 184 q 14 342 8 289 q 61 527 23 441 q 155 672 99 613 q 279 756 210 731 q 420 761 349 781 l 420 807 q 448 829 426 821 q 500 841 471 838 q 564 842 530 844 q 627 831 598 840 q 675 808 655 823 q 697 773 694 793 l 697 65 q 671 24 693 39 q 618 -1 648 8 q 554 -11 589 -9 q 491 -8 519 -12 q 442 5 463 -4 q 420 26 422 14 l 418 102 m 425 541 q 380 541 406 549 q 330 511 354 533 q 290 452 307 488 q 274 368 274 416 q 283 309 274 336 q 310 267 293 282 q 353 252 327 252 q 411 273 378 251 l 425 541 m 197 864 q 154 884 170 865 q 132 928 138 902 q 127 985 125 955 q 138 1040 130 1015 q 161 1083 146 1066 q 193 1100 175 1100 l 544 1105 q 585 1061 572 1097 q 595 985 597 1025 q 580 909 593 944 q 547 868 567 875 l 197 864 z "},"ą":{"ha":709,"x_min":12,"x_max":696,"o":"m 540 -155 q 584 -163 566 -151 q 608 -195 602 -175 q 604 -239 614 -216 q 560 -281 593 -263 q 456 -275 499 -290 q 386 -231 412 -260 q 349 -159 359 -201 q 342 -73 338 -118 q 365 16 346 -28 q 416 96 384 60 l 416 102 q 302 35 355 52 q 204 27 250 18 q 123 67 159 37 q 63 141 88 98 q 25 237 38 184 q 12 342 12 289 q 49 528 12 442 q 144 672 85 613 q 275 756 202 731 q 419 761 347 781 l 419 807 q 447 829 425 821 q 499 841 469 838 q 563 842 529 844 q 625 831 597 840 q 673 808 654 823 q 696 773 693 793 l 696 65 q 663 18 690 35 q 598 -6 635 1 q 522 -12 562 -14 q 456 -1 483 -9 q 458 -53 453 -26 q 475 -103 464 -80 q 502 -141 486 -126 q 540 -155 518 -156 m 423 541 q 378 541 404 549 q 329 511 353 533 q 289 452 305 488 q 273 368 273 416 q 282 309 273 336 q 309 267 292 282 q 351 252 326 252 q 410 273 377 251 l 423 541 z "},"å":{"ha":709,"x_min":8,"x_max":697,"o":"m 418 102 q 302 35 357 52 q 201 27 248 18 q 117 67 155 37 q 56 141 80 98 q 20 237 31 184 q 14 342 8 289 q 61 527 23 441 q 155 672 99 613 q 279 756 210 731 q 420 761 349 781 l 420 807 q 448 829 426 821 q 500 841 471 838 q 564 842 530 844 q 627 831 598 840 q 675 808 655 823 q 697 773 694 793 l 697 65 q 671 24 693 39 q 618 -1 648 8 q 554 -11 589 -9 q 491 -8 519 -12 q 442 5 463 -4 q 420 26 422 14 l 418 102 m 425 541 q 380 541 406 549 q 330 511 354 533 q 290 452 307 488 q 274 368 274 416 q 283 309 274 336 q 310 267 293 282 q 353 252 327 252 q 411 273 378 251 l 425 541 m 194 1044 q 218 1147 194 1104 q 278 1217 241 1191 q 360 1253 315 1244 q 449 1251 406 1261 q 528 1211 492 1241 q 582 1128 563 1180 q 589 1004 608 1058 q 526 916 570 949 q 426 870 483 882 q 317 873 369 859 q 230 929 266 887 q 194 1044 194 971 m 342 1050 q 356 1006 342 1020 q 387 992 370 991 q 417 1007 403 993 q 431 1050 431 1021 q 417 1088 431 1076 q 387 1101 403 1101 q 356 1088 370 1101 q 342 1050 342 1076 z "},"à":{"ha":709,"x_min":8,"x_max":697,"o":"m 418 102 q 302 35 357 52 q 201 27 248 18 q 117 67 155 37 q 56 141 80 98 q 20 237 31 184 q 14 342 8 289 q 61 527 23 441 q 155 672 99 613 q 279 756 210 731 q 420 761 349 781 l 420 807 q 448 829 426 821 q 500 841 471 838 q 564 842 530 844 q 627 831 598 840 q 675 808 655 823 q 697 773 694 793 l 697 65 q 671 24 693 39 q 618 -1 648 8 q 554 -11 589 -9 q 491 -8 519 -12 q 442 5 463 -4 q 420 26 422 14 l 418 102 m 425 541 q 380 541 406 549 q 330 511 354 533 q 290 452 307 488 q 274 368 274 416 q 283 309 274 336 q 310 267 293 282 q 353 252 327 252 q 411 273 378 251 l 425 541 m 481 978 q 485 930 496 959 q 448 880 473 902 q 391 853 423 859 q 332 873 358 848 l 189 1100 q 208 1164 189 1138 q 254 1202 227 1190 q 311 1210 282 1214 q 359 1184 340 1206 l 481 978 z "},"ã":{"ha":709,"x_min":8,"x_max":704,"o":"m 418 102 q 302 35 357 52 q 201 27 248 18 q 117 67 155 37 q 56 141 80 98 q 20 237 31 184 q 14 342 8 289 q 61 527 23 441 q 155 672 99 613 q 279 756 210 731 q 420 761 349 781 l 420 807 q 448 829 426 821 q 500 841 471 838 q 564 842 530 844 q 627 831 598 840 q 675 808 655 823 q 697 773 694 793 l 697 65 q 671 24 693 39 q 618 -1 648 8 q 554 -11 589 -9 q 491 -8 519 -12 q 442 5 463 -4 q 420 26 422 14 l 418 102 m 425 541 q 380 541 406 549 q 330 511 354 533 q 290 452 307 488 q 274 368 274 416 q 283 309 274 336 q 310 267 293 282 q 353 252 327 252 q 411 273 378 251 l 425 541 m 148 887 q 94 868 121 856 q 50 911 68 880 q 24 979 31 941 q 30 1040 18 1017 q 58 1097 34 1062 q 115 1164 83 1133 q 180 1215 146 1195 q 237 1225 214 1234 q 298 1206 274 1225 q 341 1164 321 1187 q 379 1124 361 1142 q 423 1105 397 1105 q 469 1118 452 1105 q 498 1150 487 1131 q 513 1192 509 1169 q 522 1233 518 1214 q 570 1253 538 1257 q 633 1230 602 1249 q 684 1181 663 1210 q 699 1128 704 1153 q 657 1031 686 1073 q 595 960 628 989 q 532 913 563 930 q 484 887 500 895 q 414 897 445 880 q 357 933 384 913 q 308 971 331 954 q 262 986 285 989 q 203 968 231 991 q 148 887 175 945 z "},"æ":{"ha":1053,"x_min":8,"x_max":1035,"o":"m 930 321 q 985 306 960 326 q 1023 254 1010 286 q 1029 186 1035 222 q 991 118 1024 149 q 848 20 920 50 q 711 -12 777 -11 q 586 11 646 -12 q 480 75 526 34 q 361 10 420 24 q 248 8 301 -4 q 149 54 194 20 q 73 135 104 88 q 24 235 41 182 q 12 342 8 289 q 57 511 20 438 q 147 638 94 585 q 265 727 201 692 q 394 785 330 762 q 517 817 458 807 q 616 830 575 827 q 766 816 700 836 q 880 756 833 796 q 953 661 926 716 q 986 538 979 605 q 970 460 990 495 q 917 400 951 426 q 840 358 883 374 q 754 336 796 342 q 675 336 712 331 q 616 358 637 340 q 712 237 629 245 q 930 321 795 228 m 258 323 q 294 250 260 278 q 373 222 327 221 q 366 241 369 232 q 359 262 362 251 q 350 311 354 279 q 345 381 346 342 q 348 465 345 420 q 362 553 351 509 q 322 515 342 537 q 288 464 302 492 q 264 400 273 435 q 258 323 255 365 m 658 564 q 678 525 661 536 q 715 516 696 514 q 750 532 734 518 q 766 570 766 547 q 751 603 768 593 q 713 611 734 613 q 675 597 693 609 q 658 564 658 585 z "},"ǽ":{"ha":1053,"x_min":8,"x_max":1035,"o":"m 930 321 q 985 306 960 326 q 1023 254 1010 286 q 1029 186 1035 222 q 991 118 1024 149 q 848 20 920 50 q 711 -12 777 -11 q 586 11 646 -12 q 480 75 526 34 q 361 10 420 24 q 248 8 301 -4 q 149 54 194 20 q 73 135 104 88 q 24 235 41 182 q 12 342 8 289 q 57 511 20 438 q 147 638 94 585 q 265 727 201 692 q 394 785 330 762 q 517 817 458 807 q 616 830 575 827 q 766 816 700 836 q 880 756 833 796 q 953 661 926 716 q 986 538 979 605 q 970 460 990 495 q 917 400 951 426 q 840 358 883 374 q 754 336 796 342 q 675 336 712 331 q 616 358 637 340 q 712 237 629 245 q 930 321 795 228 m 258 323 q 294 250 260 278 q 373 222 327 221 q 366 241 369 232 q 359 262 362 251 q 350 311 354 279 q 345 381 346 342 q 348 465 345 420 q 362 553 351 509 q 322 515 342 537 q 288 464 302 492 q 264 400 273 435 q 258 323 255 365 m 658 564 q 678 525 661 536 q 715 516 696 514 q 750 532 734 518 q 766 570 766 547 q 751 603 768 593 q 713 611 734 613 q 675 597 693 609 q 658 564 658 585 m 521 1184 q 569 1210 540 1206 q 625 1202 598 1214 q 672 1164 652 1190 q 692 1100 692 1138 l 548 873 q 489 853 521 848 q 432 880 457 859 q 395 930 407 902 q 399 978 384 959 l 521 1184 z "},"ć":{"ha":609,"x_min":19,"x_max":606,"o":"m 23 407 q 56 567 26 491 q 135 700 87 643 q 243 790 183 757 q 365 824 302 823 q 487 786 427 825 q 593 662 547 747 q 585 599 598 629 q 548 547 572 568 q 493 516 524 525 q 433 517 463 507 q 402 574 419 557 q 368 587 385 590 q 335 567 351 585 q 305 524 319 549 q 283 469 292 498 q 273 412 274 439 q 281 351 270 381 q 315 307 293 321 q 364 298 336 292 q 423 347 392 305 q 469 372 439 372 q 528 357 499 372 q 581 319 557 343 q 606 275 604 296 q 501 113 563 174 q 373 31 439 53 q 242 24 307 9 q 127 87 178 38 q 48 216 77 136 q 23 407 19 297 m 298 1184 q 347 1210 317 1206 q 403 1202 376 1214 q 450 1164 430 1190 q 469 1100 469 1138 l 326 873 q 267 853 298 848 q 210 880 235 859 q 173 930 184 902 q 176 978 161 959 l 298 1184 z "},"č":{"ha":609,"x_min":19,"x_max":606,"o":"m 23 407 q 56 567 26 491 q 135 700 87 643 q 243 790 183 757 q 365 824 302 823 q 487 786 427 825 q 593 662 547 747 q 585 599 598 629 q 548 547 572 568 q 493 516 524 525 q 433 517 463 507 q 402 574 419 557 q 368 587 385 590 q 335 567 351 585 q 305 524 319 549 q 283 469 292 498 q 273 412 274 439 q 281 351 270 381 q 315 307 293 321 q 364 298 336 292 q 423 347 392 305 q 469 372 439 372 q 528 357 499 372 q 581 319 557 343 q 606 275 604 296 q 501 113 563 174 q 373 31 439 53 q 242 24 307 9 q 127 87 178 38 q 48 216 77 136 q 23 407 19 297 m 410 894 q 370 864 397 876 q 311 850 343 852 q 249 857 279 848 q 201 894 218 867 l 52 1111 q 85 1175 61 1147 q 137 1215 109 1202 q 195 1229 165 1229 q 243 1211 224 1229 l 308 1100 l 363 1199 q 414 1231 389 1226 q 458 1227 438 1236 q 495 1199 479 1218 q 522 1160 511 1180 q 534 1123 532 1141 q 532 1100 537 1105 l 410 894 z "},"ç":{"ha":609,"x_min":18,"x_max":606,"o":"m 189 -407 q 160 -350 165 -377 q 159 -300 155 -323 q 177 -260 164 -278 q 203 -228 190 -241 q 220 -235 205 -231 q 258 -241 236 -239 q 306 -243 281 -244 q 351 -237 331 -243 q 385 -218 372 -231 q 395 -182 397 -205 q 372 -144 392 -155 q 326 -132 353 -134 q 270 -127 300 -129 q 216 -118 240 -126 q 178 -90 193 -110 q 168 -26 164 -69 l 164 57 q 58 189 99 100 q 23 407 18 277 q 56 567 26 491 q 135 700 87 643 q 243 790 183 757 q 365 824 302 823 q 487 786 427 825 q 593 662 547 747 q 585 599 598 629 q 548 547 572 568 q 493 516 524 525 q 433 517 463 507 q 402 574 419 557 q 368 587 385 590 q 335 567 351 585 q 305 524 319 549 q 283 469 292 498 q 273 412 274 439 q 281 351 270 381 q 315 307 293 321 q 364 298 336 292 q 423 347 392 305 q 469 372 439 372 q 528 357 499 372 q 581 319 557 343 q 606 275 604 296 q 496 109 560 170 q 362 27 431 47 l 363 14 q 438 0 400 14 q 508 -39 476 -14 q 562 -99 540 -64 q 586 -178 583 -134 q 494 -382 597 -321 q 189 -407 392 -442 m 206 -225 q 203 -228 203 -225 q 206 -225 201 -225 z "},"ĉ":{"ha":609,"x_min":19,"x_max":606,"o":"m 23 407 q 56 567 26 491 q 135 700 87 643 q 243 790 183 757 q 365 824 302 823 q 487 786 427 825 q 593 662 547 747 q 585 599 598 629 q 548 547 572 568 q 493 516 524 525 q 433 517 463 507 q 402 574 419 557 q 368 587 385 590 q 335 567 351 585 q 305 524 319 549 q 283 469 292 498 q 273 412 274 439 q 281 351 270 381 q 315 307 293 321 q 364 298 336 292 q 423 347 392 305 q 469 372 439 372 q 528 357 499 372 q 581 319 557 343 q 606 275 604 296 q 501 113 563 174 q 373 31 439 53 q 242 24 307 9 q 127 87 178 38 q 48 216 77 136 q 23 407 19 297 m 532 983 q 534 960 537 978 q 522 923 532 943 q 495 884 511 903 q 458 857 479 865 q 414 852 438 848 q 363 884 389 857 l 308 983 l 243 872 q 195 854 224 854 q 137 868 165 854 q 85 909 109 882 q 52 972 61 936 l 201 1190 q 249 1225 218 1215 q 311 1234 279 1236 q 370 1219 343 1232 q 410 1190 397 1207 l 532 983 z "},"ċ":{"ha":609,"x_min":19,"x_max":606,"o":"m 23 407 q 56 567 26 491 q 135 700 87 643 q 243 790 183 757 q 365 824 302 823 q 487 786 427 825 q 593 662 547 747 q 585 599 598 629 q 548 547 572 568 q 493 516 524 525 q 433 517 463 507 q 402 574 419 557 q 368 587 385 590 q 335 567 351 585 q 305 524 319 549 q 283 469 292 498 q 273 412 274 439 q 281 351 270 381 q 315 307 293 321 q 364 298 336 292 q 423 347 392 305 q 469 372 439 372 q 528 357 499 372 q 581 319 557 343 q 606 275 604 296 q 501 113 563 174 q 373 31 439 53 q 242 24 307 9 q 127 87 178 38 q 48 216 77 136 q 23 407 19 297 m 302 868 q 233 886 260 868 q 191 932 205 905 q 176 991 176 959 q 189 1050 175 1023 q 231 1099 202 1078 q 302 1123 259 1119 q 374 1103 346 1122 q 416 1057 403 1085 q 429 997 430 1029 q 413 936 427 964 q 371 888 399 907 q 302 868 343 869 z "},"ď":{"ha":1080,"x_min":15,"x_max":1057,"o":"m 19 275 q 22 432 15 353 q 48 582 30 511 q 98 707 66 652 q 172 790 129 762 q 272 812 216 818 q 400 757 328 807 l 399 1048 q 414 1075 396 1061 q 459 1101 431 1089 q 520 1119 487 1112 q 583 1123 553 1126 q 635 1107 613 1120 q 663 1065 658 1093 l 663 58 q 587 9 629 22 q 506 -3 545 -4 q 435 8 467 -1 q 391 26 403 18 l 391 121 q 256 5 321 26 q 140 16 191 -15 q 56 118 88 47 q 19 275 23 189 m 228 419 q 253 313 229 346 q 304 288 277 279 q 356 349 332 297 q 380 495 380 400 q 357 554 377 530 q 310 575 336 578 q 260 537 283 572 q 228 419 236 502 m 760 670 q 784 686 765 673 q 821 720 803 699 q 851 768 840 741 q 854 830 863 796 q 774 827 807 818 q 721 860 741 837 q 696 916 701 883 q 700 981 692 948 q 730 1045 708 1015 q 787 1096 751 1076 q 863 1114 822 1116 q 941 1088 903 1111 q 1007 1025 978 1066 q 1048 929 1036 985 q 1034 804 1057 864 q 970 705 1012 745 q 872 654 928 666 q 760 670 817 642 z "},"đ":{"ha":688,"x_min":15,"x_max":732,"o":"m 19 275 q 22 432 15 353 q 48 582 30 511 q 98 707 66 652 q 172 790 129 762 q 272 812 216 818 q 400 757 328 807 l 400 811 l 387 811 q 338 846 351 814 q 327 916 324 878 q 345 984 330 954 q 384 1015 361 1015 l 399 1015 l 399 1048 q 414 1075 396 1061 q 459 1101 431 1089 q 520 1119 487 1112 q 583 1123 553 1126 q 635 1107 613 1120 q 663 1065 658 1093 l 663 1017 l 688 1019 q 722 981 712 1012 q 731 916 732 951 q 718 851 730 882 q 689 815 707 821 l 663 814 l 663 58 q 587 9 629 22 q 506 -3 545 -4 q 435 8 467 -1 q 391 26 403 18 l 391 121 q 256 5 321 26 q 140 16 191 -15 q 56 118 88 47 q 19 275 23 189 m 228 419 q 253 313 229 346 q 304 288 277 279 q 356 349 332 297 q 380 495 380 400 q 357 554 377 530 q 310 575 336 578 q 260 537 283 572 q 228 419 236 502 z "},"é":{"ha":699,"x_min":9,"x_max":701,"o":"m 597 334 q 652 318 627 338 q 689 267 677 298 q 696 198 701 235 q 658 130 690 161 q 519 33 589 64 q 384 1 449 3 q 260 20 319 -1 q 155 80 202 42 q 74 168 107 118 q 26 274 41 218 q 14 344 19 298 q 12 445 9 389 q 28 561 15 500 q 71 675 41 621 q 149 770 100 728 q 273 829 198 811 q 426 831 355 848 q 547 775 496 815 q 626 676 598 735 q 652 551 654 617 q 605 441 650 487 q 498 370 560 395 q 369 345 435 346 q 258 368 302 343 q 293 282 264 312 q 367 248 321 252 q 471 265 412 244 q 597 334 529 286 m 298 582 q 320 549 300 557 q 364 543 340 541 q 409 556 388 545 q 433 582 430 567 q 417 615 437 605 q 371 625 397 625 q 321 613 345 624 q 298 582 298 602 m 343 1184 q 391 1210 362 1206 q 448 1202 420 1214 q 494 1164 475 1190 q 514 1100 514 1138 l 370 873 q 311 853 343 848 q 254 880 279 859 q 218 930 229 902 q 221 978 206 959 l 343 1184 z "},"ĕ":{"ha":699,"x_min":9,"x_max":701,"o":"m 597 334 q 652 318 627 338 q 689 267 677 298 q 696 198 701 235 q 658 130 690 161 q 519 33 589 64 q 384 1 449 3 q 260 20 319 -1 q 155 80 202 42 q 74 168 107 118 q 26 274 41 218 q 14 344 19 298 q 12 445 9 389 q 28 561 15 500 q 71 675 41 621 q 149 770 100 728 q 273 829 198 811 q 426 831 355 848 q 547 775 496 815 q 626 676 598 735 q 652 551 654 617 q 605 441 650 487 q 498 370 560 395 q 369 345 435 346 q 258 368 302 343 q 293 282 264 312 q 367 248 321 252 q 471 265 412 244 q 597 334 529 286 m 298 582 q 320 549 300 557 q 364 543 340 541 q 409 556 388 545 q 433 582 430 567 q 417 615 437 605 q 371 625 397 625 q 321 613 345 624 q 298 582 298 602 m 81 1050 q 88 1087 77 1063 q 120 1130 99 1111 q 170 1154 141 1149 q 229 1137 198 1160 q 270 1074 237 1099 q 342 1047 302 1050 q 422 1068 382 1044 q 483 1149 461 1092 q 536 1157 510 1160 q 583 1141 563 1154 q 613 1105 602 1127 q 623 1054 624 1082 q 561 941 604 985 q 463 876 518 897 q 346 857 407 854 q 231 881 285 859 q 136 946 176 903 q 81 1050 95 989 z "},"ě":{"ha":699,"x_min":9,"x_max":701,"o":"m 597 334 q 652 318 627 338 q 689 267 677 298 q 696 198 701 235 q 658 130 690 161 q 519 33 589 64 q 384 1 449 3 q 260 20 319 -1 q 155 80 202 42 q 74 168 107 118 q 26 274 41 218 q 14 344 19 298 q 12 445 9 389 q 28 561 15 500 q 71 675 41 621 q 149 770 100 728 q 273 829 198 811 q 426 831 355 848 q 547 775 496 815 q 626 676 598 735 q 652 551 654 617 q 605 441 650 487 q 498 370 560 395 q 369 345 435 346 q 258 368 302 343 q 293 282 264 312 q 367 248 321 252 q 471 265 412 244 q 597 334 529 286 m 298 582 q 320 549 300 557 q 364 543 340 541 q 409 556 388 545 q 433 582 430 567 q 417 615 437 605 q 371 625 397 625 q 321 613 345 624 q 298 582 298 602 m 454 894 q 415 864 442 876 q 356 850 388 852 q 294 857 324 848 q 245 894 263 867 l 96 1111 q 130 1175 106 1147 q 182 1215 153 1202 q 239 1229 210 1229 q 288 1211 269 1229 l 353 1100 l 408 1199 q 458 1231 434 1226 q 503 1227 483 1236 q 540 1199 524 1218 q 566 1160 556 1180 q 579 1123 576 1141 q 576 1100 582 1105 l 454 894 z "},"ê":{"ha":699,"x_min":9,"x_max":701,"o":"m 597 334 q 652 318 627 338 q 689 267 677 298 q 696 198 701 235 q 658 130 690 161 q 519 33 589 64 q 384 1 449 3 q 260 20 319 -1 q 155 80 202 42 q 74 168 107 118 q 26 274 41 218 q 14 344 19 298 q 12 445 9 389 q 28 561 15 500 q 71 675 41 621 q 149 770 100 728 q 273 829 198 811 q 426 831 355 848 q 547 775 496 815 q 626 676 598 735 q 652 551 654 617 q 605 441 650 487 q 498 370 560 395 q 369 345 435 346 q 258 368 302 343 q 293 282 264 312 q 367 248 321 252 q 471 265 412 244 q 597 334 529 286 m 298 582 q 320 549 300 557 q 364 543 340 541 q 409 556 388 545 q 433 582 430 567 q 417 615 437 605 q 371 625 397 625 q 321 613 345 624 q 298 582 298 602 m 576 983 q 579 960 582 978 q 566 923 576 943 q 540 884 556 903 q 503 857 524 865 q 458 852 483 848 q 408 884 434 857 l 353 983 l 288 872 q 239 854 269 854 q 182 868 210 854 q 130 909 153 882 q 96 972 106 936 l 245 1190 q 294 1225 263 1215 q 356 1234 324 1236 q 415 1219 388 1232 q 454 1190 442 1207 l 576 983 z "},"ë":{"ha":699,"x_min":9,"x_max":701,"o":"m 597 334 q 652 318 627 338 q 689 267 677 298 q 696 198 701 235 q 658 130 690 161 q 519 33 589 64 q 384 1 449 3 q 260 20 319 -1 q 155 80 202 42 q 74 168 107 118 q 26 274 41 218 q 14 344 19 298 q 12 445 9 389 q 28 561 15 500 q 71 675 41 621 q 149 770 100 728 q 273 829 198 811 q 426 831 355 848 q 547 775 496 815 q 626 676 598 735 q 652 551 654 617 q 605 441 650 487 q 498 370 560 395 q 369 345 435 346 q 258 368 302 343 q 293 282 264 312 q 367 248 321 252 q 471 265 412 244 q 597 334 529 286 m 298 582 q 320 549 300 557 q 364 543 340 541 q 409 556 388 545 q 433 582 430 567 q 417 615 437 605 q 371 625 397 625 q 321 613 345 624 q 298 582 298 602 m 183 869 q 113 888 141 869 q 71 933 85 906 q 56 992 57 960 q 69 1052 56 1024 q 111 1100 83 1080 q 183 1124 140 1120 q 255 1105 227 1123 q 297 1059 283 1086 q 309 998 311 1031 q 294 937 308 966 q 252 890 279 909 q 183 869 224 871 m 511 869 q 441 888 469 869 q 399 933 414 906 q 385 992 385 960 q 397 1052 384 1024 q 439 1100 411 1080 q 511 1124 468 1120 q 583 1105 555 1123 q 625 1059 612 1086 q 637 998 639 1031 q 622 937 636 966 q 580 890 608 909 q 511 869 552 871 z "},"è":{"ha":699,"x_min":9,"x_max":701,"o":"m 597 334 q 652 318 627 338 q 689 267 677 298 q 696 198 701 235 q 658 130 690 161 q 519 33 589 64 q 384 1 449 3 q 260 20 319 -1 q 155 80 202 42 q 74 168 107 118 q 26 274 41 218 q 14 344 19 298 q 12 445 9 389 q 28 561 15 500 q 71 675 41 621 q 149 770 100 728 q 273 829 198 811 q 426 831 355 848 q 547 775 496 815 q 626 676 598 735 q 652 551 654 617 q 605 441 650 487 q 498 370 560 395 q 369 345 435 346 q 258 368 302 343 q 293 282 264 312 q 367 248 321 252 q 471 265 412 244 q 597 334 529 286 m 298 582 q 320 549 300 557 q 364 543 340 541 q 409 556 388 545 q 433 582 430 567 q 417 615 437 605 q 371 625 397 625 q 321 613 345 624 q 298 582 298 602 m 476 978 q 479 930 491 959 q 443 880 468 902 q 385 853 418 859 q 327 873 353 848 l 183 1100 q 202 1164 183 1138 q 249 1202 221 1190 q 306 1210 277 1214 q 354 1184 335 1206 l 476 978 z "},"ė":{"ha":699,"x_min":9,"x_max":701,"o":"m 597 334 q 652 318 627 338 q 689 267 677 298 q 696 198 701 235 q 658 130 690 161 q 519 33 589 64 q 384 1 449 3 q 260 20 319 -1 q 155 80 202 42 q 74 168 107 118 q 26 274 41 218 q 14 344 19 298 q 12 445 9 389 q 28 561 15 500 q 71 675 41 621 q 149 770 100 728 q 273 829 198 811 q 426 831 355 848 q 547 775 496 815 q 626 676 598 735 q 652 551 654 617 q 605 441 650 487 q 498 370 560 395 q 369 345 435 346 q 258 368 302 343 q 293 282 264 312 q 367 248 321 252 q 471 265 412 244 q 597 334 529 286 m 298 582 q 320 549 300 557 q 364 543 340 541 q 409 556 388 545 q 433 582 430 567 q 417 615 437 605 q 371 625 397 625 q 321 613 345 624 q 298 582 298 602 m 347 868 q 277 886 305 868 q 235 932 250 905 q 220 991 221 959 q 233 1050 220 1023 q 275 1099 247 1078 q 347 1123 304 1119 q 419 1103 391 1122 q 461 1057 448 1085 q 473 997 475 1029 q 458 936 472 964 q 416 888 444 907 q 347 868 388 869 z "},"ē":{"ha":699,"x_min":9,"x_max":701,"o":"m 597 334 q 652 318 627 338 q 689 267 677 298 q 696 198 701 235 q 658 130 690 161 q 519 33 589 64 q 384 1 449 3 q 260 20 319 -1 q 155 80 202 42 q 74 168 107 118 q 26 274 41 218 q 14 344 19 298 q 12 445 9 389 q 28 561 15 500 q 71 675 41 621 q 149 770 100 728 q 273 829 198 811 q 426 831 355 848 q 547 775 496 815 q 626 676 598 735 q 652 551 654 617 q 605 441 650 487 q 498 370 560 395 q 369 345 435 346 q 258 368 302 343 q 293 282 264 312 q 367 248 321 252 q 471 265 412 244 q 597 334 529 286 m 298 582 q 320 549 300 557 q 364 543 340 541 q 409 556 388 545 q 433 582 430 567 q 417 615 437 605 q 371 625 397 625 q 321 613 345 624 q 298 582 298 602 m 191 864 q 149 884 164 865 q 126 928 133 902 q 122 985 119 955 q 133 1040 125 1015 q 155 1083 141 1066 q 187 1100 170 1100 l 538 1105 q 579 1061 567 1097 q 589 985 591 1025 q 574 909 587 944 q 541 868 562 875 l 191 864 z "},"ę":{"ha":699,"x_min":9,"x_max":701,"o":"m 583 -155 q 627 -163 609 -151 q 652 -195 646 -175 q 647 -239 658 -216 q 604 -281 636 -263 q 482 -269 530 -292 q 410 -203 434 -245 q 384 -106 385 -161 q 403 1 382 -52 q 273 15 335 -5 q 161 74 212 35 q 76 165 111 113 q 26 274 41 217 q 14 344 19 298 q 12 445 9 389 q 28 561 15 500 q 71 675 41 621 q 149 770 100 728 q 273 829 198 811 q 422 831 355 848 q 538 775 490 815 q 616 676 587 735 q 652 551 646 617 q 637 473 656 507 q 583 412 617 438 q 506 370 549 387 q 420 349 463 354 q 341 348 378 343 q 282 370 304 353 q 378 249 296 258 q 597 334 461 240 q 652 318 627 338 q 689 267 677 298 q 696 198 701 235 q 658 130 690 161 q 581 68 618 94 q 505 27 543 43 q 498 -29 496 3 q 511 -90 500 -61 q 540 -137 521 -118 q 583 -155 559 -156 m 324 576 q 345 537 327 548 q 381 528 362 526 q 416 545 400 530 q 433 582 433 559 q 417 615 434 605 q 380 623 400 625 q 342 609 359 621 q 324 576 324 597 z "},"ğ":{"ha":705,"x_min":24,"x_max":689,"o":"m 414 37 q 246 2 319 -12 q 125 71 174 16 q 52 210 77 126 q 26 385 27 294 q 50 562 26 476 q 123 708 75 648 q 244 789 171 768 q 416 770 317 810 l 418 814 q 453 833 418 823 q 532 844 488 842 q 614 838 576 846 q 659 806 652 830 q 659 715 654 787 q 671 541 663 644 q 684 313 678 438 q 685 62 689 189 q 663 -180 681 -64 q 605 -385 644 -297 q 500 -522 566 -473 q 335 -559 434 -570 q 190 -506 251 -549 q 91 -399 129 -463 q 39 -258 53 -335 q 33 -104 24 -182 q 65 -45 43 -64 q 114 -24 87 -27 q 169 -29 141 -20 q 219 -51 197 -38 q 255 -79 241 -64 q 266 -102 269 -94 q 274 -176 266 -144 q 294 -229 282 -208 q 318 -262 305 -251 q 340 -273 331 -273 q 393 -242 374 -273 q 418 -165 411 -212 q 422 -64 425 -118 q 414 37 420 -11 m 271 480 q 268 374 262 418 q 289 307 274 331 q 323 278 304 282 q 361 292 343 274 q 391 348 378 309 q 403 449 403 387 q 383 533 403 505 q 339 564 363 562 q 294 545 315 567 q 271 480 273 524 m 85 1050 q 92 1087 81 1063 q 124 1130 103 1111 q 174 1154 145 1149 q 233 1137 202 1160 q 274 1074 241 1099 q 347 1047 307 1050 q 426 1068 387 1044 q 487 1149 465 1092 q 541 1157 514 1160 q 587 1141 567 1154 q 617 1105 606 1127 q 627 1054 628 1082 q 565 941 608 985 q 467 876 522 897 q 350 857 411 854 q 235 881 289 859 q 140 946 180 903 q 85 1050 99 989 z "},"ĝ":{"ha":705,"x_min":24,"x_max":689,"o":"m 414 37 q 246 2 319 -12 q 125 71 174 16 q 52 210 77 126 q 26 385 27 294 q 50 562 26 476 q 123 708 75 648 q 244 789 171 768 q 416 770 317 810 l 418 814 q 453 833 418 823 q 532 844 488 842 q 614 838 576 846 q 659 806 652 830 q 659 715 654 787 q 671 541 663 644 q 684 313 678 438 q 685 62 689 189 q 663 -180 681 -64 q 605 -385 644 -297 q 500 -522 566 -473 q 335 -559 434 -570 q 190 -506 251 -549 q 91 -399 129 -463 q 39 -258 53 -335 q 33 -104 24 -182 q 65 -45 43 -64 q 114 -24 87 -27 q 169 -29 141 -20 q 219 -51 197 -38 q 255 -79 241 -64 q 266 -102 269 -94 q 274 -176 266 -144 q 294 -229 282 -208 q 318 -262 305 -251 q 340 -273 331 -273 q 393 -242 374 -273 q 418 -165 411 -212 q 422 -64 425 -118 q 414 37 420 -11 m 271 480 q 268 374 262 418 q 289 307 274 331 q 323 278 304 282 q 361 292 343 274 q 391 348 378 309 q 403 449 403 387 q 383 533 403 505 q 339 564 363 562 q 294 545 315 567 q 271 480 273 524 m 581 983 q 583 960 586 978 q 570 923 581 943 q 544 884 560 903 q 507 857 528 865 q 463 852 487 848 q 412 884 438 857 l 357 983 l 292 872 q 243 854 273 854 q 186 868 214 854 q 134 909 157 882 q 100 972 110 936 l 250 1190 q 298 1225 267 1215 q 360 1234 328 1236 q 419 1219 392 1232 q 458 1190 446 1207 l 581 983 z "},"ģ":{"ha":705,"x_min":24,"x_max":689,"o":"m 414 37 q 246 2 319 -12 q 125 71 174 16 q 52 210 77 126 q 26 385 27 294 q 50 562 26 476 q 123 708 75 648 q 244 789 171 768 q 416 770 317 810 l 418 814 q 453 833 418 823 q 532 844 488 842 q 614 838 576 846 q 659 806 652 830 q 659 715 654 787 q 671 541 663 644 q 684 313 678 438 q 685 62 689 189 q 663 -180 681 -64 q 605 -385 644 -297 q 500 -522 566 -473 q 335 -559 434 -570 q 190 -506 251 -549 q 91 -399 129 -463 q 39 -258 53 -335 q 33 -104 24 -182 q 65 -45 43 -64 q 114 -24 87 -27 q 169 -29 141 -20 q 219 -51 197 -38 q 255 -79 241 -64 q 266 -102 269 -94 q 274 -176 266 -144 q 294 -229 282 -208 q 318 -262 305 -251 q 340 -273 331 -273 q 393 -242 374 -273 q 418 -165 411 -212 q 422 -64 425 -118 q 414 37 420 -11 m 271 480 q 268 374 262 418 q 289 307 274 331 q 323 278 304 282 q 361 292 343 274 q 391 348 378 309 q 403 449 403 387 q 383 533 403 505 q 339 564 363 562 q 294 545 315 567 q 271 480 273 524 m 452 943 q 339 926 395 914 q 241 978 283 939 q 177 1077 199 1017 q 163 1202 155 1137 q 204 1298 175 1257 q 271 1361 233 1339 q 349 1386 308 1383 q 425 1369 389 1389 q 481 1318 460 1350 q 511 1254 503 1287 q 515 1188 519 1221 q 490 1133 510 1156 q 437 1100 471 1109 q 357 1103 404 1090 q 360 1041 349 1069 q 390 992 372 1013 q 427 958 408 971 q 452 943 446 945 z "},"ġ":{"ha":705,"x_min":24,"x_max":689,"o":"m 414 37 q 246 2 319 -12 q 125 71 174 16 q 52 210 77 126 q 26 385 27 294 q 50 562 26 476 q 123 708 75 648 q 244 789 171 768 q 416 770 317 810 l 418 814 q 453 833 418 823 q 532 844 488 842 q 614 838 576 846 q 659 806 652 830 q 659 715 654 787 q 671 541 663 644 q 684 313 678 438 q 685 62 689 189 q 663 -180 681 -64 q 605 -385 644 -297 q 500 -522 566 -473 q 335 -559 434 -570 q 190 -506 251 -549 q 91 -399 129 -463 q 39 -258 53 -335 q 33 -104 24 -182 q 65 -45 43 -64 q 114 -24 87 -27 q 169 -29 141 -20 q 219 -51 197 -38 q 255 -79 241 -64 q 266 -102 269 -94 q 274 -176 266 -144 q 294 -229 282 -208 q 318 -262 305 -251 q 340 -273 331 -273 q 393 -242 374 -273 q 418 -165 411 -212 q 422 -64 425 -118 q 414 37 420 -11 m 271 480 q 268 374 262 418 q 289 307 274 331 q 323 278 304 282 q 361 292 343 274 q 391 348 378 309 q 403 449 403 387 q 383 533 403 505 q 339 564 363 562 q 294 545 315 567 q 271 480 273 524 m 351 868 q 281 886 309 868 q 239 932 254 905 q 224 991 225 959 q 237 1050 224 1023 q 279 1099 251 1078 q 351 1123 308 1119 q 423 1103 395 1122 q 465 1057 452 1085 q 477 997 479 1029 q 462 936 476 964 q 420 888 448 907 q 351 868 392 869 z "},"ħ":{"ha":699,"x_min":-81,"x_max":674,"o":"m 292 766 l 292 704 q 457 839 384 825 q 580 769 530 853 q 652 505 629 685 q 665 56 674 324 q 614 20 650 34 q 541 3 579 7 q 471 8 503 0 q 431 39 439 16 q 429 201 427 122 q 430 346 430 281 q 426 457 430 411 q 408 519 422 503 q 368 517 395 536 q 294 435 340 499 l 288 37 q 221 4 259 14 q 146 -5 183 -5 q 78 5 110 -4 q 28 28 46 14 l 22 764 l -9 764 q -52 783 -37 765 q -75 828 -68 802 q -79 884 -81 854 q -68 940 -76 914 q -45 983 -60 966 q -14 1000 -31 1000 l 19 1000 l 19 1047 q 65 1080 28 1063 q 146 1105 102 1097 q 233 1103 191 1112 q 296 1058 275 1095 l 294 1004 l 338 1005 q 378 961 366 997 q 389 884 391 925 q 374 809 387 844 q 340 768 361 774 l 292 766 z "},"ĥ":{"ha":699,"x_min":19,"x_max":708,"o":"m 19 1047 q 65 1080 28 1063 q 146 1105 102 1097 q 233 1103 191 1112 q 296 1058 275 1095 l 292 704 q 457 839 384 825 q 580 769 530 853 q 652 505 629 685 q 665 56 674 324 q 614 20 650 34 q 541 3 579 7 q 471 8 503 0 q 431 39 439 16 q 429 201 427 122 q 430 346 430 281 q 426 457 430 411 q 408 519 422 503 q 368 517 395 536 q 294 435 340 499 l 288 37 q 221 4 259 14 q 146 -5 183 -5 q 78 5 110 -4 q 28 28 46 14 l 19 1047 m 703 1229 q 705 1206 708 1223 q 692 1168 703 1188 q 666 1130 682 1149 q 629 1102 650 1111 q 585 1098 609 1093 q 534 1130 560 1103 l 479 1229 l 414 1118 q 366 1100 395 1100 q 308 1114 336 1100 q 256 1154 279 1127 q 222 1218 232 1181 l 372 1435 q 420 1471 389 1461 q 482 1479 450 1481 q 541 1465 514 1477 q 581 1435 568 1453 l 703 1229 z "},"í":{"ha":358,"x_min":34,"x_max":345,"o":"m 34 796 q 100 829 58 817 q 184 840 141 841 q 262 825 227 840 q 315 777 298 810 l 320 77 q 269 28 308 43 q 186 12 231 12 q 100 26 141 12 q 39 65 58 41 l 34 796 m 174 1184 q 222 1210 193 1206 q 278 1202 251 1214 q 325 1164 305 1190 q 345 1100 345 1138 l 201 873 q 142 853 174 848 q 85 880 110 859 q 48 930 60 902 q 52 978 37 959 l 174 1184 z "},"î":{"ha":358,"x_min":-72,"x_max":414,"o":"m 34 796 q 100 829 58 817 q 184 840 141 841 q 262 825 227 840 q 315 777 298 810 l 320 77 q 269 28 308 43 q 186 12 231 12 q 100 26 141 12 q 39 65 58 41 l 34 796 m 408 983 q 411 960 414 978 q 398 923 408 943 q 372 884 388 903 q 335 857 355 865 q 290 852 315 848 q 240 884 266 857 l 184 983 l 119 872 q 71 854 100 854 q 14 868 42 854 q -39 909 -15 882 q -72 972 -62 936 l 77 1190 q 125 1225 95 1215 q 188 1234 156 1236 q 247 1219 220 1232 q 286 1190 274 1207 l 408 983 z "},"ï":{"ha":358,"x_min":-113,"x_max":471,"o":"m 34 796 q 100 829 58 817 q 184 840 141 841 q 262 825 227 840 q 315 777 298 810 l 320 77 q 269 28 308 43 q 186 12 231 12 q 100 26 141 12 q 39 65 58 41 l 34 796 m 15 869 q -55 888 -27 869 q -97 933 -83 906 q -112 992 -111 960 q -99 1052 -113 1024 q -57 1100 -85 1080 q 15 1124 -28 1120 q 87 1105 58 1123 q 129 1059 115 1086 q 141 998 142 1031 q 125 937 140 966 q 83 890 111 909 q 15 869 56 871 m 343 869 q 273 888 301 869 q 231 933 245 906 q 216 992 217 960 q 229 1052 216 1024 q 271 1100 243 1080 q 343 1124 300 1120 q 415 1105 387 1123 q 457 1059 444 1086 q 469 998 471 1031 q 454 937 468 966 q 412 890 439 909 q 343 869 384 871 z "},"ì":{"ha":358,"x_min":15,"x_max":323,"o":"m 34 796 q 100 829 58 817 q 184 840 141 841 q 262 825 227 840 q 315 777 298 810 l 320 77 q 269 28 308 43 q 186 12 231 12 q 100 26 141 12 q 39 65 58 41 l 34 796 m 308 978 q 311 930 323 959 q 275 880 300 902 q 217 853 250 859 q 159 873 184 848 l 15 1100 q 34 1164 15 1138 q 81 1202 53 1190 q 138 1210 109 1214 q 186 1184 167 1206 l 308 978 z "},"ī":{"ha":358,"x_min":-49,"x_max":423,"o":"m 34 796 q 100 829 58 817 q 184 840 141 841 q 262 825 227 840 q 315 777 298 810 l 320 77 q 269 28 308 43 q 186 12 231 12 q 100 26 141 12 q 39 65 58 41 l 34 796 m 23 864 q -20 884 -4 865 q -42 928 -35 902 q -46 985 -49 955 q -35 1040 -43 1015 q -13 1083 -27 1066 q 19 1100 1 1100 l 370 1105 q 411 1061 399 1097 q 421 985 423 1025 q 406 909 419 944 q 373 868 393 875 l 23 864 z "},"į":{"ha":358,"x_min":-33,"x_max":320,"o":"m 174 -132 q 218 -140 199 -127 q 242 -172 236 -152 q 237 -216 248 -193 q 194 -258 227 -240 q 54 -237 106 -271 q -15 -144 3 -202 q -18 -18 -33 -87 q 39 106 -4 50 l 34 796 q 100 829 58 817 q 184 840 141 841 q 262 825 227 840 q 315 777 298 810 l 320 77 q 283 35 309 50 q 224 16 258 20 q 155 14 191 11 q 91 30 119 18 q 91 -24 87 5 q 106 -77 95 -53 q 134 -117 117 -102 q 174 -132 151 -133 m 197 897 q 109 917 142 898 q 61 964 76 936 q 50 1024 46 991 q 73 1084 53 1057 q 130 1132 94 1112 q 216 1154 165 1152 q 271 1135 250 1153 q 303 1088 293 1116 q 311 1028 313 1061 q 296 967 309 996 q 258 919 283 939 q 197 897 233 899 z "},"ĩ":{"ha":358,"x_min":-157,"x_max":529,"o":"m 34 796 q 100 829 58 817 q 184 840 141 841 q 262 825 227 840 q 315 777 298 810 l 320 77 q 269 28 308 43 q 186 12 231 12 q 100 26 141 12 q 39 65 58 41 l 34 796 m -27 887 q -81 868 -54 856 q -125 911 -107 880 q -151 979 -144 941 q -145 1040 -157 1017 q -117 1097 -141 1062 q -60 1164 -92 1133 q 5 1215 -28 1195 q 62 1225 39 1234 q 123 1206 99 1225 q 166 1164 146 1187 q 204 1124 186 1142 q 248 1105 222 1105 q 294 1118 277 1105 q 323 1150 312 1131 q 338 1192 334 1169 q 347 1233 343 1214 q 395 1253 363 1257 q 458 1230 427 1249 q 509 1181 488 1210 q 524 1128 529 1153 q 482 1031 511 1073 q 420 960 453 989 q 357 913 388 930 q 309 887 326 895 q 239 897 270 880 q 182 933 209 913 q 133 971 156 954 q 87 986 110 989 q 28 968 56 991 q -27 887 0 945 z "},"ĵ":{"ha":464,"x_min":-281,"x_max":437,"o":"m -4 -71 q -10 -137 -11 -103 q -1 -195 -9 -171 q 26 -228 8 -220 q 73 -216 45 -236 q 104 -140 94 -201 q 117 5 114 -80 q 117 191 119 91 q 106 382 114 290 q 90 547 99 473 q 69 652 80 620 q 81 689 62 673 q 133 716 100 705 q 207 731 165 727 q 286 729 248 735 q 355 707 324 723 q 396 661 385 690 q 413 503 406 591 q 422 315 420 414 q 419 114 425 217 q 397 -87 414 11 q 349 -271 380 -184 q 269 -424 317 -358 q 153 -528 221 -490 q -8 -570 84 -567 q -131 -538 -81 -567 q -211 -467 -180 -510 q -256 -370 -241 -423 q -276 -266 -271 -317 q -279 -170 -281 -214 q -273 -96 -277 -125 q -252 -49 -270 -68 q -207 -20 -233 -30 q -149 -10 -180 -11 q -88 -17 -117 -9 q -37 -38 -60 -24 q -4 -71 -14 -52 m 431 1006 q 434 983 437 1001 q 421 946 431 966 q 395 907 411 926 q 358 880 378 888 q 313 876 338 871 q 263 907 289 880 l 208 1006 l 142 895 q 94 878 123 878 q 37 891 65 878 q -16 932 8 905 q -49 996 -39 959 l 100 1213 q 149 1249 118 1238 q 211 1257 179 1259 q 270 1242 243 1255 q 309 1213 297 1230 l 431 1006 z "},"":{"ha":464,"x_min":-281,"x_max":425,"o":"m -4 -71 q -10 -137 -11 -103 q -1 -195 -9 -171 q 26 -228 8 -220 q 73 -216 45 -236 q 104 -140 94 -201 q 117 5 114 -80 q 117 191 119 91 q 106 382 114 290 q 90 547 99 473 q 69 652 80 620 q 81 689 62 673 q 133 716 100 705 q 207 731 165 727 q 286 729 248 735 q 355 707 324 723 q 396 661 385 690 q 413 503 406 591 q 422 315 420 414 q 419 114 425 217 q 397 -87 414 11 q 349 -271 380 -184 q 269 -424 317 -358 q 153 -528 221 -490 q -8 -570 84 -567 q -131 -538 -81 -567 q -211 -467 -180 -510 q -256 -370 -241 -423 q -276 -266 -271 -317 q -279 -170 -281 -214 q -273 -96 -277 -125 q -252 -49 -270 -68 q -207 -20 -233 -30 q -149 -10 -180 -11 q -88 -17 -117 -9 q -37 -38 -60 -24 q -4 -71 -14 -52 z "},"ķ":{"ha":804,"x_min":26,"x_max":791,"o":"m 34 1050 q 94 1091 54 1076 q 178 1111 134 1107 q 262 1107 222 1115 q 321 1080 301 1100 l 336 673 l 529 846 q 614 848 579 860 q 671 811 648 837 q 706 752 693 785 q 726 689 719 719 q 720 665 726 677 q 695 633 713 654 q 643 578 677 612 q 555 487 609 544 l 555 479 q 604 406 575 446 q 666 321 633 365 q 731 234 699 277 q 791 157 764 191 q 758 69 784 100 q 699 23 732 38 q 629 6 665 8 q 568 7 594 4 l 332 354 l 319 18 q 278 9 313 20 q 197 -7 243 -1 q 104 -3 152 -14 q 26 52 56 7 l 34 1050 m 321 -388 q 340 -375 326 -385 q 370 -347 355 -365 q 395 -307 385 -330 q 397 -258 404 -285 q 307 -249 339 -273 q 269 -187 275 -225 q 281 -107 263 -149 q 343 -41 300 -65 q 405 -26 372 -24 q 468 -47 438 -28 q 522 -98 498 -65 q 556 -176 545 -132 q 545 -278 563 -229 q 492 -359 526 -327 q 412 -401 457 -391 q 321 -388 368 -411 z "},"ĺ":{"ha":358,"x_min":30,"x_max":338,"o":"m 332 45 q 290 14 326 28 q 210 -3 255 0 q 117 4 164 -7 q 41 47 71 15 l 34 1038 q 58 1080 37 1063 q 111 1103 80 1096 q 176 1107 141 1109 q 241 1093 210 1105 q 292 1060 271 1081 q 315 1008 312 1039 q 321 771 320 892 q 322 526 321 650 q 324 281 323 403 q 332 45 326 160 m 167 1459 q 215 1485 186 1481 q 271 1477 244 1489 q 318 1439 298 1465 q 338 1375 338 1413 l 194 1149 q 135 1128 167 1123 q 78 1156 103 1134 q 41 1206 53 1177 q 45 1253 30 1234 l 167 1459 z "},"ľ":{"ha":734,"x_min":34,"x_max":722,"o":"m 332 45 q 290 14 326 28 q 210 -3 255 0 q 117 4 164 -7 q 41 47 71 15 l 34 1038 q 58 1080 37 1063 q 111 1103 80 1096 q 176 1107 141 1109 q 241 1093 210 1105 q 292 1060 271 1081 q 315 1008 312 1039 q 321 771 320 892 q 322 526 321 650 q 324 281 323 403 q 332 45 326 160 m 425 606 q 449 622 430 609 q 486 656 468 635 q 516 705 505 677 q 519 766 528 732 q 439 764 472 754 q 386 796 406 773 q 361 852 366 819 q 365 918 357 884 q 395 981 373 951 q 452 1032 416 1012 q 528 1050 487 1053 q 606 1025 568 1047 q 672 962 643 1002 q 713 865 701 921 q 699 741 722 800 q 635 642 677 681 q 537 590 593 602 q 425 606 481 578 z "},"ļ":{"ha":358,"x_min":34,"x_max":340,"o":"m 332 45 q 290 14 326 28 q 210 -3 255 0 q 117 4 164 -7 q 41 47 71 15 l 34 1038 q 58 1080 37 1063 q 111 1103 80 1096 q 176 1107 141 1109 q 241 1093 210 1105 q 292 1060 271 1081 q 315 1008 312 1039 q 321 771 320 892 q 322 526 321 650 q 324 281 323 403 q 332 45 326 160 m 99 -388 q 118 -375 103 -385 q 148 -347 133 -365 q 172 -307 163 -330 q 175 -258 182 -285 q 85 -249 117 -273 q 47 -187 53 -225 q 59 -107 41 -149 q 121 -41 77 -65 q 182 -26 149 -24 q 245 -47 216 -28 q 299 -98 275 -65 q 334 -176 323 -132 q 322 -278 340 -229 q 269 -359 304 -327 q 190 -401 235 -391 q 99 -388 145 -411 z "},"ŀ":{"ha":586,"x_min":34,"x_max":594,"o":"m 332 45 q 290 14 326 28 q 210 -3 255 0 q 117 4 164 -7 q 41 47 71 15 l 34 1038 q 58 1080 37 1063 q 111 1103 80 1096 q 176 1107 141 1109 q 241 1093 210 1105 q 292 1060 271 1081 q 315 1008 312 1039 q 321 771 320 892 q 322 526 321 650 q 324 281 323 403 q 332 45 326 160 m 467 564 q 397 583 425 564 q 355 628 369 601 q 340 687 340 655 q 353 747 339 719 q 395 795 366 774 q 467 819 423 815 q 538 800 510 818 q 581 753 567 781 q 593 693 594 726 q 577 632 591 661 q 535 585 563 604 q 467 564 507 566 z "},"ł":{"ha":358,"x_min":-107,"x_max":463,"o":"m 332 45 q 290 14 326 28 q 210 -3 255 0 q 117 4 164 -7 q 41 47 71 15 l 38 316 l 20 309 q -27 310 -5 300 q -65 342 -49 320 q -92 392 -81 363 q -105 447 -103 420 q -101 495 -107 473 q -79 524 -95 517 l 37 570 l 34 1038 q 58 1080 37 1063 q 111 1103 80 1096 q 176 1107 141 1109 q 241 1093 210 1105 q 292 1060 271 1081 q 315 1008 312 1039 q 319 848 317 929 q 321 685 320 768 l 349 696 q 404 672 378 700 q 444 607 429 644 q 460 532 458 570 q 446 480 463 495 l 321 430 q 325 235 323 331 q 332 45 327 138 z "},"ń":{"ha":787,"x_min":38,"x_max":761,"o":"m 511 53 q 507 275 510 174 q 485 439 503 376 q 427 518 467 502 q 311 486 387 534 l 315 53 q 281 22 304 34 q 229 3 258 9 q 170 -2 201 -3 q 113 5 140 -1 q 65 26 85 12 q 38 60 45 39 l 38 743 q 65 775 42 761 q 120 798 88 789 q 188 810 152 807 q 254 809 224 812 q 304 795 285 806 q 326 765 324 784 l 323 726 q 472 796 408 783 q 583 791 536 810 q 661 728 629 773 q 711 619 692 682 q 741 481 731 556 q 756 330 751 407 q 761 180 761 254 q 761 47 761 107 q 697 9 736 20 q 619 0 658 -1 q 549 15 581 1 q 511 53 518 28 m 388 1184 q 436 1210 407 1206 q 492 1202 465 1214 q 539 1164 519 1190 q 559 1100 559 1138 l 415 873 q 356 853 388 848 q 299 880 324 859 q 262 930 274 902 q 266 978 251 959 l 388 1184 z "},"ŉ":{"ha":787,"x_min":3,"x_max":761,"o":"m 511 53 q 507 275 510 174 q 485 439 503 376 q 427 518 467 502 q 311 486 387 534 l 315 53 q 281 22 304 34 q 229 3 258 9 q 170 -2 201 -3 q 113 5 140 -1 q 65 26 85 12 q 38 60 45 39 l 38 743 q 65 775 42 761 q 120 798 88 789 q 188 810 152 807 q 254 809 224 812 q 304 795 285 806 q 326 765 324 784 l 323 726 q 472 796 408 783 q 583 791 536 810 q 661 728 629 773 q 711 619 692 682 q 741 481 731 556 q 756 330 751 407 q 761 180 761 254 q 761 47 761 107 q 697 9 736 20 q 619 0 658 -1 q 549 15 581 1 q 511 53 518 28 m 61 916 q 80 928 65 918 q 110 956 95 939 q 134 996 125 974 q 137 1046 144 1019 q 47 1055 79 1031 q 9 1116 15 1078 q 21 1196 3 1154 q 83 1263 39 1238 q 144 1277 111 1279 q 208 1257 178 1275 q 261 1205 237 1238 q 296 1127 285 1172 q 284 1025 302 1074 q 231 945 266 977 q 152 903 197 913 q 61 916 107 892 z "},"ň":{"ha":787,"x_min":38,"x_max":761,"o":"m 511 53 q 507 275 510 174 q 485 439 503 376 q 427 518 467 502 q 311 486 387 534 l 315 53 q 281 22 304 34 q 229 3 258 9 q 170 -2 201 -3 q 113 5 140 -1 q 65 26 85 12 q 38 60 45 39 l 38 743 q 65 775 42 761 q 120 798 88 789 q 188 810 152 807 q 254 809 224 812 q 304 795 285 806 q 326 765 324 784 l 323 726 q 472 796 408 783 q 583 791 536 810 q 661 728 629 773 q 711 619 692 682 q 741 481 731 556 q 756 330 751 407 q 761 180 761 254 q 761 47 761 107 q 697 9 736 20 q 619 0 658 -1 q 549 15 581 1 q 511 53 518 28 m 499 894 q 460 864 487 876 q 401 850 433 852 q 338 857 369 848 q 290 894 308 867 l 141 1111 q 174 1175 151 1147 q 227 1215 198 1202 q 284 1229 255 1229 q 332 1211 313 1229 l 397 1100 l 453 1199 q 503 1231 479 1226 q 548 1227 528 1236 q 585 1199 568 1218 q 611 1160 601 1180 q 624 1123 621 1141 q 621 1100 627 1105 l 499 894 z "},"ņ":{"ha":787,"x_min":38,"x_max":761,"o":"m 511 53 q 507 275 510 174 q 485 439 503 376 q 427 518 467 502 q 311 486 387 534 l 315 53 q 281 22 304 34 q 229 3 258 9 q 170 -2 201 -3 q 113 5 140 -1 q 65 26 85 12 q 38 60 45 39 l 38 743 q 65 775 42 761 q 120 798 88 789 q 188 810 152 807 q 254 809 224 812 q 304 795 285 806 q 326 765 324 784 l 323 726 q 472 796 408 783 q 583 791 536 810 q 661 728 629 773 q 711 619 692 682 q 741 481 731 556 q 756 330 751 407 q 761 180 761 254 q 761 47 761 107 q 697 9 736 20 q 619 0 658 -1 q 549 15 581 1 q 511 53 518 28 m 313 -388 q 332 -375 317 -385 q 362 -347 347 -365 q 387 -307 377 -330 q 389 -258 396 -285 q 299 -249 331 -273 q 261 -187 267 -225 q 273 -107 255 -149 q 335 -41 292 -65 q 397 -26 363 -24 q 460 -47 430 -28 q 513 -98 490 -65 q 548 -176 537 -132 q 536 -278 555 -229 q 484 -359 518 -327 q 404 -401 449 -391 q 313 -388 359 -411 z "},"ñ":{"ha":787,"x_min":38,"x_max":761,"o":"m 511 53 q 507 275 510 174 q 485 439 503 376 q 427 518 467 502 q 311 486 387 534 l 315 53 q 281 22 304 34 q 229 3 258 9 q 170 -2 201 -3 q 113 5 140 -1 q 65 26 85 12 q 38 60 45 39 l 38 743 q 65 775 42 761 q 120 798 88 789 q 188 810 152 807 q 254 809 224 812 q 304 795 285 806 q 326 765 324 784 l 323 726 q 472 796 408 783 q 583 791 536 810 q 661 728 629 773 q 711 619 692 682 q 741 481 731 556 q 756 330 751 407 q 761 180 761 254 q 761 47 761 107 q 697 9 736 20 q 619 0 658 -1 q 549 15 581 1 q 511 53 518 28 m 184 887 q 131 868 157 856 q 86 911 104 880 q 61 979 68 941 q 66 1040 54 1017 q 95 1097 71 1062 q 151 1164 119 1133 q 217 1215 183 1195 q 274 1225 251 1234 q 334 1206 311 1225 q 378 1164 358 1187 q 416 1124 397 1142 q 460 1105 434 1105 q 506 1118 488 1105 q 534 1150 524 1131 q 550 1192 545 1169 q 559 1233 555 1214 q 607 1253 575 1257 q 669 1230 639 1249 q 720 1181 700 1210 q 735 1128 741 1153 q 694 1031 723 1073 q 632 960 665 989 q 568 913 600 930 q 521 887 537 895 q 451 897 481 880 q 394 933 420 913 q 345 971 368 954 q 298 986 321 989 q 239 968 267 991 q 184 887 212 945 z "},"ó":{"ha":686,"x_min":30,"x_max":648,"o":"m 305 5 q 159 50 217 11 q 72 150 102 90 q 36 285 42 210 q 43 437 30 359 q 89 587 57 514 q 166 714 121 659 q 267 800 212 769 q 385 826 323 831 q 507 786 456 823 q 591 690 559 749 q 635 557 623 631 q 643 407 648 483 q 613 258 637 331 q 546 129 589 186 q 443 38 503 72 q 305 5 382 4 m 362 576 q 323 557 339 579 q 296 502 307 536 q 282 427 286 468 q 281 349 278 385 q 293 286 283 312 q 319 258 302 260 q 356 274 340 252 q 381 330 372 296 q 393 407 391 365 q 394 486 396 449 q 384 549 392 524 q 362 576 376 575 m 338 1184 q 386 1210 357 1206 q 442 1202 415 1214 q 489 1164 469 1190 q 509 1100 509 1138 l 365 873 q 306 853 338 848 q 249 880 274 859 q 212 930 224 902 q 216 978 201 959 l 338 1184 z "},"ô":{"ha":686,"x_min":30,"x_max":648,"o":"m 305 5 q 159 50 217 11 q 72 150 102 90 q 36 285 42 210 q 43 437 30 359 q 89 587 57 514 q 166 714 121 659 q 267 800 212 769 q 385 826 323 831 q 507 786 456 823 q 591 690 559 749 q 635 557 623 631 q 643 407 648 483 q 613 258 637 331 q 546 129 589 186 q 443 38 503 72 q 305 5 382 4 m 362 576 q 323 557 339 579 q 296 502 307 536 q 282 427 286 468 q 281 349 278 385 q 293 286 283 312 q 319 258 302 260 q 356 274 340 252 q 381 330 372 296 q 393 407 391 365 q 394 486 396 449 q 384 549 392 524 q 362 576 376 575 m 571 983 q 574 960 576 978 q 561 923 571 943 q 534 884 551 903 q 498 857 518 865 q 453 852 477 848 q 403 884 429 857 l 347 983 l 282 872 q 234 854 263 854 q 176 868 205 854 q 124 909 148 882 q 91 972 100 936 l 240 1190 q 288 1225 258 1215 q 351 1234 319 1236 q 410 1219 382 1232 q 449 1190 437 1207 l 571 983 z "},"ö":{"ha":686,"x_min":30,"x_max":648,"o":"m 305 5 q 159 50 217 11 q 72 150 102 90 q 36 285 42 210 q 43 437 30 359 q 89 587 57 514 q 166 714 121 659 q 267 800 212 769 q 385 826 323 831 q 507 786 456 823 q 591 690 559 749 q 635 557 623 631 q 643 407 648 483 q 613 258 637 331 q 546 129 589 186 q 443 38 503 72 q 305 5 382 4 m 362 576 q 323 557 339 579 q 296 502 307 536 q 282 427 286 468 q 281 349 278 385 q 293 286 283 312 q 319 258 302 260 q 356 274 340 252 q 381 330 372 296 q 393 407 391 365 q 394 486 396 449 q 384 549 392 524 q 362 576 376 575 m 178 869 q 108 888 136 869 q 66 933 80 906 q 51 992 52 960 q 64 1052 50 1024 q 106 1100 77 1080 q 178 1124 134 1120 q 250 1105 221 1123 q 292 1059 278 1086 q 304 998 305 1031 q 288 937 302 966 q 246 890 274 909 q 178 869 218 871 m 506 869 q 436 888 464 869 q 394 933 408 906 q 379 992 380 960 q 392 1052 378 1024 q 434 1100 406 1080 q 506 1124 463 1120 q 578 1105 549 1123 q 620 1059 606 1086 q 632 998 633 1031 q 616 937 631 966 q 574 890 602 909 q 506 869 547 871 z "},"ŏ":{"ha":686,"x_min":30,"x_max":648,"o":"m 305 5 q 159 50 217 11 q 72 150 102 90 q 36 285 42 210 q 43 437 30 359 q 89 587 57 514 q 166 714 121 659 q 267 800 212 769 q 385 826 323 831 q 507 786 456 823 q 591 690 559 749 q 635 557 623 631 q 643 407 648 483 q 613 258 637 331 q 546 129 589 186 q 443 38 503 72 q 305 5 382 4 m 362 576 q 323 557 339 579 q 296 502 307 536 q 282 427 286 468 q 281 349 278 385 q 293 286 283 312 q 319 258 302 260 q 356 274 340 252 q 381 330 372 296 q 393 407 391 365 q 394 486 396 449 q 384 549 392 524 q 362 576 376 575 m 76 1050 q 83 1087 72 1063 q 115 1130 94 1111 q 164 1154 136 1149 q 224 1137 193 1160 q 264 1074 232 1099 q 337 1047 297 1050 q 416 1068 377 1044 q 477 1149 456 1092 q 531 1157 505 1160 q 577 1141 557 1154 q 608 1105 597 1127 q 617 1054 618 1082 q 555 941 598 985 q 457 876 513 897 q 340 857 401 854 q 225 881 279 859 q 130 946 171 903 q 76 1050 90 989 z "}}}
